<svg width="613" height="226" viewBox="0 0 613 226" fill="none" xmlns="http://www.w3.org/2000/svg">
<path fill-rule="evenodd" clip-rule="evenodd" d="M59.0457 223L5.58475 123.405C2.09675 116.907 2.09675 109.093 5.58475 102.595L59.0457 3H553.827L607.288 102.595C610.776 109.093 610.776 116.907 607.288 123.405L553.827 223H59.0457Z" fill="#1C233F" stroke="#2396B9" stroke-width="5"/>
<path d="M180.42 6.5L163.853 20.5H68.709L68.5684 20.7627L34.7285 83.6836L16.3252 88.9482L60.9111 6.5H180.42Z" fill="#2396B9" stroke="#2396B9"/>
<path d="M34.7285 143.071L68.5684 205.993L68.709 206.256H163.853L180.42 220.256H60.9111L16.3252 137.807L34.7285 143.071Z" fill="#2396B9" stroke="#2396B9"/>
<path d="M434.367 6.5L450.935 20.5H546.078L546.219 20.7627L580.059 83.6836L598.462 88.9482L553.876 6.5H434.367Z" fill="#2396B9" stroke="#2396B9"/>
<path d="M580.059 143.071L546.219 205.993L546.078 206.256H450.935L434.367 220.256H553.876L598.462 137.807L580.059 143.071Z" fill="#2396B9" stroke="#2396B9"/>
</svg>
