<svg width="5000" height="2910" viewBox="0 0 5000 2910" fill="none" xmlns="http://www.w3.org/2000/svg">
<path d="M4727.22 260.04C4726.27 259.548 4725.34 259.121 4724.39 258.635C4725.33 259.233 4726.26 259.809 4727.19 260.408C4728.11 260.94 4729.02 261.423 4729.94 261.959C4729.03 261.309 4728.13 260.687 4727.22 260.04ZM247.507 779.937C246.291 778.959 245.07 777.97 243.854 776.987C242.956 776.495 242.056 775.99 241.161 775.5C242.514 776.496 243.867 777.501 245.22 778.494C245.983 778.983 246.743 779.449 247.507 779.937ZM4696.21 242.724C4695.2 242.293 4694.19 241.844 4693.19 241.419C4694.12 241.917 4695.04 242.371 4695.96 242.874C4697 243.378 4698.04 243.917 4699.08 244.427C4698.13 243.844 4697.17 243.303 4696.21 242.724ZM4712.93 249.973C4710.6 248.971 4708.27 247.958 4705.94 246.94C4708.13 248.297 4710.33 249.741 4712.53 251.118C4714.83 252.275 4717.13 253.421 4719.43 254.553C4717.27 253.032 4715.1 251.477 4712.93 249.973ZM262.835 789.593C260.627 787.678 258.413 785.738 256.197 783.805C254.478 782.879 252.752 781.886 251.033 780.95C253.302 782.786 255.571 784.62 257.837 786.447C259.503 787.498 261.169 788.544 262.835 789.593ZM272.645 798.155C271.697 797.333 270.745 796.497 269.792 795.668C268.981 795.158 268.168 794.64 267.357 794.132C268.333 794.919 269.313 795.722 270.286 796.498C271.074 797.057 271.858 797.594 272.645 798.155ZM4663.37 227.384C4662.41 227.06 4661.45 226.726 4660.49 226.404C4661.41 226.813 4662.33 227.268 4663.25 227.682C4664.2 228.053 4665.15 228.444 4666.11 228.819C4665.2 228.356 4664.28 227.844 4663.37 227.384ZM4679.56 232.868C4677.08 231.984 4674.63 231.217 4672.17 230.364C4674.47 231.555 4676.77 232.786 4679.07 233.995C4681.52 234.989 4683.95 235.893 4686.4 236.918C4684.12 235.567 4681.83 234.202 4679.56 232.868ZM4697.87 239.679C4694.31 238.343 4690.75 236.989 4687.21 235.715C4690.44 237.636 4693.66 239.489 4696.89 241.446C4700.3 242.89 4703.72 244.396 4707.13 245.886C4704.05 243.77 4700.96 241.759 4697.87 239.679ZM277.104 798.585C274.025 795.725 270.932 792.824 267.842 789.933C265.818 788.861 263.807 787.865 261.786 786.784C264.742 789.366 267.697 791.953 270.648 794.517C272.798 795.861 274.953 797.25 277.104 798.585ZM288.813 809.521C286.768 807.627 284.712 805.697 282.657 803.771C280.978 802.736 279.288 801.631 277.606 800.59C279.68 802.403 281.754 804.223 283.82 806.011C285.487 807.184 287.15 808.353 288.813 809.521ZM298.218 818.306C297.607 817.74 296.989 817.158 296.373 816.585C295.626 816.062 294.875 815.525 294.128 815.003C294.604 815.416 295.089 815.85 295.562 816.258C296.449 816.947 297.331 817.616 298.218 818.306ZM4627.72 213.977C4626.69 213.722 4625.66 213.468 4624.62 213.206C4625.59 213.548 4626.55 213.918 4627.52 214.26C4628.55 214.578 4629.58 214.898 4630.62 215.212C4629.66 214.81 4628.68 214.374 4627.72 213.977ZM4645.73 218.778C4642.77 217.933 4639.8 217.061 4636.86 216.281C4639.2 217.27 4641.55 218.27 4643.9 219.277C4646.95 220.257 4650.03 221.323 4653.1 222.369C4650.64 221.15 4648.19 219.975 4645.73 218.778ZM4664.43 224.036C4660.82 223.024 4657.2 222.009 4653.59 220.988C4657.05 222.706 4660.51 224.296 4663.97 226.055C4667.15 227.142 4670.33 228.218 4673.51 229.288C4670.48 227.54 4667.45 225.751 4664.43 224.036ZM4682.26 229.387C4678.25 228.118 4674.24 226.847 4670.25 225.673C4673.56 227.579 4676.88 229.618 4680.2 231.564C4684.28 233.007 4688.4 234.589 4692.51 236.143C4689.09 233.867 4685.68 231.619 4682.26 229.387ZM290.453 806.828C286.829 803.237 283.202 799.637 279.57 796.031C277.233 794.809 274.896 793.617 272.556 792.384C276.217 795.808 279.881 799.243 283.531 802.635C285.844 804.058 288.145 805.417 290.453 806.828ZM303.761 820.03C300.734 817.04 297.697 814.016 294.657 811.001C292.654 809.781 290.662 808.648 288.656 807.42C291.53 810.115 294.407 812.816 297.271 815.466C299.431 816.971 301.602 818.536 303.761 820.03ZM315.341 831.519C313.501 829.712 311.651 827.863 309.801 826.022C308.151 824.889 306.482 823.669 304.832 822.529C306.643 824.227 308.456 825.941 310.257 827.593C311.949 828.899 313.646 830.218 315.341 831.519ZM324.182 840.29L323.532 839.645C323.129 839.339 322.724 839.02 322.324 838.714L322.692 839.044L324.182 840.29ZM4590.23 203.125C4589.13 202.925 4588.05 202.781 4586.95 202.587C4587.95 202.858 4588.96 203.139 4589.96 203.41C4591.07 203.659 4592.18 203.885 4593.29 204.138C4592.27 203.805 4591.25 203.45 4590.23 203.125ZM4610.12 206.973C4607.21 206.406 4604.28 205.818 4601.37 205.269C4603.99 206.135 4606.6 206.975 4609.21 207.863C4612.16 208.575 4615.14 209.342 4618.1 210.081C4615.44 209.01 4612.79 208.022 4610.12 206.973ZM4629.35 210.792C4625.6 209.999 4621.89 209.296 4618.16 208.538C4621.51 209.883 4624.85 211.22 4628.21 212.602C4631.61 213.483 4635 214.299 4638.42 215.216C4635.39 213.766 4632.37 212.208 4629.35 210.792ZM4648.06 215.018C4643.88 214.062 4639.7 213.101 4635.55 212.193C4639.12 213.896 4642.71 215.682 4646.29 217.429C4650.46 218.575 4654.65 219.772 4658.84 220.961C4655.25 218.944 4651.65 216.988 4648.06 215.018ZM4666.84 219.374C4662.27 218.26 4657.73 217.237 4653.17 216.172C4657.11 218.359 4661.06 220.452 4665 222.694C4669.29 223.943 4673.58 225.19 4677.88 226.502C4674.21 224.117 4670.52 221.708 4666.84 219.374ZM302.992 814.304C299.173 810.286 295.354 806.275 291.53 802.247C288.964 800.927 286.395 799.577 283.826 798.244C287.729 802.122 291.635 806.004 295.531 809.853C298.023 811.366 300.505 812.803 302.992 814.304ZM317.231 829.277C313.709 825.587 310.177 821.864 306.648 818.148C304.345 816.764 302.042 815.419 299.734 814.025C303.395 817.663 307.062 821.319 310.709 824.915C312.891 826.414 315.052 827.788 317.231 829.277ZM330.444 843.174C327.549 840.157 324.63 837.07 321.719 833.998C319.821 832.71 317.939 831.499 316.039 830.204C318.85 833.004 321.664 835.815 324.454 838.552C326.446 840.068 328.454 841.667 330.444 843.174ZM341.614 854.876C339.958 853.163 338.303 851.438 336.634 849.685C335.305 848.685 333.976 847.684 332.647 846.678C334.134 848.16 335.626 849.665 337.098 851.097C338.603 852.347 340.111 853.63 341.614 854.876ZM4552.39 195.386C4551.14 195.252 4549.89 195.096 4548.65 194.97L4550.48 195.312C4551.67 195.482 4552.84 195.603 4554.03 195.78C4553.48 195.652 4552.93 195.514 4552.39 195.386ZM4572.6 197.631C4569.74 197.322 4566.88 197.003 4564.02 196.678C4566.98 197.409 4569.93 198.059 4572.9 198.816C4575.64 199.266 4578.39 199.726 4581.13 200.161C4578.27 199.271 4575.45 198.497 4572.6 197.631ZM4592.95 200.282C4588.93 199.694 4584.91 199.083 4580.92 198.575C4584.15 199.579 4587.39 200.678 4590.62 201.716C4594.58 202.422 4598.56 203.228 4602.53 204.018C4599.34 202.782 4596.14 201.482 4592.95 200.282ZM4612.04 202.993C4607.79 202.382 4603.54 201.795 4599.28 201.182C4603.04 202.621 4606.81 204.101 4610.58 205.583C4614.83 206.424 4619.07 207.215 4623.33 208.067C4619.56 206.324 4615.8 204.687 4612.04 202.993ZM4632.24 206.335C4627.25 205.445 4622.25 204.539 4617.3 203.755C4621.49 205.667 4625.68 207.456 4629.87 209.427C4634.39 210.39 4638.94 211.454 4643.49 212.504C4639.74 210.468 4635.99 208.317 4632.24 206.335ZM4650.87 209.55C4646.15 208.713 4641.44 207.945 4636.71 207.106C4640.67 209.226 4644.64 211.481 4648.61 213.659C4653.33 214.751 4658.02 215.742 4662.75 216.853C4658.79 214.37 4654.83 211.979 4650.87 209.55ZM315.663 821.858C311.712 817.459 307.754 813.037 303.798 808.626C301.005 807.212 298.2 805.692 295.405 804.26C299.443 808.514 303.48 812.765 307.515 816.999C310.23 818.628 312.949 820.244 315.663 821.858ZM329.915 837.751C326.256 833.719 322.561 829.559 318.874 825.436C316.305 823.918 313.736 822.378 311.17 820.843C314.981 824.859 318.798 828.889 322.596 832.862C325.04 834.521 327.472 836.103 329.915 837.751ZM344.575 853.75C341.011 849.848 337.476 846.033 333.918 842.151C331.639 840.621 329.367 839.124 327.085 837.583C330.57 841.264 334.065 844.975 337.518 848.558C339.882 850.337 342.217 851.986 344.575 853.75ZM358.856 869.299L349.618 859.241C347.539 857.692 345.473 856.214 343.388 854.656C346.446 857.798 349.473 860.86 352.532 864.009C354.632 865.736 356.761 867.584 358.856 869.299ZM370.519 881.998C368.763 880.096 367 878.172 365.242 876.255C364.102 875.328 362.981 874.459 361.841 873.532C363.639 875.367 365.442 877.215 367.242 879.057C368.329 880.022 369.432 881.035 370.519 881.998ZM4512.66 190.361C4511.85 190.34 4511.04 190.309 4510.23 190.288C4511.59 190.378 4512.97 190.517 4514.34 190.618L4512.66 190.361ZM4533.23 191.007C4530.34 190.868 4527.49 190.828 4524.61 190.715C4527.57 191.199 4530.52 191.644 4533.49 192.155C4536.23 192.395 4538.95 192.562 4541.69 192.813C4538.86 192.178 4536.05 191.619 4533.23 191.007ZM4554.64 192.303C4550.72 192.06 4546.79 191.805 4542.88 191.591C4546.14 192.33 4549.43 193.184 4552.7 193.955C4556.69 194.368 4560.71 194.84 4564.71 195.29C4561.36 194.296 4557.99 193.261 4554.64 192.303ZM4574.74 193.703C4570.18 193.324 4565.64 193.011 4561.11 192.695C4565.05 193.844 4568.99 195.009 4572.94 196.206C4577.5 196.758 4582.06 197.308 4586.65 197.922C4582.67 196.449 4578.71 195.123 4574.74 193.703ZM4595.61 195.606C4590.61 195.129 4585.62 194.671 4580.65 194.241C4584.88 195.779 4589.11 197.278 4593.36 198.876C4597.99 199.514 4602.63 200.179 4607.28 200.852C4603.39 199.12 4599.49 197.283 4595.61 195.606ZM4615.3 197.685C4610.21 197.089 4605.14 196.528 4600.09 196.012C4604.22 197.819 4608.36 199.728 4612.49 201.592C4617.61 202.378 4622.74 203.234 4627.89 204.112C4623.69 201.914 4619.5 199.824 4615.3 197.685ZM4635.58 200.152C4630.22 199.473 4624.86 198.832 4619.52 198.2C4623.93 200.469 4628.33 202.613 4632.74 204.951C4637.68 205.802 4642.61 206.635 4647.56 207.51C4643.57 205.079 4639.58 202.524 4635.58 200.152ZM328.225 829.344C324.003 824.442 319.739 819.418 315.483 814.415C312.756 813.06 310.048 811.808 307.321 810.435C311.464 815.06 315.612 819.696 319.744 824.289C322.569 825.962 325.401 827.692 328.225 829.344ZM343.349 846.725C339.285 842.035 335.258 837.464 331.2 832.785C328.457 831.185 325.699 829.487 322.954 827.869C326.915 832.28 330.874 836.69 334.803 841.018C337.653 842.93 340.503 844.831 343.349 846.725ZM358.238 863.807C354.474 859.483 350.71 855.176 346.944 850.852C344.265 849.076 341.58 847.266 338.898 845.474C342.77 849.691 346.631 853.875 350.508 858.119C353.092 860.042 355.659 861.898 358.238 863.807ZM372.661 880.358C369.308 876.524 365.934 872.642 362.565 868.77C360.225 867.048 357.891 865.343 355.551 863.609C359.078 867.451 362.605 871.295 366.126 875.125C368.313 876.905 370.477 878.586 372.661 880.358ZM386.443 896.13C383.632 892.939 380.8 889.693 377.963 886.438C376.136 884.966 374.328 883.54 372.499 882.061C375.499 885.338 378.505 888.629 381.482 891.846C383.145 893.309 384.782 894.674 386.443 896.13ZM399.561 910.854C397.605 908.647 395.658 906.466 393.718 904.294C392.505 903.238 391.307 902.23 390.094 901.171C392.084 903.308 394.042 905.345 396.032 907.478C397.2 908.581 398.392 909.757 399.561 910.854ZM4470.74 188.268C4470.16 188.295 4469.6 188.326 4469.03 188.354C4470.36 188.395 4471.68 188.384 4473.02 188.426C4472.26 188.368 4471.5 188.321 4470.74 188.268ZM4493.25 187.479C4489.95 187.532 4486.63 187.561 4483.35 187.67C4486.01 187.893 4488.68 188.164 4491.34 188.404C4494.51 188.438 4497.69 188.472 4500.88 188.551C4498.34 188.188 4495.79 187.821 4493.25 187.479ZM4514.3 187.074C4510.34 187.135 4506.39 187.232 4502.43 187.303C4505.89 187.799 4509.38 188.373 4512.85 188.904C4516.84 189.019 4520.83 189.138 4524.83 189.26C4521.32 188.529 4517.81 187.769 4514.3 187.074ZM4535.98 187.181C4531.05 187.101 4526.11 187.002 4521.22 187.011C4525.31 187.852 4529.38 188.671 4533.48 189.562C4538.45 189.792 4543.46 190.142 4548.47 190.47C4544.29 189.301 4540.15 188.297 4535.98 187.181ZM4557.08 187.451C4552.03 187.329 4547.04 187.331 4542.02 187.25C4546.32 188.424 4550.63 189.629 4554.94 190.861C4559.7 191.171 4564.42 191.388 4569.19 191.736C4565.15 190.317 4561.11 188.816 4557.08 187.451ZM4578.07 188.336C4572.72 188.084 4567.38 187.826 4562.07 187.659C4566.41 189.151 4570.75 190.726 4575.1 192.277C4580.44 192.708 4585.82 193.229 4591.19 193.744C4586.81 191.873 4582.44 190.143 4578.07 188.336ZM4599 189.367C4593.43 189.034 4587.9 188.783 4582.36 188.517C4586.91 190.421 4591.46 192.214 4596.02 194.186C4601.19 194.697 4606.36 195.196 4611.55 195.771C4607.37 193.659 4603.18 191.417 4599 189.367ZM4619.29 190.838C4613.76 190.409 4608.24 189.986 4602.75 189.637C4607.09 191.787 4611.43 194.07 4615.77 196.283C4621.28 196.913 4626.81 197.599 4632.35 198.302C4628 195.737 4623.64 193.333 4619.29 190.838ZM340.982 836.813C336.363 831.236 331.767 825.727 327.13 820.099C324.308 818.713 321.492 817.372 318.673 815.971C323.158 821.232 327.64 826.49 332.088 831.651C335.055 833.381 338.021 835.102 340.982 836.813ZM356.632 855.598C352.271 850.356 347.925 845.158 343.561 839.908C340.742 838.287 337.936 836.758 335.115 835.12C339.368 840.011 343.593 844.828 347.851 849.733C350.774 851.673 353.714 853.68 356.632 855.598ZM371.756 873.758C367.803 869.025 363.836 864.253 359.87 859.484C357.07 857.653 354.248 855.707 351.448 853.859C355.462 858.47 359.473 863.066 363.482 867.666C366.239 869.7 369 871.742 371.756 873.758ZM386.443 891.389C382.85 887.117 379.213 882.719 375.589 878.357C372.999 876.469 370.399 874.531 367.806 872.63C371.504 876.881 375.205 881.149 378.879 885.332C381.405 887.371 383.919 889.366 386.443 891.389ZM401.469 909.083C398.074 905.065 394.697 901.103 391.315 897.128C388.938 895.23 386.556 893.323 384.177 891.413C387.675 895.382 391.131 899.231 394.623 903.184C396.915 905.179 399.184 907.099 401.469 909.083ZM415.779 925.933L407.478 916.156C405.617 914.55 403.759 912.962 401.895 911.344C404.869 914.679 407.849 918.024 410.833 921.377C412.489 922.925 414.123 924.391 415.779 925.933ZM428.052 940.379C426.496 938.558 424.933 936.706 423.372 934.869C422.406 933.973 421.448 933.105 420.479 932.208C422.153 934.09 423.837 935.987 425.509 937.856L428.052 940.379ZM4426.41 189.439C4426.08 189.477 4425.76 189.527 4425.43 189.565C4426.45 189.518 4427.49 189.512 4428.51 189.466L4429.32 189.398C4428.34 189.404 4427.38 189.429 4426.41 189.439ZM4450.97 186.899C4447.74 187.218 4444.5 187.514 4441.28 187.851C4443.38 187.862 4445.51 187.944 4447.61 187.966C4451.23 187.734 4454.88 187.596 4458.52 187.417C4456.01 187.265 4453.47 187.035 4450.97 186.899ZM4472.5 184.949C4468.24 185.269 4464.02 185.657 4459.79 186.034C4463.45 186.26 4467.13 186.536 4470.81 186.798C4474.85 186.62 4478.85 186.356 4482.91 186.217C4479.44 185.784 4475.96 185.35 4472.5 184.949ZM4495.09 183.436C4490.17 183.753 4485.25 184.071 4480.35 184.423C4484.7 184.958 4489.03 185.428 4493.4 186.016C4498.21 185.896 4503.05 185.821 4507.89 185.74C4503.61 184.914 4499.36 184.208 4495.09 183.436ZM4517.54 182.331C4512.09 182.526 4506.65 182.729 4501.25 183.023C4505.66 183.847 4510.07 184.728 4514.49 185.611C4519.7 185.571 4524.94 185.604 4530.19 185.66C4525.98 184.555 4521.75 183.381 4517.54 182.331ZM4538.85 181.566C4533.43 181.735 4528.03 181.945 4522.62 182.149C4527.15 183.299 4531.69 184.517 4536.23 185.73C4541.65 185.787 4547.06 185.823 4552.5 185.92C4547.94 184.397 4543.4 183.024 4538.85 181.566ZM4561.08 181.33C4555.11 181.33 4549.13 181.294 4543.23 181.42C4547.96 182.953 4552.68 184.407 4557.41 186.012C4562.95 186.162 4568.56 186.454 4574.15 186.72C4569.79 184.939 4565.43 183.048 4561.08 181.33ZM4581.76 181.229C4576.1 181.199 4570.52 181.295 4564.89 181.31C4569.4 183.111 4573.92 185.032 4578.44 186.9C4584.1 187.159 4589.72 187.345 4595.4 187.656C4590.85 185.44 4586.31 183.372 4581.76 181.229ZM4603.45 181.781C4597.42 181.594 4591.37 181.385 4585.4 181.321C4590.08 183.546 4594.76 185.646 4599.44 187.947C4605.06 188.283 4610.73 188.736 4616.39 189.177C4612.08 186.72 4607.77 184.17 4603.45 181.781ZM353.29 843.735C348.521 837.767 343.786 831.876 339.011 825.894C336.063 824.471 333.113 823.018 330.165 821.577C334.95 827.369 339.677 833.004 344.446 838.761C347.402 840.458 350.339 842.055 353.29 843.735ZM369.592 864.107C364.962 858.33 360.325 852.535 355.684 846.728C352.794 845.089 349.917 843.513 347.025 841.856C351.615 847.38 356.192 852.861 360.777 858.37C363.718 860.293 366.655 862.204 369.592 864.107ZM385.277 883.707C380.995 878.394 376.662 872.951 372.349 867.554C369.567 865.754 366.803 864.072 364.013 862.255C368.185 867.269 372.359 872.3 376.51 877.255C379.426 879.383 382.363 881.601 385.277 883.707ZM400.795 902.877C396.765 897.905 392.775 893.029 388.74 888.037C385.95 886.028 383.131 883.881 380.339 881.854C384.316 886.61 388.282 891.332 392.238 896.028C395.089 898.306 397.947 900.62 400.795 902.877ZM416.155 921.743L405.093 908.158C402.443 906.063 399.766 903.88 397.113 901.769C400.872 906.192 404.627 910.602 408.394 915.05C410.983 917.288 413.571 919.52 416.155 921.743ZM430.913 939.86C427.728 935.969 424.53 932.028 421.332 928.099C419.029 926.124 416.708 924.107 414.397 922.122C417.692 926.004 420.99 929.894 424.278 933.754C426.494 935.806 428.697 937.819 430.913 939.86ZM445.25 957.469C442.605 954.248 439.925 950.941 437.251 947.645C435.456 945.996 433.661 944.343 431.863 942.687C434.556 945.864 437.251 949.056 439.917 952.169C441.689 953.918 443.481 955.728 445.25 957.469ZM458.283 973.198C457.022 971.668 455.769 970.161 454.514 968.651C453.701 967.855 452.88 967.041 452.066 966.245C453.516 967.918 454.959 969.573 456.414 971.262C457.041 971.914 457.66 972.547 458.283 973.198ZM4380.61 194.173C4379.96 194.294 4379.3 194.395 4378.65 194.521C4379.5 194.415 4380.36 194.334 4381.22 194.229C4381.79 194.139 4382.36 194.041 4382.94 193.952C4382.16 194.017 4381.39 194.105 4380.61 194.173ZM4405.8 189.714C4402.62 190.281 4399.44 190.84 4396.25 191.402C4398.63 191.226 4401.04 191.106 4403.43 190.945C4406.86 190.474 4410.31 190.059 4413.74 189.606C4411.1 189.66 4408.43 189.642 4405.8 189.714ZM4429.13 186.071C4424.4 186.731 4419.67 187.369 4415 188.118C4418.78 188.047 4422.57 188 4426.36 187.966C4430.95 187.426 4435.56 186.952 4440.18 186.492C4436.49 186.328 4432.81 186.195 4429.13 186.071ZM4451.94 182.774C4446.99 183.425 4442.11 184.208 4437.18 184.905C4441.79 185.095 4446.36 185.183 4450.99 185.431C4455.69 184.976 4460.37 184.463 4465.09 184.046C4460.69 183.567 4456.32 183.196 4451.94 182.774ZM4475.88 180.067C4470.31 180.671 4464.74 181.27 4459.22 181.95C4463.66 182.408 4468.14 182.96 4472.6 183.478C4478.05 183.049 4483.56 182.72 4489.06 182.378C4484.67 181.61 4480.26 180.778 4475.88 180.067ZM4498.26 177.797C4492.5 178.312 4486.77 178.879 4481.06 179.481C4485.77 180.27 4490.5 181.112 4495.23 181.966C4500.95 181.624 4506.68 181.307 4512.45 181.055C4507.71 179.894 4502.99 178.889 4498.26 177.797ZM4521.18 175.928C4515.13 176.385 4509.12 176.876 4503.12 177.402C4507.99 178.547 4512.86 179.649 4517.75 180.867C4523.4 180.633 4529.07 180.435 4534.75 180.26C4530.23 178.828 4525.69 177.293 4521.18 175.928ZM4543.16 174.578C4537.1 174.887 4531.03 175.189 4525.04 175.612C4529.72 177.044 4534.41 178.602 4539.11 180.102C4545.14 179.954 4551.23 179.928 4557.32 179.897C4552.6 178.049 4547.88 176.35 4543.16 174.578ZM4565.26 173.461C4559.1 173.734 4552.98 174.067 4546.85 174.39C4551.7 176.232 4556.55 177.958 4561.41 179.878C4567.17 179.839 4572.92 179.785 4578.71 179.79C4574.23 177.697 4569.74 175.486 4565.26 173.461ZM4586.93 172.934C4580.72 173.025 4574.5 173.069 4568.37 173.304C4572.96 175.395 4577.55 177.627 4582.14 179.791C4588.3 179.836 4594.55 180.072 4600.78 180.266C4596.17 177.724 4591.54 175.398 4586.93 172.934ZM365.629 850.676C360.762 844.375 355.893 838.077 351.019 831.75C348.011 830.322 344.989 828.789 341.981 827.342C346.858 833.454 351.706 839.491 356.576 845.584C359.596 847.296 362.61 848.983 365.629 850.676ZM382.121 872.043C377.391 865.937 372.625 859.745 367.874 853.586C364.908 851.927 361.939 850.255 358.97 848.578C363.737 854.539 368.503 860.502 373.254 866.429C376.217 868.344 379.16 870.147 382.121 872.043ZM398.542 893.266C393.957 887.381 389.314 881.353 384.69 875.369C381.792 873.523 378.91 871.74 376.01 869.874C380.569 875.577 385.148 881.342 389.668 886.94C392.63 889.077 395.581 891.151 398.542 893.266ZM415.003 914.253C410.523 908.532 406.07 902.878 401.596 897.158C398.764 895.142 395.961 893.262 393.129 891.227C397.438 896.54 401.709 901.746 406.023 907.063C409.007 909.423 412.023 911.914 415.003 914.253ZM430.729 934.304C426.776 929.274 422.809 924.211 418.84 919.148C416.016 916.938 413.15 914.569 410.318 912.341C414.3 917.235 418.28 922.123 422.254 927.001C425.073 929.414 427.913 931.908 430.729 934.304ZM445.931 953.688C442.415 949.235 438.861 944.682 435.313 940.152C432.699 937.934 430.046 935.588 427.43 933.354C431.015 937.767 434.605 942.195 438.163 946.538C440.752 948.916 443.349 951.325 445.931 953.688ZM461.729 973.628C458.284 969.282 454.883 965.059 451.433 960.698C449.13 958.601 446.806 956.431 444.503 954.323C448.177 958.794 451.802 963.145 455.465 967.587C457.565 969.643 459.631 971.582 461.729 973.628ZM476.042 991.572C473.539 988.434 471.041 985.301 468.549 982.176C466.907 980.583 465.283 979.044 463.638 977.445C466.157 980.475 468.681 983.52 471.202 986.567C472.815 988.235 474.428 989.91 476.042 991.572ZM489.502 1008.46C488.118 1006.73 486.723 1004.97 485.336 1003.23C484.602 1002.48 483.859 1001.7 483.125 1000.94C484.704 1002.85 486.294 1004.77 487.871 1006.66C488.412 1007.25 488.96 1007.87 489.502 1008.46ZM4333.44 202.631C4332.9 202.774 4332.34 202.909 4331.8 203.053C4332.47 202.896 4333.12 202.723 4333.8 202.569L4333.44 202.631ZM4358.06 196.32C4354.9 197.081 4351.79 197.949 4348.64 198.735C4351.29 198.33 4353.96 197.966 4356.63 197.579C4359.9 196.887 4363.17 196.202 4366.44 195.523C4363.66 195.803 4360.84 196.019 4358.06 196.32ZM4383.26 190.67C4378.64 191.693 4374.02 192.695 4369.43 193.755C4373.12 193.396 4376.81 193.027 4380.51 192.702C4385.29 191.792 4390.13 190.988 4394.94 190.147C4391.04 190.292 4387.15 190.485 4383.26 190.67ZM4407.83 185.553C4402.37 186.603 4396.93 187.68 4391.53 188.825C4396.26 188.634 4400.97 188.371 4405.72 188.241C4410.81 187.384 4415.91 186.543 4421.05 185.763C4416.63 185.649 4412.23 185.614 4407.83 185.553ZM4431.92 180.967C4426.36 181.985 4420.85 183.071 4415.31 184.128C4419.89 184.225 4424.51 184.441 4429.11 184.596C4434.61 183.783 4440.11 182.982 4445.63 182.205C4441.06 181.791 4436.47 181.321 4431.92 180.967ZM4455.85 177.085C4449.7 178.02 4443.54 178.938 4437.47 179.988C4442.3 180.388 4447.15 180.832 4452 181.299C4458.15 180.504 4464.39 179.864 4470.61 179.198C4465.67 178.419 4460.77 177.79 4455.85 177.085ZM4479.46 173.519C4473.2 174.389 4467 175.352 4460.79 176.302C4465.85 177.051 4470.9 177.763 4475.98 178.589C4481.84 177.953 4487.68 177.286 4493.57 176.721C4488.87 175.659 4484.15 174.513 4479.46 173.519ZM4502.5 170.617C4496.25 171.366 4490.02 172.135 4483.82 172.969C4488.68 174.018 4493.56 175.206 4498.43 176.324C4504.65 175.759 4510.92 175.271 4517.2 174.794C4512.29 173.332 4507.4 172.001 4502.5 170.617ZM4525.73 168.058C4519.2 168.707 4512.7 169.389 4506.24 170.146C4511.29 171.593 4516.32 172.926 4521.38 174.453C4527.47 174.011 4533.6 173.639 4539.75 173.298C4535.08 171.56 4530.4 169.721 4525.73 168.058ZM4547.98 165.958C4541.67 166.511 4535.39 167.113 4529.13 167.737C4533.89 169.452 4538.67 171.319 4543.44 173.111C4549.72 172.765 4556.02 172.437 4562.34 172.157C4557.55 170.01 4552.76 168.027 4547.98 165.958ZM4570.64 164.315C4564.08 164.729 4557.51 165.127 4551.02 165.669C4555.88 167.786 4560.73 169.795 4565.59 171.994C4571.77 171.749 4578.04 171.655 4584.29 171.539C4579.74 169.124 4575.19 166.655 4570.64 164.315ZM378.004 857.638C372.93 850.861 367.826 844.018 362.738 837.209C359.78 835.829 356.832 834.542 353.868 833.14C358.84 839.587 363.809 846.025 368.77 852.443C371.845 854.164 374.933 855.94 378.004 857.638ZM394.739 880.034C389.904 873.6 385 867 380.128 860.48C377.096 858.809 374.051 857.045 371.016 855.354C375.877 861.657 380.762 868.011 385.595 874.245C388.648 876.193 391.693 878.107 394.739 880.034ZM411.568 902.39C406.775 896.042 401.972 889.673 397.152 883.261C394.157 881.375 391.162 879.476 388.161 877.569C392.954 883.755 397.749 889.944 402.508 896.046C405.538 898.202 408.544 900.253 411.568 902.39ZM428.494 924.713C423.799 918.52 419.108 912.343 414.402 906.129C411.454 904.053 408.517 902.034 405.561 899.937C410.301 905.993 415.02 911.99 419.755 918.037C422.685 920.327 425.57 922.444 428.494 924.713ZM445.205 946.757C440.744 940.894 436.248 934.946 431.761 929.02C428.932 926.831 426.134 924.763 423.302 922.556C427.618 928.068 431.94 933.589 436.238 939.052C439.214 941.579 442.233 944.252 445.205 946.757ZM460.992 967.553C457.02 962.36 452.999 957.04 448.987 951.749C446.266 949.462 443.552 947.204 440.823 944.9C444.674 949.822 448.537 954.777 452.346 959.594C455.217 962.208 458.128 964.956 460.992 967.553ZM476.986 988.334C473.359 983.613 469.751 978.929 466.137 974.237C463.494 971.851 460.799 969.291 458.151 966.887C461.928 971.625 465.702 976.34 469.492 981.111C471.999 983.541 474.486 985.918 476.986 988.334ZM492.947 1009.07C489.599 1004.73 486.238 1000.36 482.882 995.99C480.69 993.882 478.497 991.773 476.305 989.652C479.64 993.836 482.98 998.034 486.307 1002.2C488.512 1004.46 490.747 1006.82 492.947 1009.07ZM507.036 1027.38C504.804 1024.5 502.548 1021.56 500.301 1018.63C498.727 1017.02 497.166 1015.45 495.592 1013.84C497.911 1016.76 500.24 1019.7 502.541 1022.56C504.046 1024.19 505.531 1025.76 507.036 1027.38ZM519.565 1043.57C518.454 1042.14 517.365 1040.77 516.251 1039.33L514.717 1037.69C516.036 1039.32 517.336 1040.9 518.652 1042.54L519.565 1043.57ZM4309.1 206.94C4305.48 208.05 4301.87 209.189 4298.29 210.349C4301.17 209.676 4304.07 209.035 4306.97 208.383C4310.12 207.48 4313.25 206.526 4316.42 205.644C4313.99 206.089 4311.53 206.48 4309.1 206.94ZM4334.7 199.205C4330.15 200.556 4325.62 201.948 4321.08 203.322C4325.1 202.605 4329.12 201.857 4333.16 201.183C4337.74 199.98 4342.36 198.834 4346.95 197.652C4342.85 198.14 4338.78 198.676 4334.7 199.205ZM4361.08 191.947C4355.34 193.457 4349.59 194.949 4343.91 196.55C4348.56 195.983 4353.19 195.365 4357.87 194.858C4363.47 193.508 4369.16 192.287 4374.83 191.048C4370.23 191.303 4365.66 191.633 4361.08 191.947ZM4386.42 185.41C4380.51 186.851 4374.64 188.358 4368.78 189.882C4373.53 189.592 4378.33 189.428 4383.11 189.201C4388.82 187.956 4394.5 186.675 4400.25 185.502C4395.64 185.47 4391.01 185.382 4386.42 185.41ZM4411.02 179.639C4404.84 181.056 4398.69 182.502 4392.54 183.975C4397.6 183.974 4402.67 184.005 4407.75 184.078C4413.93 182.86 4420.13 181.689 4426.35 180.538C4421.22 180.167 4416.13 179.936 4411.02 179.639ZM4436.15 174.345C4429.43 175.677 4422.71 176.996 4416.07 178.456C4421.34 178.786 4426.6 179.072 4431.9 179.483C4438.19 178.37 4444.56 177.375 4450.93 176.379C4446 175.699 4441.06 174.956 4436.15 174.345ZM4459.76 169.65C4453.37 170.842 4447.06 172.163 4440.72 173.426C4445.75 174.076 4450.83 174.875 4455.88 175.599C4462.22 174.607 4468.52 173.545 4474.9 172.623C4469.84 171.575 4464.8 170.621 4459.76 169.65ZM4484.19 165.521C4477.4 166.627 4470.6 167.737 4463.88 168.954C4469.11 169.98 4474.32 170.927 4479.56 172.037C4485.98 171.152 4492.45 170.377 4498.92 169.601C4494.01 168.227 4489.09 166.815 4484.19 165.521ZM4507.48 161.872C4500.9 162.832 4494.35 163.854 4487.82 164.908C4492.76 166.228 4497.72 167.73 4502.66 169.128C4509.21 168.35 4515.76 167.6 4522.36 166.914C4517.4 165.162 4512.44 163.544 4507.48 161.872ZM4531.04 158.645C4524.26 159.527 4517.49 160.452 4510.76 161.423C4515.82 163.146 4520.88 164.765 4525.95 166.576C4532.35 165.926 4538.76 165.326 4545.2 164.76C4540.49 162.732 4535.76 160.597 4531.04 158.645ZM4553.86 155.956C4547.17 156.682 4540.49 157.419 4533.87 158.26C4538.66 160.258 4543.45 162.396 4548.25 164.473C4554.85 163.914 4561.52 163.458 4568.18 163.018C4563.42 160.581 4558.63 158.315 4553.86 155.956ZM390.33 864.492C385.029 857.201 379.707 849.845 374.393 842.527C371.398 841.151 368.408 839.822 365.41 838.428C370.616 845.398 375.841 852.406 381.039 859.347C384.134 861.053 387.24 862.806 390.33 864.492ZM407.441 888.076C402.419 881.199 397.313 874.116 392.244 867.132C389.22 865.487 386.193 863.851 383.161 862.187C388.135 868.844 393.144 875.59 398.074 882.146C401.195 884.112 404.324 886.131 407.441 888.076ZM424.654 911.555C419.666 904.752 414.723 898.056 409.723 891.222C406.651 889.312 403.564 887.303 400.487 885.372C405.456 891.971 410.386 898.481 415.334 905.027C418.445 907.22 421.551 909.387 424.654 911.555ZM441.81 934.893C436.983 928.331 432.153 921.765 427.313 915.171C424.268 913.051 421.22 910.906 418.172 908.766C423.02 915.174 427.858 921.549 432.693 927.923C435.743 930.284 438.767 932.553 441.81 934.893ZM458.752 957.941C454.146 951.704 449.49 945.346 444.85 939.027C441.884 936.754 438.928 934.523 435.959 932.231C440.618 938.385 445.295 944.577 449.922 950.649C452.88 953.136 455.799 955.474 458.752 957.941ZM475.681 980.828C471.207 974.8 466.737 968.775 462.242 962.689C459.389 960.314 456.559 958.032 453.701 955.64C458.178 961.517 462.637 967.35 467.082 973.159C469.964 975.758 472.807 978.248 475.681 980.828ZM492.21 1003.01C488.096 997.481 483.99 991.983 479.876 986.458C477.197 984.059 474.557 981.797 471.872 979.382C475.867 984.576 479.858 989.756 483.853 994.955C486.638 997.635 489.433 1000.35 492.21 1003.01ZM508.518 1024.89C504.838 1019.97 501.138 1014.99 497.437 1010.03C494.884 1007.59 492.305 1005.06 489.744 1002.61C493.597 1007.62 497.453 1012.65 501.283 1017.6C503.712 1020.08 506.097 1022.43 508.518 1024.89ZM523.599 1045.13C520.604 1041.14 517.564 1037.04 514.534 1032.96C512.41 1030.81 510.304 1028.72 508.175 1026.56C511.207 1030.51 514.239 1034.45 517.242 1038.32C519.365 1040.6 521.483 1042.86 523.599 1045.13ZM539.047 1065.58C536.618 1062.35 534.204 1059.17 531.793 1055.98C530.274 1054.36 528.743 1052.71 527.221 1051.08C529.742 1054.3 532.272 1057.54 534.806 1060.79C536.215 1062.37 537.636 1064 539.047 1065.58ZM552.928 1083.94L549.899 1079.93C549.586 1079.58 549.28 1079.26 548.967 1078.91C550.18 1080.46 551.402 1082.03 552.615 1083.57L552.928 1083.94ZM4257.4 222.119C4253.37 223.652 4249.31 225.146 4245.33 226.74C4248.3 225.805 4251.28 224.894 4254.26 223.979C4257.38 222.842 4260.45 221.625 4263.59 220.514C4261.53 221.063 4259.45 221.562 4257.4 222.119ZM4283.58 212.158C4278.93 213.844 4274.38 215.655 4269.76 217.388C4274.09 216.265 4278.4 215.101 4282.75 214.024C4287.19 212.529 4291.61 211.01 4296.06 209.546C4291.89 210.389 4287.73 211.27 4283.58 212.158ZM4311.47 202.472C4305.81 204.425 4300.14 206.373 4294.5 208.364C4299.27 207.396 4304.02 206.401 4308.81 205.492C4314.49 203.714 4320.23 202.022 4325.95 200.315C4321.11 200.986 4316.29 201.742 4311.47 202.472ZM4338.73 193.645C4332.26 195.634 4325.79 197.61 4319.41 199.72C4324.4 198.999 4329.44 198.4 4334.46 197.746C4340.65 195.95 4346.91 194.236 4353.17 192.547C4348.36 192.913 4343.52 193.217 4338.73 193.645ZM4364.1 185.868C4357.7 187.743 4351.36 189.73 4345 191.687C4350.28 191.245 4355.58 190.844 4360.88 190.48C4367.16 188.809 4373.38 187.076 4379.7 185.481C4374.48 185.547 4369.3 185.729 4364.1 185.868ZM4390.33 178.581C4383.51 180.429 4376.7 182.309 4369.95 184.244C4375.4 184.127 4380.84 183.964 4386.31 183.932C4392.8 182.344 4399.35 180.837 4405.9 179.34C4400.7 179.066 4395.5 178.779 4390.33 178.581ZM4415.66 172.076C4408.81 173.752 4401.96 175.439 4395.19 177.233C4400.42 177.458 4405.7 177.85 4410.95 178.156C4417.72 176.641 4424.54 175.212 4431.38 173.817C4426.13 173.19 4420.9 172.622 4415.66 172.076ZM4440.34 166.055C4433.46 167.648 4426.68 169.384 4419.86 171.052C4425.29 171.64 4430.7 172.182 4436.14 172.858C4442.72 171.526 4449.26 170.149 4455.87 168.886C4450.69 167.908 4445.51 166.951 4440.34 166.055ZM4465.26 160.79C4458.25 162.225 4451.23 163.647 4444.3 165.205C4449.47 166.118 4454.66 167.162 4459.83 168.158C4466.72 166.894 4473.7 165.773 4480.67 164.639C4475.52 163.301 4470.39 162.046 4465.26 160.79ZM4489.58 155.9C4482.53 157.238 4475.55 158.662 4468.57 160.092C4473.82 161.393 4479.05 162.64 4484.31 164.026C4490.99 162.935 4497.66 161.832 4504.4 160.825C4499.46 159.176 4494.51 157.47 4489.58 155.9ZM4513.4 151.66C4506.5 152.842 4499.62 154.052 4492.79 155.33C4497.75 156.922 4502.72 158.702 4507.68 160.377C4514.54 159.374 4521.45 158.446 4528.37 157.548C4523.38 155.5 4518.39 153.626 4513.4 151.66ZM4537.18 147.825C4530.15 148.89 4523.14 149.991 4516.18 151.166C4521.22 153.166 4526.25 155.061 4531.29 157.147C4537.96 156.294 4544.67 155.508 4551.4 154.76C4546.66 152.432 4541.92 150.073 4537.18 147.825ZM402.327 870.84C396.931 863.213 391.512 855.524 386.109 847.87C383.072 846.5 380.032 845.102 376.994 843.713C382.376 851.134 387.775 858.588 393.149 865.986C396.215 867.649 399.263 869.195 402.327 870.84ZM420.185 896.117C414.889 888.667 409.504 881.006 404.159 873.436C401.124 871.811 398.103 870.268 395.065 868.623C400.263 875.79 405.501 883.061 410.652 890.108C413.823 892.081 417.016 894.167 420.185 896.117ZM437.791 920.755C432.609 913.489 427.471 906.331 422.281 899.049C419.18 897.146 416.069 895.2 412.964 893.274C418.081 900.26 423.139 907.105 428.251 914.073C431.426 916.284 434.619 918.564 437.791 920.755ZM455.217 945.139C450.256 938.205 445.281 931.244 440.301 924.266C437.179 922.12 434.034 919.858 430.905 917.688C435.874 924.457 440.836 931.203 445.786 937.931C448.932 940.342 452.077 942.753 455.217 945.139ZM472.438 969.238C467.685 962.62 462.863 955.846 458.067 949.132C454.993 946.799 451.905 944.419 448.823 942.067C453.616 948.589 458.427 955.17 463.178 961.595C466.274 964.169 469.348 966.683 472.438 969.238ZM489.786 993.297C485.075 986.767 480.411 980.344 475.689 973.787C472.683 971.309 469.68 968.84 466.669 966.342C471.404 972.734 476.089 979.002 480.811 985.363C483.814 988.053 486.785 990.628 489.786 993.297ZM507.423 1017.67C502.833 1011.33 498.243 1004.99 493.642 998.627C490.757 996.068 487.894 993.569 485.004 990.991C489.481 997.005 493.948 1003 498.417 1008.99C501.406 1011.85 504.441 1014.84 507.423 1017.67ZM523.749 1040.23C519.84 1034.86 515.892 1029.39 511.958 1023.94C509.194 1021.32 506.41 1018.64 503.641 1016C507.61 1021.33 511.584 1026.69 515.519 1031.95C518.272 1034.73 521.007 1037.47 523.749 1040.23ZM540.371 1063.1C536.628 1057.97 532.886 1052.85 529.119 1047.65C526.592 1045.12 524.063 1042.57 521.531 1040.01C525.303 1045.05 529.032 1049.98 532.783 1054.97C535.304 1057.66 537.854 1060.43 540.371 1063.1ZM556.589 1085.22C553.528 1081.04 550.472 1076.88 547.422 1072.72C545.303 1070.48 543.145 1068.13 541.024 1065.87C544.306 1070.21 547.596 1074.57 550.886 1078.92C552.802 1081.06 554.678 1083.09 556.589 1085.22ZM571.313 1105.31C569.118 1102.32 566.912 1099.31 564.712 1096.3C563.317 1094.75 561.938 1093.25 560.538 1091.69C562.825 1094.72 565.118 1097.76 567.394 1100.76C568.704 1102.29 570.002 1103.78 571.313 1105.31ZM584.038 1122.67C583.319 1121.69 582.585 1120.69 581.864 1119.7L580.603 1118.24C581.58 1119.53 582.524 1120.74 583.498 1122.02L584.038 1122.67ZM4202.58 242.563C4198.67 244.384 4194.73 246.164 4190.85 248.021C4193.38 247.012 4195.92 246.025 4198.46 245.033C4201.77 243.559 4205.04 242.022 4208.37 240.577C4206.45 241.254 4204.5 241.876 4202.58 242.563ZM4230.62 229.817C4225.49 232.05 4220.39 234.338 4215.31 236.643C4219.84 235.082 4224.35 233.493 4228.91 231.983C4233.32 230.155 4237.67 228.249 4242.1 226.464C4238.27 227.562 4234.44 228.678 4230.62 229.817ZM4258.87 217.729C4253.19 220.086 4247.59 222.556 4241.96 224.966C4246.98 223.526 4251.99 222.061 4257.04 220.685C4262.76 218.467 4268.49 216.278 4274.24 214.108C4269.09 215.255 4263.99 216.514 4258.87 217.729ZM4288.25 206.153C4281.63 208.702 4275.01 211.258 4268.46 213.898C4273.37 212.779 4278.33 211.767 4283.27 210.711C4289.87 208.311 4296.58 206.052 4303.26 203.773C4298.26 204.573 4293.22 205.288 4288.25 206.153ZM4315.34 196.089C4308.42 198.556 4301.52 201.047 4294.69 203.632C4300.17 202.712 4305.69 201.857 4311.21 201.017C4317.96 198.74 4324.75 196.512 4331.57 194.346C4326.14 194.868 4320.75 195.486 4315.34 196.089ZM4342.03 186.664C4335.08 189.019 4328.23 191.515 4321.34 193.957C4327.07 193.351 4332.77 192.693 4338.53 192.178C4345.11 190.117 4351.66 188 4358.29 186.01C4352.85 186.187 4347.43 186.406 4342.03 186.664ZM4369.08 178.007C4361.9 180.251 4354.74 182.517 4347.64 184.867C4353.06 184.638 4358.52 184.537 4363.96 184.392C4371.05 182.332 4378.21 180.387 4385.37 178.448C4379.93 178.264 4374.5 178.105 4369.08 178.007ZM4395.21 170.128C4387.89 172.245 4380.59 174.403 4373.35 176.641C4378.97 176.767 4384.59 176.883 4390.23 177.098C4397.26 175.21 4404.33 173.38 4411.44 171.606C4406.02 171.062 4400.61 170.588 4395.21 170.128ZM4420.72 162.85C4413.53 164.825 4406.42 166.913 4399.29 168.964C4404.73 169.448 4410.18 170.011 4415.64 170.583C4422.64 168.853 4429.62 167.113 4436.67 165.456C4431.35 164.553 4426.03 163.666 4420.72 162.85ZM4446.39 156.322C4438.95 158.145 4431.49 159.944 4424.15 161.909C4429.54 162.755 4434.94 163.622 4440.35 164.557C4447.51 162.929 4454.78 161.471 4462.04 159.984C4456.82 158.724 4451.6 157.499 4446.39 156.322ZM4471.09 150.296C4463.89 151.967 4456.77 153.749 4449.63 155.507C4454.86 156.704 4460.11 158.005 4465.35 159.287C4472.4 157.834 4479.41 156.343 4486.52 154.972C4481.37 153.352 4476.23 151.833 4471.09 150.296ZM4496.1 144.852C4488.72 146.405 4481.36 147.984 4474.07 149.65C4479.29 151.224 4484.5 152.738 4489.73 154.4C4496.72 153.081 4503.77 151.857 4510.83 150.647C4505.92 148.727 4501.01 146.694 4496.1 144.852ZM4520.13 139.981C4512.95 141.364 4505.81 142.803 4498.7 144.286C4503.67 146.163 4508.64 148.195 4513.61 150.155C4520.67 148.958 4527.75 147.799 4534.87 146.7C4529.96 144.387 4525.04 142.209 4520.13 139.981ZM414.392 877.226C408.907 869.277 403.382 861.238 397.874 853.237C394.805 851.876 391.723 850.412 388.651 849.03C394.128 856.787 399.619 864.581 405.075 872.295C408.186 873.958 411.289 875.583 414.392 877.226ZM432.545 903.514C427.115 895.682 421.63 887.719 416.155 879.785C413.076 878.161 409.996 876.537 406.911 874.892C412.351 882.591 417.813 890.341 423.208 897.927C426.331 899.843 429.426 901.62 432.545 903.514ZM450.914 929.898C445.447 922.039 440.025 914.275 434.548 906.393C431.461 904.523 428.394 902.751 425.302 900.861C430.64 908.347 435.925 915.715 441.252 923.18C444.465 925.391 447.705 927.709 450.914 929.898ZM468.706 955.447C463.537 948.039 458.346 940.581 453.156 933.119C450.029 930.992 446.894 928.839 443.76 926.691C448.856 933.829 453.949 940.96 459.023 948.048C462.242 950.49 465.49 953.029 468.706 955.447ZM486.235 980.627C481.334 973.626 476.349 966.433 471.401 959.321C468.24 956.951 465.039 954.434 461.873 952.039C466.8 958.942 471.764 965.92 476.644 972.711C479.84 975.346 483.045 978.015 486.235 980.627ZM503.994 1005.86C499.093 998.884 494.245 992.035 489.344 985.06C486.222 982.511 483.075 979.872 479.945 977.299C484.848 984.095 489.694 990.758 494.597 997.551C497.732 1000.33 500.861 1003.1 503.994 1005.86ZM521.875 1031.25C517.116 1024.5 512.35 1017.73 507.575 1010.95C504.54 1008.27 501.495 1005.57 498.452 1002.88C503.287 1009.57 508.119 1016.25 512.939 1022.91C515.938 1025.74 518.885 1028.43 521.875 1031.25ZM539.081 1055.68C534.717 1049.51 530.295 1043.21 525.892 1036.95C523.018 1034.25 520.175 1031.64 517.296 1028.93C521.581 1034.86 525.882 1040.82 530.127 1046.66C533.109 1049.66 536.109 1052.71 539.081 1055.68ZM556.318 1079.97C552.18 1074.15 548.098 1068.44 543.953 1062.6C541.147 1059.8 538.307 1056.89 535.496 1054.08C539.831 1060.02 544.095 1065.79 548.424 1071.72C551.075 1074.52 553.673 1077.18 556.318 1079.97ZM572.952 1103.31L562.045 1088.01C559.639 1085.48 557.265 1083.03 554.857 1080.49L565.735 1095.33C568.146 1098.01 570.544 1100.64 572.952 1103.31ZM589.008 1125.84C586.018 1121.66 583.007 1117.42 580.001 1113.2C577.951 1110.94 575.898 1108.67 573.845 1106.4C576.872 1110.53 579.901 1114.68 582.904 1118.76C584.938 1121.11 586.978 1123.49 589.008 1125.84ZM603.992 1146.83C601.957 1144 599.91 1141.13 597.854 1138.25C596.451 1136.63 595.03 1134.96 593.624 1133.34C595.951 1136.5 598.227 1139.53 600.551 1142.66C601.691 1144.04 602.849 1145.46 603.992 1146.83ZM4143.95 269.336C4140.13 271.45 4136.27 273.523 4132.47 275.662C4134.72 274.563 4136.99 273.496 4139.26 272.411C4142.84 270.506 4146.39 268.56 4150.01 266.691C4147.99 267.577 4145.96 268.439 4143.95 269.336ZM4174.19 253.174C4168.62 256.035 4163.05 258.91 4157.54 261.857C4162.15 259.863 4166.77 257.866 4171.41 255.924C4175.99 253.651 4180.5 251.289 4185.11 249.064C4181.47 250.43 4177.82 251.774 4174.19 253.174ZM4203.8 238.181C4197.79 241.119 4191.86 244.173 4185.91 247.186C4191.29 245.174 4196.65 243.114 4202.08 241.173C4207.87 238.474 4213.62 235.724 4219.47 233.087C4214.21 234.712 4209.02 236.484 4203.8 238.181ZM4234.22 223.8C4227.56 226.892 4220.94 230.045 4214.33 233.202C4219.59 231.553 4224.89 229.983 4230.19 228.404C4236.86 225.478 4243.58 222.637 4250.31 219.792C4244.94 221.11 4239.56 222.407 4234.22 223.8ZM4263.6 210.836C4256.28 213.964 4248.96 217.081 4241.74 220.339C4247.28 218.933 4252.88 217.632 4258.46 216.307C4265.72 213.323 4273.08 210.479 4280.43 207.636C4274.8 208.656 4269.19 209.729 4263.6 210.836ZM4292.02 198.949C4284.55 201.957 4277.13 205.025 4269.76 208.155C4275.81 206.995 4281.83 205.766 4287.92 204.705C4294.94 202.014 4301.97 199.346 4309.06 196.763C4303.36 197.434 4297.69 198.192 4292.02 198.949ZM4319.77 187.91C4312.38 190.746 4305.11 193.731 4297.78 196.655C4303.53 195.92 4309.3 195.274 4315.08 194.63C4322.25 192.052 4329.41 189.462 4336.65 186.966C4331.02 187.262 4325.37 187.523 4319.77 187.91ZM4347.49 177.878C4339.82 180.591 4332.15 183.312 4324.58 186.155C4330.31 185.786 4336.06 185.468 4341.82 185.192C4349.36 182.659 4357.01 180.278 4364.66 177.887C4358.91 177.808 4353.21 177.864 4347.49 177.878ZM4374.68 168.507C4366.96 171.069 4359.28 173.692 4351.65 176.376C4357.4 176.387 4363.16 176.416 4368.93 176.521C4376.27 174.23 4383.63 171.977 4391.04 169.798C4385.58 169.357 4380.12 168.862 4374.68 168.507ZM4400.78 160.01C4393.26 162.383 4385.82 164.853 4378.36 167.31C4383.93 167.694 4389.53 168.158 4395.12 168.634C4402.51 166.489 4409.9 164.352 4417.35 162.299C4411.81 161.462 4406.3 160.753 4400.78 160.01ZM4427.23 152.186C4419.48 154.397 4411.7 156.583 4404.06 158.941C4409.6 159.704 4415.14 160.489 4420.69 161.341C4428.12 159.339 4435.65 157.489 4443.17 155.626C4437.86 154.445 4432.54 153.28 4427.23 152.186ZM4452.71 144.93C4445.16 146.984 4437.71 149.17 4430.23 151.315C4435.62 152.443 4441.02 153.595 4446.42 154.814C4453.69 153.008 4460.91 151.15 4468.24 149.432C4463.06 147.9 4457.88 146.374 4452.71 144.93ZM4478.09 138.426C4470.58 140.299 4463.07 142.188 4455.65 144.178C4460.83 145.643 4466.02 147.232 4471.21 148.783C4478.6 147.085 4486.07 145.498 4493.55 143.924C4488.39 142.007 4483.24 140.257 4478.09 138.426ZM4503.08 132.364C4495.57 134.11 4488.1 135.924 4480.66 137.769C4485.87 139.632 4491.07 141.379 4496.27 143.331C4503.42 141.834 4510.58 140.347 4517.8 138.938C4512.89 136.723 4507.99 134.496 4503.08 132.364ZM426.52 883.642C420.861 875.257 415.155 866.758 409.467 858.301C406.43 856.977 403.4 855.713 400.36 854.371C405.937 862.47 411.528 870.61 417.076 878.645C420.224 880.304 423.378 882.005 426.52 883.642ZM444.971 910.951C439.407 902.74 433.819 894.471 428.221 886.169C425.099 884.549 421.965 882.849 418.841 881.205C424.402 889.262 429.961 897.311 435.481 905.273C438.649 907.191 441.804 909.054 444.971 910.951ZM463.563 938.304C457.996 930.111 452.472 922.003 446.892 913.782C443.757 911.907 440.625 910.046 437.485 908.149C443.041 916.152 448.553 924.039 454.098 932.014C457.267 934.166 460.4 936.174 463.563 938.304ZM482.077 965.543C476.639 957.563 471.17 949.508 465.706 941.46C462.579 939.36 459.473 937.357 456.341 935.234C461.687 942.921 467.038 950.615 472.357 958.241C475.597 960.669 478.845 963.139 482.077 965.543ZM500.177 992.137C494.984 984.538 489.72 976.781 484.48 969.079C481.335 966.746 478.205 964.467 475.052 962.114C480.145 969.422 485.259 976.781 490.305 983.987C493.584 986.664 496.906 989.484 500.177 992.137ZM518.277 1018.49C513.218 1011.11 508.199 1003.83 503.14 996.448C499.926 993.851 496.66 991.063 493.441 988.443C498.487 995.616 503.487 1002.7 508.533 1009.87C511.776 1012.72 515.043 1015.66 518.277 1018.49ZM536.294 1044.71C531.419 1037.63 526.529 1030.51 521.636 1023.38C518.48 1020.62 515.28 1017.74 512.116 1014.96C517.046 1021.97 521.97 1028.97 526.876 1035.92C530.022 1038.88 533.154 1041.78 536.294 1044.71ZM554.299 1070.93C549.582 1064.1 544.792 1057.1 540.028 1050.15C536.983 1047.32 533.94 1044.48 530.89 1041.62C535.591 1048.3 540.313 1055.04 544.966 1061.61C548.075 1064.71 551.199 1067.85 554.299 1070.93ZM571.765 1096.12C567.333 1089.72 562.956 1083.45 558.529 1077.06C555.671 1074.23 552.849 1071.52 549.985 1068.67C554.346 1074.8 558.679 1080.86 563.053 1087.01C565.964 1090.07 568.857 1093.08 571.765 1096.12ZM589.318 1121.4L576.953 1103.59C574.229 1100.75 571.505 1097.9 568.775 1095.04C572.863 1100.78 576.95 1106.52 581.027 1112.23C583.783 1115.28 586.562 1118.37 589.318 1121.4ZM606.463 1146.09C602.862 1140.92 599.217 1135.66 595.58 1130.42C593.093 1127.69 590.563 1124.86 588.068 1122.11C591.684 1127.2 595.314 1132.31 598.896 1137.31C601.404 1140.2 603.96 1143.21 606.463 1146.09ZM622.605 1169.21C619.57 1164.87 616.58 1160.64 613.535 1156.28C611.65 1154.12 609.805 1152.06 607.918 1149.89C611.063 1154.26 614.177 1158.55 617.325 1162.93C619.099 1165.06 620.836 1167.09 622.605 1169.21ZM638.068 1191.22C635.989 1188.26 633.915 1185.3 631.846 1182.36C630.672 1180.96 629.511 1179.59 628.338 1178.19C630.554 1181.26 632.776 1184.35 634.989 1187.41C636.023 1188.69 637.039 1189.94 638.068 1191.22ZM650.139 1208.41L650.01 1208.22L649.978 1208.18L650.139 1208.41ZM4080.18 304.277C4076.84 306.427 4073.46 308.53 4070.13 310.699C4072.32 309.427 4074.54 308.208 4076.74 306.948C4080.03 304.9 4083.26 302.766 4086.57 300.744C4084.42 301.898 4082.32 303.112 4080.18 304.277ZM4114.21 283.113C4108.25 286.675 4102.3 290.233 4096.42 293.887C4100.94 291.511 4105.5 289.187 4110.06 286.86C4114.96 283.994 4119.8 281.045 4124.74 278.235C4121.24 279.872 4117.69 281.445 4114.21 283.113ZM4145.58 264.67C4139.11 268.345 4132.71 272.105 4126.32 275.874C4132.01 273.228 4137.66 270.529 4143.4 267.964C4149.13 264.817 4154.8 261.588 4160.58 258.509C4155.56 260.518 4150.57 262.596 4145.58 264.67ZM4176.81 247.279C4169.97 250.967 4163.27 254.816 4156.5 258.59C4162.21 256.288 4167.92 254.013 4173.67 251.792C4180.49 248.265 4187.32 244.752 4194.19 241.304C4188.38 243.249 4182.59 245.249 4176.81 247.279ZM4208.73 230.772C4201.32 234.548 4193.92 238.352 4186.58 242.222C4192.13 240.33 4197.75 238.59 4203.34 236.776C4210.86 233.108 4218.48 229.567 4226.09 226.024C4220.29 227.584 4214.49 229.124 4208.73 230.772ZM4238.91 216.04C4230.91 219.812 4222.91 223.585 4215.04 227.51C4221.28 225.768 4227.51 224.029 4233.79 222.386C4241.49 218.861 4249.27 215.455 4257.08 212.074C4250.99 213.318 4244.96 214.7 4238.91 216.04ZM4268.67 202.243C4260.67 205.825 4252.74 209.492 4244.84 213.205C4250.96 211.887 4257.09 210.609 4263.25 209.391C4270.78 206.151 4278.32 202.917 4285.94 199.791C4280.18 200.595 4274.4 201.35 4268.67 202.243ZM4296.98 189.811C4289.21 193.128 4281.54 196.561 4273.84 199.973C4279.78 199.078 4285.75 198.293 4291.71 197.497C4299.44 194.371 4307.19 191.268 4314.99 188.24C4308.96 188.683 4302.98 189.269 4296.98 189.811ZM4325.98 178.068C4317.75 181.308 4309.52 184.542 4301.41 187.936C4307.44 187.417 4313.46 186.855 4319.53 186.438C4327.32 183.482 4335.24 180.7 4343.15 177.897C4337.42 177.935 4331.68 177.938 4325.98 178.068ZM4353.51 167.428C4345.61 170.376 4337.76 173.4 4329.96 176.469C4335.72 176.361 4341.52 176.409 4347.31 176.396C4355.1 173.633 4362.91 170.889 4370.79 168.243C4365.01 167.888 4359.26 167.686 4353.51 167.428ZM4380.95 157.416C4372.95 160.247 4365.03 163.179 4357.11 166.111C4362.93 166.394 4368.74 166.628 4374.58 167.01C4382.16 164.488 4389.77 161.992 4397.43 159.571C4391.94 158.85 4386.43 158.046 4380.95 157.416ZM4407.81 148.407C4399.83 150.999 4391.83 153.573 4383.97 156.312C4389.54 156.968 4395.13 157.754 4400.71 158.504C4408.48 156.089 4416.37 153.814 4424.25 151.541C4418.76 150.425 4413.28 149.43 4407.81 148.407ZM4434 139.913C4426.19 142.342 4418.49 144.914 4410.76 147.435C4416.25 148.474 4421.74 149.537 4427.25 150.67C4434.78 148.495 4442.26 146.253 4449.86 144.166C4444.57 142.703 4439.28 141.289 4434 139.913ZM4460.39 132.164C4452.47 134.432 4444.56 136.711 4436.74 139.109C4442.08 140.516 4447.44 141.918 4452.79 143.414C4460.35 141.376 4468 139.466 4475.65 137.56C4470.56 135.765 4465.48 133.873 4460.39 132.164ZM4485.73 125.052C4478.06 127.121 4470.46 129.272 4462.87 131.437C4467.98 133.167 4473.1 135.083 4478.22 136.9C4485.75 135.031 4493.28 133.157 4500.87 131.377C4495.83 129.201 4490.78 127.141 4485.73 125.052ZM438.688 890.081C432.821 881.196 426.891 872.173 420.98 863.194C417.929 861.889 414.89 860.635 411.839 859.31C417.614 867.897 423.409 876.53 429.147 885.033C432.321 886.683 435.516 888.455 438.688 890.081ZM457.444 918.416C451.727 909.794 446.013 901.173 440.262 892.47C437.13 890.869 433.985 889.184 430.847 887.56C436.53 895.976 442.183 904.326 447.831 912.663C451.035 914.579 454.243 916.526 457.444 918.416ZM476.284 946.759C470.617 938.23 464.982 929.769 459.297 921.206C456.123 919.333 452.935 917.389 449.756 915.494C455.407 923.828 461.016 932.058 466.654 940.358C469.87 942.518 473.073 944.621 476.284 946.759ZM495.045 974.983C489.505 966.668 483.919 958.252 478.345 949.861C475.163 947.748 471.986 945.65 468.799 943.514C474.35 951.689 479.911 959.886 485.428 967.982C488.646 970.37 491.831 972.617 495.045 974.983ZM513.785 1003.1C508.334 994.945 502.838 986.69 497.345 978.444C494.166 976.111 491.015 973.872 487.83 971.518C493.268 979.498 498.703 987.481 504.104 995.376C507.344 997.995 510.553 1000.51 513.785 1003.1ZM532.622 1031.17C527.205 1023.09 521.833 1015.1 516.409 1007.01C513.256 1004.49 510.153 1002.13 506.992 999.583C512.211 1007.19 517.386 1014.71 522.6 1022.31C525.923 1025.2 529.306 1028.3 532.622 1031.17ZM550.814 1058.28C545.763 1050.76 540.683 1043.19 535.606 1035.62C532.4 1032.85 529.168 1029.99 525.954 1027.2C530.986 1034.53 536.016 1041.86 541.017 1049.13C544.279 1052.17 547.561 1055.26 550.814 1058.28ZM568.92 1085.25C564.098 1078.1 559.195 1070.77 554.318 1063.5C551.144 1060.56 547.935 1057.52 544.753 1054.57C549.688 1061.76 554.644 1068.98 559.534 1076.06C562.68 1079.17 565.783 1082.16 568.92 1085.25ZM587.297 1112.36C582.488 1105.25 577.724 1098.24 572.926 1091.16C569.894 1088.18 566.88 1085.26 563.846 1082.27C568.555 1089.06 573.245 1095.79 577.967 1102.6C581.072 1105.85 584.196 1109.14 587.297 1112.36ZM605.452 1139.14C600.996 1132.58 596.524 1125.98 592.052 1119.38C589.099 1116.32 586.109 1113.15 583.148 1110.07C587.641 1116.54 592.136 1123.02 596.611 1129.46C599.557 1132.69 602.512 1135.94 605.452 1139.14ZM622.621 1164.47C618.681 1158.68 614.688 1152.78 610.709 1146.9C608.045 1144 605.427 1141.23 602.758 1138.31C606.706 1144 610.662 1149.72 614.563 1155.31C617.262 1158.4 619.926 1161.39 622.621 1164.47ZM639.879 1189.74C636.22 1184.38 632.62 1179.16 628.964 1173.81C626.608 1171.12 624.266 1168.48 621.905 1165.78C625.569 1171 629.227 1176.2 632.909 1181.46C635.239 1184.23 637.552 1186.98 639.879 1189.74ZM656.619 1214.18L647.87 1201.41C645.962 1199.15 644.046 1196.86 642.132 1194.59C645.106 1198.82 648.088 1203.08 651.06 1207.3C652.91 1209.59 654.768 1211.9 656.619 1214.18ZM672.069 1236.74C670.258 1234.1 668.426 1231.42 666.605 1228.76C665.402 1227.28 664.184 1225.75 662.975 1224.27C664.867 1226.96 666.773 1229.69 668.65 1232.35C669.784 1233.8 670.934 1235.28 672.069 1236.74ZM4011.9 348.36C4007.86 351.334 4003.76 354.243 3999.76 357.263C4003.52 354.669 4007.27 352.063 4011.06 349.504C4013.59 347.68 4016.08 345.822 4018.63 344.014C4016.38 345.457 4014.14 346.903 4011.9 348.36ZM4048.33 322.173C4042.84 325.978 4037.36 329.791 4031.94 333.672C4036.17 331.029 4040.48 328.515 4044.74 325.915C4050.06 322.297 4055.31 318.604 4060.68 315.049C4056.54 317.393 4052.44 319.787 4048.33 322.173ZM4083.46 298.375C4076.59 302.878 4069.79 307.463 4063.01 312.071C4068.48 308.991 4073.99 305.963 4079.51 302.956C4085.7 298.99 4091.84 294.955 4098.1 291.072C4093.21 293.496 4088.31 295.891 4083.46 298.375ZM4116.5 277.199C4109.19 281.741 4102.01 286.427 4094.79 291.073C4101.05 287.946 4107.29 284.784 4113.62 281.757C4120.65 277.516 4127.67 273.249 4134.79 269.105C4128.65 271.724 4122.59 274.486 4116.5 277.199ZM4150.09 256.976C4142.26 261.58 4134.53 266.295 4126.79 271.006C4132.83 268.383 4138.92 265.84 4145.01 263.308C4152.74 258.91 4160.54 254.6 4168.36 250.307C4162.26 252.506 4156.14 254.683 4150.09 256.976ZM4182.49 238.685C4174.22 243.239 4165.98 247.813 4157.83 252.508C4163.95 250.241 4170.11 248.068 4176.28 245.897C4184.58 241.443 4193.03 237.165 4201.47 232.877C4195.11 234.745 4188.8 236.715 4182.49 238.685ZM4214.04 221.818C4205.5 226.241 4196.98 230.692 4188.57 235.276C4195.12 233.272 4201.67 231.253 4208.27 229.362C4216.3 225.31 4224.42 221.353 4232.56 217.446C4226.37 218.856 4220.19 220.308 4214.04 221.818ZM4244.47 206.36C4236.17 210.438 4227.97 214.623 4219.79 218.834C4225.99 217.346 4232.26 215.992 4238.51 214.609C4246.55 210.783 4254.59 206.952 4262.74 203.252C4256.63 204.24 4250.54 205.27 4244.47 206.36ZM4274.12 192.121C4265.8 196.023 4257.55 200.02 4249.32 204.03C4255.64 202.926 4261.95 201.797 4268.32 200.801C4276.32 197.218 4284.36 193.677 4292.45 190.206C4286.32 190.788 4280.22 191.436 4274.12 192.121ZM4303.83 178.858C4295.27 182.57 4286.69 186.26 4278.27 190.137C4284.39 189.475 4290.53 188.905 4296.68 188.347C4304.93 184.866 4313.31 181.545 4321.68 178.223C4315.72 178.384 4309.77 178.597 4303.83 178.858ZM4332.42 166.648C4324.05 170.106 4315.76 173.655 4307.5 177.241C4313.57 176.995 4319.64 176.734 4325.74 176.593C4333.71 173.437 4341.68 170.288 4349.74 167.251C4343.96 167.011 4338.18 166.791 4332.42 166.648ZM4360.37 155.374C4352.18 158.589 4344.07 161.898 4335.96 165.219C4341.74 165.381 4347.55 165.672 4353.35 165.933C4361.41 162.928 4369.49 159.966 4377.64 157.075C4371.87 156.43 4366.13 155.92 4360.37 155.374ZM4388.43 144.875C4380.03 147.926 4371.62 150.97 4363.35 154.174C4369.18 154.742 4375 155.231 4380.85 155.903C4388.77 153.131 4396.79 150.494 4404.81 147.861C4399.35 146.859 4393.88 145.788 4388.43 144.875ZM4415.15 135.198C4407.09 138.005 4399.16 140.963 4391.19 143.865C4396.71 144.8 4402.24 145.857 4407.77 146.89C4415.61 144.319 4423.39 141.672 4431.3 139.194C4425.91 137.807 4420.53 136.494 4415.15 135.198ZM4442.05 126.32C4433.95 128.934 4425.85 131.556 4417.86 134.303C4423.25 135.615 4428.65 136.986 4434.04 138.387C4441.93 135.957 4449.93 133.667 4457.93 131.378C4452.64 129.615 4447.35 127.994 4442.05 126.32ZM4468.34 117.978C4460.33 120.433 4452.39 122.975 4444.46 125.527C4449.79 127.229 4455.13 128.838 4460.47 130.634C4468.12 128.445 4475.77 126.241 4483.49 124.14C4478.44 122.06 4473.39 119.971 4468.34 117.978ZM450.522 895.951C444.568 886.758 438.546 877.409 432.545 868.109C429.471 866.814 426.394 865.501 423.317 864.187C429.284 873.251 435.269 882.363 441.188 891.322C444.307 892.915 447.405 894.377 450.522 895.951ZM469.97 925.915C463.998 916.723 458.055 907.585 452.051 898.316C448.951 896.756 445.866 895.293 442.763 893.711C448.619 902.569 454.423 911.307 460.245 920.094C463.482 922.003 466.737 924.031 469.97 925.915ZM489.078 955.261C483.303 946.391 477.552 937.576 471.762 928.667C468.554 926.8 465.311 924.774 462.097 922.882C467.853 931.555 473.565 940.13 479.3 948.764C482.558 950.927 485.825 953.122 489.078 955.261ZM508.107 984.492C502.456 975.835 496.75 967.055 491.062 958.314C487.838 956.198 484.593 954.005 481.363 951.865C487.017 960.379 492.689 968.928 498.305 977.357C501.577 979.758 504.841 982.113 508.107 984.492ZM527.15 1013.64C521.56 1005.1 515.945 996.508 510.316 987.887C507.081 985.537 503.847 983.188 500.604 980.816C506.21 989.226 511.798 997.595 517.37 1005.93C520.641 1008.55 523.884 1011.04 527.15 1013.64ZM546.272 1042.76C540.726 1034.31 535.218 1025.94 529.656 1017.46C526.432 1014.9 523.226 1012.41 519.994 1009.84C525.534 1018.11 531.035 1026.29 536.568 1034.54C539.823 1037.35 543.024 1039.97 546.272 1042.76ZM565.406 1071.89C559.987 1063.65 554.528 1055.34 549.077 1047.03C545.876 1044.29 542.718 1041.69 539.51 1038.93C544.79 1046.8 550.078 1054.69 555.323 1062.49C558.671 1065.58 562.066 1068.82 565.406 1071.89ZM583.741 1099.77C578.701 1092.13 573.603 1084.36 568.515 1076.62C565.293 1073.67 562.056 1070.69 558.827 1067.71C563.88 1075.23 568.931 1082.74 573.945 1090.17C577.214 1093.38 580.48 1096.58 583.741 1099.77ZM602.76 1128.46C597.657 1120.75 592.59 1113.12 587.489 1105.42C584.317 1102.33 581.125 1099.19 577.945 1096.07C583.001 1103.54 588.028 1110.94 593.084 1118.41C596.303 1121.75 599.546 1125.15 602.76 1128.46ZM620.902 1155.83C616.246 1148.82 611.569 1141.76 606.889 1134.69C603.867 1131.58 600.872 1128.56 597.84 1125.43C602.483 1132.28 607.126 1139.14 611.742 1145.94C614.809 1149.28 617.844 1152.52 620.902 1155.83ZM638.861 1182.93C634.529 1176.42 630.128 1169.76 625.743 1163.14C622.824 1159.98 619.918 1156.86 616.994 1153.69C621.35 1160.12 625.711 1166.55 630.022 1172.88C632.97 1176.24 635.921 1179.59 638.861 1182.93ZM657.111 1210.22C652.963 1204.01 648.857 1197.89 644.725 1191.71C642.019 1188.66 639.293 1185.54 636.582 1182.46C640.706 1188.48 644.823 1194.49 648.96 1200.54C651.671 1203.75 654.408 1207.03 657.111 1210.22ZM674.888 1236.79L664.194 1220.81C661.794 1217.98 659.348 1215.03 656.943 1212.19C660.525 1217.43 664.115 1222.68 667.684 1227.88C670.071 1230.82 672.505 1233.87 674.888 1236.79ZM691.501 1261.62C688.677 1257.41 685.816 1253.13 682.963 1248.86C681.142 1246.63 679.36 1244.5 677.536 1242.26C680.365 1246.4 683.208 1250.56 686.003 1254.62C687.837 1256.96 689.672 1259.29 691.501 1261.62ZM707.117 1284.84C705.175 1281.95 703.277 1279.17 701.332 1276.28C700.432 1275.14 699.548 1274.03 698.647 1272.89C700.771 1275.95 702.903 1279.03 705.043 1282.13C705.737 1283.04 706.419 1283.92 707.117 1284.84ZM4509 117.53C4504.13 115.131 4499.27 112.618 4494.4 110.301C4486.43 112.583 4478.5 114.907 4470.63 117.303C4475.72 119.322 4480.81 121.406 4485.9 123.513C4493.55 121.453 4501.26 119.481 4509 117.53ZM4525.72 125.85C4520.81 123.332 4515.89 120.945 4510.97 118.512C4503.32 120.431 4495.71 122.398 4488.14 124.427C4493.2 126.533 4498.25 128.646 4503.3 130.837C4510.72 129.113 4518.21 127.464 4525.72 125.85ZM4542.04 134.459C4537.28 131.923 4532.53 129.325 4527.77 126.869C4520.31 128.465 4512.89 130.122 4505.51 131.824C4510.46 133.986 4515.42 136.217 4520.37 138.462C4527.55 137.074 4534.78 135.744 4542.04 134.459ZM4558.34 143.28C4553.59 140.653 4548.83 138.103 4544.07 135.557C4536.9 136.814 4529.79 138.145 4522.7 139.505C4527.63 141.752 4532.55 143.991 4537.47 146.32C4544.4 145.264 4551.35 144.239 4558.34 143.28ZM4574.41 152.34C4569.76 149.674 4565.12 147.016 4560.46 144.43C4553.52 145.371 4546.65 146.406 4539.77 147.444C4544.58 149.732 4549.38 152.098 4554.18 154.467C4560.9 153.726 4567.63 152.987 4574.41 152.34ZM4590.25 161.623C4585.67 158.906 4581.1 156.214 4576.51 153.573C4569.84 154.201 4563.25 154.948 4556.63 155.665C4561.43 158.042 4566.22 160.384 4571 162.84C4577.41 162.416 4583.79 161.959 4590.25 161.623ZM4606.09 171.11C4601.56 168.325 4597.02 165.639 4592.48 162.932C4586.09 163.255 4579.79 163.728 4573.45 164.137C4578.08 166.526 4582.7 169.013 4587.32 171.479C4593.58 171.353 4599.79 171.151 4606.09 171.11ZM4621.43 180.805C4617.05 178.031 4612.68 175.213 4608.3 172.51C4602.14 172.541 4596.08 172.764 4589.96 172.872C4594.6 175.367 4599.25 177.774 4603.9 180.345C4609.75 180.512 4615.54 180.566 4621.43 180.805ZM4637.26 190.831C4632.83 187.922 4628.38 185.225 4623.94 182.391C4618.1 182.144 4612.34 182.034 4606.55 181.861C4610.96 184.316 4615.36 186.896 4619.77 189.425C4625.6 189.877 4631.4 190.298 4637.26 190.831ZM4652.19 200.972C4648.05 198.175 4643.92 195.271 4639.78 192.539C4634.06 192.007 4628.36 191.535 4622.67 191.082C4627.15 193.662 4631.63 196.104 4636.1 198.757C4641.44 199.456 4646.81 200.2 4652.19 200.972ZM4667.48 211.366C4663.31 208.459 4659.13 205.691 4654.95 202.852C4649.66 202.078 4644.35 201.274 4639.08 200.578C4643.2 203.038 4647.32 205.654 4651.44 208.181C4656.76 209.165 4662.13 210.303 4667.48 211.366ZM4682.15 221.818C4678.29 219.051 4674.44 216.174 4670.58 213.466C4665.33 212.409 4660.04 211.247 4654.83 210.266C4659.04 212.867 4663.26 215.379 4667.47 218.044C4672.34 219.235 4677.26 220.56 4682.15 221.818ZM4696.67 232.384C4692.88 229.596 4689.1 226.854 4685.31 224.121C4680.73 222.929 4676.14 221.729 4671.57 220.59C4675.36 223.01 4679.14 225.603 4682.92 228.08C4687.5 229.49 4692.08 230.922 4696.67 232.384ZM4711.02 243.03C4707.45 240.328 4703.88 237.69 4700.31 235.038C4695.96 233.636 4691.64 232.329 4687.3 230.964C4691.05 233.44 4694.81 235.87 4698.57 238.398C4702.72 239.962 4706.86 241.43 4711.02 243.03ZM4724.44 253.469C4721.24 250.974 4718.03 248.435 4714.82 245.982C4711.17 244.568 4707.56 243.29 4703.92 241.933C4707.18 244.145 4710.43 246.462 4713.68 248.72C4717.26 250.296 4720.85 251.837 4724.44 253.469ZM4738.62 264.492C4735.62 262.094 4732.6 259.826 4729.58 257.465C4726.22 255.921 4722.83 254.305 4719.47 252.809C4722.32 254.804 4725.16 256.797 4728 258.819C4731.53 260.633 4735.09 262.631 4738.62 264.492ZM4750.85 274.461C4748.81 272.794 4746.77 271.035 4744.73 269.386L4737.57 265.563C4739.85 267.217 4742.14 268.892 4744.42 270.579C4746.57 271.865 4748.71 273.165 4750.85 274.461ZM4760.8 282.7L4758.33 280.658C4757.5 280.146 4756.67 279.651 4755.83 279.149C4756.7 279.801 4757.56 280.451 4758.43 281.098C4759.22 281.633 4760.01 282.16 4760.8 282.7ZM218.599 760.62C217.604 760.16 216.607 759.681 215.612 759.219C217.231 760.283 218.849 761.364 220.471 762.445L222.869 763.768C221.444 762.723 220.023 761.678 218.599 760.62ZM230.48 766.189C228.714 765.389 226.945 764.511 225.179 763.704C227.587 765.485 229.993 767.253 232.401 769.034C234.091 769.958 235.783 770.911 237.473 771.835C235.144 769.953 232.817 768.101 230.48 766.189ZM241.65 771.111C239.602 770.197 237.557 769.341 235.51 768.419C238.563 770.907 241.603 773.339 244.648 775.798C246.804 776.967 248.964 778.205 251.115 779.367C247.962 776.62 244.819 773.919 241.65 771.111ZM253.029 776.098C250.689 775.072 248.352 774.059 246.012 773.024C249.699 776.283 253.358 779.436 257.03 782.634C259.341 783.87 261.649 785.083 263.96 786.306C260.317 782.911 256.695 779.583 253.029 776.098ZM264.854 781.279C262.227 780.147 259.595 778.969 256.969 777.823C260.891 781.548 264.773 785.12 268.676 788.758C271.174 790.074 273.669 791.347 276.167 792.651C272.408 788.901 268.634 785.103 264.854 781.279ZM276.627 786.419C273.858 785.249 271.087 783.984 268.318 782.798C272.374 786.895 276.393 790.864 280.423 794.863C283.113 796.263 285.811 797.677 288.506 799.064C284.56 794.893 280.594 790.657 276.627 786.419ZM288.082 791.098C285.297 789.943 282.518 788.857 279.731 787.686C283.963 792.204 288.172 796.645 292.378 801.077C295.281 802.566 298.192 804.139 301.095 805.608C296.759 800.779 292.435 795.982 288.082 791.098ZM299.591 795.797C296.756 794.642 293.919 793.493 291.082 792.321C295.62 797.409 300.131 802.416 304.655 807.461C307.49 808.89 310.322 810.278 313.156 811.691C308.627 806.371 304.116 801.098 299.591 795.797ZM311.109 800.499C308.222 799.346 305.337 798.133 302.45 796.965C307.082 802.388 311.712 807.811 316.347 813.248C319.224 814.675 322.09 816.04 324.964 817.451C320.363 811.853 315.715 806.119 311.109 800.499ZM322.595 805.128C319.681 803.985 316.762 802.777 313.846 801.617C318.552 807.351 323.308 813.23 328.001 818.932C330.975 820.385 333.949 821.846 336.924 823.282C332.178 817.313 327.362 811.157 322.595 805.128ZM333.839 809.385C330.941 808.272 328.049 807.227 325.153 806.095C330.064 812.305 335.007 818.593 339.89 824.73C342.938 826.199 345.999 827.749 349.047 829.195C343.993 822.64 338.927 816.034 333.839 809.385ZM345.154 813.669C342.209 812.559 339.266 811.453 336.321 810.325C341.54 817.145 346.72 823.871 351.897 830.588C354.919 832.016 357.935 833.411 360.954 834.82C355.695 827.788 350.46 820.821 345.154 813.669ZM356.606 818.006C353.606 816.898 350.602 815.723 347.602 814.598C352.984 821.847 358.288 828.908 363.626 836.04C366.648 837.449 369.664 838.785 372.688 840.174C367.332 832.797 362.004 825.488 356.606 818.006ZM368.011 822.238C365.011 821.153 362.007 820.018 359.004 818.915C364.468 826.484 369.864 833.89 375.288 841.358C378.349 842.759 381.407 844.163 384.466 845.545C378.986 837.786 373.53 830.089 368.011 822.238ZM379.226 826.162C376.252 825.104 373.278 824.112 370.301 823.04C375.905 831.004 381.445 838.824 387.012 846.706C390.102 848.098 393.203 849.566 396.292 850.938C390.606 842.683 384.945 834.494 379.226 826.162ZM390.485 830.098C387.485 829.055 384.481 828.008 381.478 826.948C387.274 835.391 393.014 843.7 398.778 852.075C401.852 853.436 404.924 854.778 407.998 856.12C402.161 847.443 396.352 838.835 390.485 830.098ZM401.782 834.046C398.758 833.018 395.731 831.92 392.704 830.873C398.618 839.683 404.477 848.369 410.37 857.126C413.434 858.46 416.489 859.714 419.553 861.027C413.626 852.027 407.73 843.097 401.782 834.046ZM413.026 837.876C410.01 836.872 406.991 835.836 403.969 834.811C409.967 843.931 415.913 852.939 421.89 862.02C424.98 863.342 428.07 864.654 431.155 865.957C425.109 856.585 419.093 847.289 413.026 837.876ZM3936.66 405.106C3933.53 407.774 3930.5 410.555 3927.4 413.248C3928.87 412.06 3930.36 410.88 3931.83 409.697C3936.82 405.494 3941.89 401.38 3946.94 397.245C3943.5 399.85 3940.07 402.472 3936.66 405.106ZM3976.73 371.961C3971.03 376.526 3965.45 381.206 3959.82 385.844C3965.05 381.98 3970.23 378.064 3975.51 374.268C3980.78 370.136 3986.04 366.007 3991.36 361.937C3986.46 365.247 3981.59 368.593 3976.73 371.961ZM4015.14 342.077C4008.29 347.243 4001.56 352.534 3994.8 357.799C4000.19 354.192 4005.64 350.671 4011.08 347.136C4018.04 341.981 4024.99 336.824 4032.05 331.777C4026.38 335.172 4020.75 338.607 4015.14 342.077ZM4052.02 315.031C4044.27 320.543 4036.67 326.208 4029.03 331.842C4035.19 328.135 4041.39 324.494 4047.61 320.884C4055.17 315.619 4062.73 310.357 4070.39 305.212C4064.24 308.447 4058.11 311.701 4052.02 315.031ZM4087.16 290.741C4078.92 296.277 4070.83 301.969 4062.72 307.634C4069.39 304.07 4076.06 300.499 4082.81 297.045C4090.86 291.76 4098.97 286.535 4107.12 281.375C4100.43 284.429 4093.78 287.576 4087.16 290.741ZM4122.62 267.737C4113.88 273.292 4105.2 278.897 4096.58 284.583C4102.97 281.602 4109.43 278.739 4115.88 275.863C4124.48 270.529 4133.22 265.339 4141.96 260.162C4135.5 262.663 4129.02 265.13 4122.62 267.737ZM4155.94 247.35C4146.85 252.742 4137.76 258.132 4128.84 263.708C4135.71 260.961 4142.58 258.242 4149.51 255.618C4158.21 250.538 4167.04 245.611 4175.89 240.704C4169.2 242.838 4162.57 245.101 4155.94 247.35ZM4188.92 228.224C4179.82 233.34 4170.77 238.509 4161.83 243.796C4168.52 241.567 4175.23 239.398 4181.98 237.292C4190.53 232.58 4199.16 227.947 4207.85 223.389C4201.53 224.981 4195.19 226.527 4188.92 228.224ZM4219.97 211.088C4211.24 215.759 4202.62 220.555 4194.01 225.365C4200.51 223.642 4207.05 222.012 4213.6 220.403C4222.11 215.978 4230.61 211.539 4239.24 207.25C4232.78 208.44 4226.38 209.785 4219.97 211.088ZM4251.16 194.863C4242.28 199.374 4233.48 203.981 4224.72 208.618C4231.16 207.343 4237.61 206.084 4244.09 204.917C4252.56 200.763 4261.08 196.674 4269.65 192.651C4263.48 193.371 4257.29 194.036 4251.16 194.863ZM4281.43 180.123C4272.56 184.325 4263.67 188.517 4254.94 192.894C4261.2 192.075 4267.49 191.376 4273.78 190.667C4282.4 186.671 4291.15 182.829 4299.9 178.998C4293.72 179.293 4287.58 179.719 4281.43 180.123ZM4311.03 166.314C4302.3 170.262 4293.66 174.311 4285.04 178.393C4291.2 178.011 4297.38 177.654 4303.57 177.381C4311.9 173.742 4320.23 170.106 4328.67 166.59C4322.78 166.465 4316.9 166.338 4311.03 166.314ZM4339.87 153.599C4331.28 157.288 4322.78 161.069 4314.29 164.875C4320.26 164.92 4326.23 165.013 4332.22 165.161C4340.51 161.737 4348.85 158.365 4357.25 155.067C4351.45 154.533 4345.65 154.034 4339.87 153.599ZM4368.45 141.839C4359.86 145.28 4351.27 148.711 4342.81 152.305C4348.6 152.754 4354.42 153.315 4360.23 153.867C4368.59 150.614 4377.05 147.493 4385.53 144.388C4379.83 143.452 4374.14 142.678 4368.45 141.839ZM4396.19 130.779C4387.77 134.012 4379.5 137.407 4371.18 140.742C4376.91 141.601 4382.63 142.391 4388.37 143.349C4396.39 140.417 4404.34 137.405 4412.44 134.566C4407.02 133.278 4401.59 131.976 4396.19 130.779ZM4423.91 120.651C4415.48 123.665 4407.05 126.687 4398.74 129.845C4404.21 131.066 4409.68 132.356 4415.15 133.673C4423.25 130.874 4431.48 128.225 4439.7 125.57C4434.44 123.918 4429.17 122.215 4423.91 120.651ZM4450.65 111.22C4442.48 114.01 4434.38 116.891 4426.29 119.779C4431.56 121.356 4436.84 123.11 4442.11 124.778C4450.12 122.198 4458.11 119.594 4466.19 117.104C4461.01 115.075 4455.83 113.161 4450.65 111.22ZM4477.22 102.482C4469.08 105.093 4460.97 107.743 4452.93 110.471C4458.12 112.423 4463.3 114.387 4468.48 116.43C4476.39 114.011 4484.38 111.69 4492.39 109.39C4487.34 107 4482.28 104.782 4477.22 102.482ZM442.799 870.902C436.566 861.067 430.373 851.308 424.128 841.439C421.133 840.463 418.138 839.547 415.137 838.553C421.267 848.061 427.347 857.461 433.461 866.936C436.572 868.243 439.688 869.614 442.799 870.902ZM462.408 901.849C456.368 892.343 450.248 882.666 444.152 873.04C441.057 871.762 437.948 870.385 434.85 869.089C440.904 878.473 446.978 887.907 452.979 897.172C456.128 898.754 459.265 900.285 462.408 901.849ZM482.206 932.917C476.097 923.33 470.036 913.849 463.895 904.194C460.766 902.643 457.641 901.11 454.507 899.537C460.611 908.954 466.641 918.204 472.713 927.556C475.889 929.403 479.032 931.093 482.206 932.917ZM501.925 963.801C495.906 954.371 489.902 944.986 483.859 935.51C480.708 933.703 477.584 932.021 474.429 930.19C480.317 939.246 486.16 948.212 492.027 957.223C495.316 959.382 498.64 961.668 501.925 963.801ZM521.241 994.052C515.48 985.049 509.65 975.904 503.846 966.81C500.582 964.696 497.282 962.411 494.013 960.272C499.774 969.13 505.562 978.039 511.284 986.804C514.601 989.212 517.933 991.67 521.241 994.052ZM540.597 1024.24C534.867 1015.32 529.135 1006.39 523.373 997.389C520.091 995.033 516.782 992.579 513.492 990.198C519.225 998.976 524.923 1007.67 530.624 1016.38C533.954 1019.02 537.275 1021.63 540.597 1024.24ZM559.995 1054.38C554.323 1045.57 548.685 1036.83 543.003 1027.98C539.716 1025.41 536.423 1022.8 533.13 1020.2C538.789 1028.83 544.403 1037.36 550.046 1045.95C553.373 1048.8 556.673 1051.56 559.995 1054.38ZM579.398 1084.53C573.85 1075.93 568.257 1067.23 562.672 1058.55C559.398 1055.77 556.131 1053.03 552.847 1050.22C558.411 1058.7 563.988 1067.21 569.513 1075.6C572.829 1078.64 576.095 1081.52 579.398 1084.53ZM598.646 1114.36C593.242 1106.01 587.802 1097.57 582.359 1089.13C579.106 1086.18 575.884 1083.31 572.623 1080.33C577.937 1088.41 583.235 1096.45 588.515 1104.44C591.884 1107.72 595.288 1111.11 598.646 1114.36ZM617.628 1143.61C612.467 1135.65 607.339 1127.77 602.175 1119.8C598.893 1116.63 595.553 1113.29 592.26 1110.09C597.49 1117.99 602.685 1125.82 607.913 1133.71C611.169 1137.06 614.383 1140.29 617.628 1143.61ZM636.492 1172.67C631.515 1165.02 626.509 1157.3 621.505 1149.58C618.347 1146.36 615.207 1143.19 612.04 1139.94C616.962 1147.37 621.892 1154.82 626.782 1162.19C630.022 1165.69 633.265 1169.2 636.492 1172.67ZM655.242 1201.54C650.531 1194.32 645.754 1186.94 640.992 1179.6C637.878 1176.27 634.738 1172.85 631.619 1169.48C636.359 1176.63 641.089 1183.75 645.787 1190.8C648.928 1194.35 652.11 1198.02 655.242 1201.54ZM673.866 1229.99C669.405 1223.17 664.975 1216.41 660.53 1209.62C657.603 1206.34 654.645 1202.96 651.71 1199.65C656.237 1206.41 660.754 1213.16 665.289 1219.95C668.163 1223.33 671.003 1226.63 673.866 1229.99ZM691.877 1257.5C687.863 1251.38 683.831 1245.21 679.799 1239.06C677.172 1235.98 674.582 1233 671.948 1229.9C675.98 1235.93 680.018 1241.98 684.026 1247.95C686.658 1251.18 689.25 1254.29 691.877 1257.5ZM709.272 1284.07C705.853 1278.87 702.389 1273.57 698.933 1268.28C696.591 1265.43 694.264 1262.61 691.916 1259.75C695.438 1265.01 698.946 1270.25 702.428 1275.43C704.721 1278.33 706.988 1281.18 709.272 1284.07ZM726.417 1310.08C723.582 1305.78 720.792 1301.57 717.966 1297.29L712.76 1290.71C715.668 1295.01 718.585 1299.33 721.506 1303.66L726.417 1310.08ZM742.488 1334.4L737.516 1326.88L734.781 1323.3C736.566 1325.94 738.363 1328.61 740.145 1331.24L742.488 1334.4ZM795.952 1412.49L797.05 1414.14C1714.04 2716.35 2186.39 3001.69 2505.69 2803.14C2725.15 2666.67 2872.49 2301.56 3042.24 1880.93C3236.79 1398.85 3460.76 843.899 3856.52 476.307C3858.63 474.268 3860.69 472.181 3862.8 470.15C3483.15 810.817 3255.64 1326.46 3054.99 1781.48C2876.08 2187.19 2718.45 2544.65 2493.1 2687.01C2163.88 2894.97 1690.42 2643.46 795.952 1412.49ZM771.485 1375.79C773.243 1378.44 774.962 1381 776.707 1383.63C1683.73 2638.13 2161.26 2894.95 2492.34 2685.8C2717.32 2543.69 2874.88 2186.4 3053.69 1780.91C3260.17 1312.67 3495.08 780.282 3894.86 440.194C3901.88 433.791 3909.02 427.509 3916.14 421.202C3522.98 734.808 3281.37 1236.73 3066.02 1684.27C2878.92 2073.09 2711.58 2420.85 2481.71 2568.53C2139.78 2788.21 1659.8 2565.04 771.485 1375.79ZM749.702 1342.81C752.408 1346.91 755.129 1351.03 757.822 1355.1C1654.89 2560.85 2137.75 2787.83 2480.95 2567.34C2710.48 2419.87 2877.73 2072.29 3064.74 1683.65C3283.92 1228.17 3530.25 716.395 3935.81 403.901C3944.04 396.865 3952.43 389.995 3960.81 383.119C3559.32 669.359 3305.35 1153.34 3076.35 1589.89C2882.18 1960.04 2705.91 2296.06 2472.73 2448.62C2117.76 2680.86 1631.21 2487.82 749.702 1342.81ZM728.007 1309.97C731.539 1315.31 735.079 1320.67 738.627 1326.05C1627.11 2484.26 2115.98 2680.34 2471.96 2447.43C2704.83 2295.07 2881.01 1959.21 3075.1 1589.23C3307.21 1146.76 3564.97 655.597 3975.9 370.744C3984.47 363.869 3993.16 357.11 4001.88 350.397C3593.97 609.229 3328.2 1074.04 3085.68 1498.36C2885.85 1847.99 2701.76 2170.08 2466.79 2326.86C2097.97 2572.95 1604.02 2411.48 728.007 1309.97ZM707.064 1278.17C711.091 1284.31 715.094 1290.4 719.084 1296.47C1600.65 2408.54 2096.39 2572.31 2466 2325.68C2700.69 2169.09 2884.7 1847.14 3084.44 1497.66C3329.7 1068.55 3598.72 598.051 4014.4 340.799C4023.31 334.079 4032.33 327.469 4041.39 320.911C3627.58 552.227 3350.02 997.9 3093.62 1409.73C2889.93 1736.88 2699.56 2042.64 2464.72 2202.7C2081.07 2464.18 1578.93 2336.49 707.064 1278.17ZM686.816 1247.23C691.225 1253.97 695.639 1260.73 700.018 1267.4C1576.2 2334.04 2079.68 2463.42 2463.93 2201.53C2698.52 2041.64 2888.81 1736 3092.42 1408.98C3351.14 993.426 3631.38 543.429 4051.35 313.711C4060.39 307.297 4069.56 301.026 4078.75 294.774C3659.73 498.606 3370.38 924.998 3099.75 1323.98C2894.51 1626.55 2699.99 1913.32 2467.72 2075.32C2067.93 2354.17 1556.46 2263.13 686.816 1247.23ZM666.649 1216.43C671.402 1223.69 676.135 1230.91 680.888 1238.18C1554.09 2261.03 2066.64 2353.34 2466.91 2074.16C2698.97 1912.31 2893.41 1625.65 3098.58 1323.19C3371.14 921.354 3662.68 491.751 4086.49 289.423C4095.86 283.144 4105.39 277.042 4114.95 270.957C3690.66 447.147 3389.16 854.819 3103.56 1241.12C2899.78 1516.76 2704.05 1781.49 2477.5 1943.54C2059.67 2242.4 1537.18 2191.81 666.649 1216.43ZM646.541 1185.6C651.579 1193.34 656.59 1201.04 661.593 1208.7C1535.1 2189.99 2058.45 2241.52 2476.68 1942.38C2703.05 1780.47 2898.71 1515.82 3102.42 1240.28C3389.89 851.451 3693.42 440.929 4122.03 266.377C4131.09 260.657 4140.27 255.069 4149.5 249.528C3719.99 397.964 3405.88 787.35 3104.48 1161.11C2906.18 1407.04 2713.35 1646.16 2496.71 1805.45C2058.18 2127.88 1522.25 2123.07 646.541 1185.6ZM626.408 1154.58C631.63 1162.63 636.862 1170.71 642.045 1178.68C1520.3 2121.28 2057 2126.99 2495.87 1804.31C2712.36 1645.13 2905.13 1406.07 3103.38 1160.22C3406.42 784.416 3722.32 392.842 4155.39 245.972C4164.48 240.553 4173.62 235.207 4182.85 229.955C3747.73 350.315 3420.21 722.238 3101.85 1083.88C2914.66 1296.52 2730.61 1505.59 2529.67 1657.88C2066.5 2008.92 1513.67 2058.06 626.408 1154.58ZM606.592 1124.04C611.919 1132.26 617.217 1140.41 622.539 1148.61C1511.94 2056.52 2065.36 2008 2528.82 1656.75C2729.64 1504.54 2913.64 1295.53 3100.78 1082.94C3420.79 719.432 3750 345.485 4188.44 226.82C4197.2 221.885 4205.93 216.923 4214.81 212.125C3773.59 303.997 3431.64 659.302 3094.89 1009.33C2927.34 1183.48 2761.06 1356.31 2584.45 1494.74C2090.35 1881.99 1515.58 1999.82 606.592 1124.04ZM586.328 1092.72C591.976 1101.47 597.596 1110.16 603.215 1118.84C1514.01 1998.48 2089.24 1881.07 2583.58 1493.62C2760.1 1355.27 2926.35 1182.47 3093.87 1008.34C3432.09 656.785 3775.58 299.922 4219.56 209.657C4228.54 204.864 4237.61 200.162 4246.73 195.523C3798.1 257.82 3440 597.923 3082.73 937.313C2949.82 1063.57 2817.02 1189.73 2679.69 1301.46C2142.76 1738.3 1536.88 1954.08 586.328 1092.72ZM566.328 1061.64C572.016 1070.49 577.725 1079.37 583.37 1088.12C1535.43 1952.9 2141.67 1737.37 2678.8 1300.36C2816.07 1188.68 2948.86 1062.54 3081.76 936.284C3440.37 595.618 3799.8 254.179 4250.78 193.42C4259.6 188.97 4268.56 184.668 4277.53 180.383C3820.52 212.085 3444.41 538.102 3064.37 867.673C2397.02 1446.4 1717.34 2035.32 566.328 1061.64ZM546.382 1030.65C552.159 1039.64 557.892 1048.53 563.651 1057.48C1716.01 2034.6 2395.9 1445.5 3063.44 866.601C3444.74 535.934 3822.09 208.849 4281.14 178.652C4289.9 174.474 4298.67 170.303 4307.55 166.258C3840.82 165.85 3444.32 479.39 3038.65 800.203C2358.41 1338.15 1652.29 1896.16 546.382 1030.65ZM526.476 999.649C532.338 1008.8 538.144 1017.83 543.976 1026.91C1650.99 1895.37 2357.34 1337.19 3037.77 799.094C3444.64 477.335 3842.3 162.926 4310.81 164.822C4319.4 160.947 4328.04 157.135 4336.74 153.391C3858.82 119.012 3438.92 421.468 3004.25 734.697C2313.21 1232.68 1584.75 1757.4 526.476 999.649ZM506.676 968.638C512.574 977.873 518.499 987.179 524.347 996.313C1583.48 1756.52 2312.19 1231.67 3003.42 733.548C3439.23 419.497 3860.2 116.253 4339.68 152.095C4348.25 148.443 4356.92 144.92 4365.61 141.417C3874.6 70.4269 3427.5 363.815 2959.67 670.947C2260.3 1130.08 1514.61 1619.59 506.676 968.638ZM486.462 936.977C492.6 946.603 498.698 956.147 504.815 965.721C1513.41 1618.7 2259.34 1129.01 2958.89 669.759C3427.82 361.906 3875.94 67.8629 4368.34 140.319C4376.76 136.931 4385.1 133.463 4393.61 130.179C3887.65 19.6479 3408.81 306.167 2903.13 608.786C2198.37 1030.55 1441.47 1483.28 486.462 936.977ZM466.319 905.396C472.523 915.148 478.632 924.693 484.806 934.384C1440.31 1482.35 2197.45 1029.45 2902.4 607.57C3409.15 304.311 3888.97 17.2419 4396.16 129.244C4404.53 126.054 4413.03 123.018 4421.53 119.979C3898.26 -34.1671 3381.81 247.995 2832.58 548.155C2126.15 934.225 1365.48 1349.7 466.319 905.396ZM446.429 874.007C452.575 883.714 458.747 893.474 464.832 903.05C1364.35 1348.7 2125.28 933.091 2831.91 546.91C3382.17 246.187 3899.55 -36.5101 4423.92 119.108C4432.08 116.187 4440.23 113.246 4448.47 110.419C3905.59 -91.6611 3344.56 189.168 2745.54 489.172C2042.22 841.416 1286.57 1219.81 446.429 874.007ZM426.218 842.11C432.524 852.074 438.783 861.932 445.076 871.869C1285.46 1218.76 2041.38 840.255 2744.91 487.906C3344.94 187.394 3906.89 -93.9041 4450.75 109.668C4458.87 106.906 4467.07 104.247 4475.28 101.602C3909.88 -154.271 3295.16 129.337 2638.94 432.275C1944.73 752.744 1204.11 1094.49 426.218 842.11ZM0 154.008C150.077 400.936 291.501 629.211 425.023 840.222C1203.05 1093.42 1943.93 751.553 2638.34 430.988C3295.54 127.603 3911.12 -156.401 4477.37 100.914C4633.2 51.0249 4806.44 21.7239 5000 17.9449V19.3619C4807.23 23.1259 4634.62 52.2269 4479.31 101.795C4484.4 104.119 4489.49 106.333 4494.57 108.745C4645.91 65.4769 4813.52 42.2659 5000 43.7299V45.1449C4814.32 43.6919 4647.36 66.7199 4496.55 109.669C4501.44 112.002 4506.31 114.547 4511.2 116.962C4658.2 80.1379 4820.33 62.8359 5000 69.4349V70.8529C4821.12 64.2799 4659.65 81.4269 4513.17 117.941C4518.12 120.402 4523.07 122.791 4528.02 125.336C4670.61 94.8929 4827.2 83.4239 5000 95.0529V96.4709C4828.02 84.8909 4672.1 96.2019 4530.07 126.357C4534.84 128.829 4539.6 131.479 4544.36 134.03C4682.65 109.793 4833.85 104.013 5000 120.576V122.002C4834.66 105.511 4684.12 111.164 4546.39 135.126C4551.19 137.708 4556 140.26 4560.79 142.925C4694.73 124.818 4840.51 124.621 5000 146V147.428C4841.35 126.143 4696.25 126.217 4562.91 144.072C4567.57 146.677 4572.23 149.396 4576.89 152.079C4706.53 139.944 4847.02 145.216 5000 171.314V172.756C4847.84 146.776 4708.04 141.403 4578.99 153.311C4583.62 155.992 4588.25 158.697 4592.88 161.457C4718.24 155.169 4853.46 165.801 5000 196.507V197.956C4854.32 167.411 4719.84 156.705 4595.11 162.767C4599.66 165.495 4604.21 168.253 4608.76 171.061C4729.85 170.512 4859.83 186.371 5000 221.564V223.027C4860.71 188.036 4731.5 172.168 4611.08 172.528C4615.54 175.292 4619.99 178.137 4624.44 180.974C4741.29 186.009 4866.08 206.908 5000 246.472V247.952C4867.03 208.646 4743.08 187.788 4626.95 182.56C4631.41 185.421 4635.88 188.211 4640.33 191.149C4752.86 201.66 4872.39 227.466 5000 271.225V272.723C4873.33 229.257 4754.64 203.512 4642.85 192.855C4647.09 195.66 4651.31 198.607 4655.54 201.482C4763.91 217.31 4878.41 247.892 5000 295.787V297.313C4879.44 249.792 4765.87 219.317 4658.31 203.362C4662.6 206.296 4666.91 209.114 4671.19 212.12C4775.25 233.123 4884.57 268.338 5000 320.147V321.7C4885.67 270.339 4777.32 235.276 4674.15 214.193C4678.1 216.978 4682.04 219.958 4685.98 222.803C4785.95 248.838 4890.38 288.585 5000 344.281V345.871C4891.54 290.71 4788.15 251.177 4689.14 225.105C4693.1 227.976 4697.06 230.811 4701.01 233.744C4796.78 264.633 4896.25 308.776 5000 368.152V369.786C4897.57 311.099 4799.3 267.253 4704.65 236.398C4708.29 239.117 4711.92 241.944 4715.56 244.716C4807.25 280.321 4901.92 328.754 5000 391.734V393.424C4903.4 331.351 4810.13 283.445 4719.72 247.96C4723.28 250.692 4726.83 253.461 4730.38 256.245C4817.89 296.381 4907.64 348.723 5000 414.997V416.745C4909.45 351.705 4821.41 300.095 4735.52 260.24C4738.86 262.892 4742.22 265.499 4745.56 268.199C4828.73 312.606 4913.45 368.634 5000 437.883V439.699C4915.37 371.91 4832.5 316.769 4751.11 272.792C4753.81 274.99 4756.5 277.264 4759.19 279.492C4838.48 328.113 4918.68 387.912 5000 460.335V462.224C4921.24 391.969 4843.52 333.52 4766.67 285.686C4768.99 287.627 4771.31 289.487 4773.63 291.453C4848.73 343.982 4924.15 407.186 5000 482.293V484.295C4928.22 413.165 4856.83 352.774 4785.73 301.918C4786.51 302.591 4787.29 303.29 4788.06 303.965C4858.93 360.087 4929.56 426.255 5000 503.688V505.786C4937.57 437.033 4874.98 377.113 4812.21 325.244C4875.49 382.63 4938.09 448.767 5000 524.381V526.639C4929.93 440.968 4858.96 367.536 4787.12 305.052C4777.25 297.241 4767.38 289.665 4757.5 282.209C4747.16 275.196 4736.82 268.283 4726.48 261.666C4716.02 255.598 4705.58 249.735 4695.15 244.084C4684.3 238.852 4673.48 233.855 4662.67 229.01C4650.75 224.344 4638.86 219.863 4627.01 215.627C4614.49 211.786 4602.01 208.178 4589.59 204.822C4576.38 201.872 4563.25 199.194 4550.18 196.743C4536.34 194.774 4522.61 193.108 4508.95 191.651C4496.91 190.876 4484.95 190.29 4473.06 189.89C4458.09 189.955 4443.23 190.276 4428.52 190.936C4412.66 192.207 4396.93 193.775 4381.37 195.69C4364.67 198.314 4348.14 201.259 4331.79 204.563C4314.21 208.696 4296.83 213.172 4279.65 218.025C4261.13 223.808 4242.87 230.034 4224.84 236.622C4205.39 244.254 4186.28 252.394 4167.42 260.903C4147.15 270.57 4127.25 280.762 4107.64 291.367C4086.46 303.335 4065.67 315.835 4045.27 328.816C4021.72 344.344 3998.69 360.507 3976.16 377.271C3947.58 399.142 3919.78 421.902 3892.8 445.579C3863.38 472.013 3834.97 499.518 3807.39 527.868C3402.51 951.92 3195.34 1568.59 3020.37 2089.53C2905.7 2430.97 2804.83 2731.28 2671.13 2909.42H2669.36C2803.22 2731.61 2904.2 2430.98 3019.03 2089.08C3178.08 1615.52 3363.73 1062.86 3700.26 647.569C3382.76 1032.67 3195.26 1541.13 3031.95 1984.16C2876.25 2406.55 2742.47 2769.42 2538.77 2909.42H2536.23C2740.53 2770.56 2874.56 2407.03 3030.61 1983.68C3209.84 1497.46 3418.13 932.429 3795.41 538.003C3438.04 904.023 3227.62 1425.36 3043.56 1881.46C2873.71 2302.32 2726.29 2667.64 2506.43 2804.34C2191.09 3000.44 1726.99 2725.8 834.975 1470.06C1427.39 2329.43 1830.59 2761.82 2124.33 2909.42H2121.33C1834.34 2763.89 1443.39 2347.87 874.937 1530.25C1369.86 2262.73 1730.12 2694.99 2003 2909.42H2001.01C1717.36 2686.04 1339.66 2228.12 815.249 1443.9C802.431 1425.24 789.434 1406.18 776.424 1387.08C763.919 1369.26 751.415 1351.43 738.765 1333.26C727.79 1317.95 716.719 1302.43 705.612 1286.82C693.157 1269.86 680.616 1252.7 667.995 1235.36C657.317 1221.17 646.612 1206.92 635.834 1192.49C624.135 1177.37 612.293 1161.9 600.439 1146.39C589.242 1132.32 578.062 1118.28 566.76 1103.94C556.19 1091.05 545.504 1077.87 534.821 1064.7C523.845 1051.74 512.899 1038.88 501.818 1025.65C491.661 1014.08 481.404 1002.24 471.158 990.43C460.806 979.085 450.51 967.901 440.074 956.323C430.433 946.204 420.689 935.769 410.967 925.411C400.615 915.051 390.2 904.507 379.767 893.9C370.265 884.868 360.748 875.783 351.191 866.566C341.387 857.787 331.614 849.126 321.747 840.118C312.727 832.55 303.744 825.143 294.674 817.376C286.281 810.848 277.9 804.376 269.467 797.667C261.134 791.738 252.798 785.788 244.431 779.687C236.209 774.421 227.976 769.094 219.727 763.662C211.634 759.123 203.527 754.445 195.42 749.755C130.527 718.76 65.387 683.305 0 643.009V641.348C60.207 678.486 120.207 711.517 179.995 740.73C120.42 705.651 60.431 666.773 0 623.746V622.014C65.877 668.97 131.235 710.991 196.093 748.499C197.001 748.933 197.912 749.343 198.817 749.775C133.288 705.929 67.029 657.402 0 603.788V601.971C70.014 658.009 139.189 708.488 207.574 753.879C209.306 754.692 211.035 755.506 212.767 756.312C142.902 704.121 72.007 646.567 0 583.193V581.296C74.267 646.692 147.351 705.875 219.344 759.397C221.508 760.397 223.674 761.451 225.837 762.44C151.951 701.828 76.705 635.197 0 562.041V560.074C78.579 635.049 155.623 703.157 231.243 764.975C233.52 766.008 235.794 766.965 238.073 767.988C160.466 699.031 81.14 623.31 0 540.413V538.378C82.661 622.858 163.437 699.873 242.432 769.897C244.982 771.034 247.528 772.124 250.075 773.247C168.828 695.854 85.506 611.018 0 518.334V516.244C86.825 610.412 171.405 696.503 253.831 774.893C256.624 776.119 259.419 777.358 262.211 778.566C177.284 692.566 89.931 598.501 0 495.859V493.709C91.154 597.803 179.666 693.099 265.675 780.086C268.525 781.31 271.381 782.626 274.232 783.834C185.67 689.126 94.321 585.724 0 473.041V470.839C95.46 584.934 187.876 689.53 277.438 785.212C280.262 786.404 283.081 787.492 285.903 788.668C193.808 685.248 98.598 572.583 0 449.917V447.658C99.672 571.703 195.882 685.524 288.903 789.89C291.796 791.091 294.683 792.249 297.575 793.43C201.983 681.313 102.891 559.275 0 426.518V424.203C103.92 558.33 203.963 681.517 300.431 794.598C303.36 795.789 306.29 797.01 309.214 798.182C210.132 677.264 107.173 545.78 0 402.874V400.513C108.168 544.788 212.043 677.435 311.957 799.303C314.929 800.49 317.908 801.777 320.88 802.944C218.304 673.148 111.466 532.13 0 378.999V376.593C112.4 531.049 220.092 673.2 323.443 803.922C326.367 805.065 329.286 806.114 332.21 807.241C226.274 668.705 115.653 518.19 0 354.923V352.48C116.556 517.064 228.001 668.693 334.692 808.179C337.658 809.32 340.625 810.428 343.593 811.551C234.281 664.196 119.859 504.137 0 330.669V328.172C120.749 502.967 235.978 664.168 346.02 812.47C349.039 813.609 352.058 814.781 355.077 815.9C242.345 659.63 124.107 489.984 0 306.23V303.699C124.994 488.799 244.024 659.573 357.475 816.808C360.515 817.928 363.555 819.125 366.59 820.228C250.425 654.979 128.374 475.736 0 281.636V279.064C129.227 474.484 252.036 654.845 368.882 821.03C371.875 822.112 374.862 823.101 377.855 824.164C258.332 649.999 132.551 461.241 0 256.901V254.293C133.388 459.962 259.924 649.859 380.105 824.953C383.124 826.022 386.135 827.064 389.154 828.116C266.27 644.993 136.741 446.662 0 232.028V229.393C137.573 445.364 267.847 644.851 391.37 828.89C394.407 829.945 397.447 831.039 400.485 832.076C274.229 639.954 140.947 432.013 0 207.042V204.372C141.773 430.696 275.798 639.813 402.672 832.84C405.715 833.875 408.76 834.964 411.802 835.98C282.191 634.867 145.153 417.278 0 181.943V179.242C145.948 415.897 283.691 634.612 413.913 836.657C416.921 837.657 419.922 838.569 422.93 839.552C290.019 629.497 149.29 402.346 0 156.74V154.008Z" fill="white"/>
</svg>
