<svg width="419" height="431" viewBox="0 0 419 431" fill="none" xmlns="http://www.w3.org/2000/svg">
<g filter="url(#filter0_d_3002_2)">
<path fill-rule="evenodd" clip-rule="evenodd" d="M309.947 167.728C303.069 184.232 295.199 199.691 287.246 211.956L296.365 231.857C298.122 235.692 297.913 240.139 295.804 243.799L262.314 301.907C264.337 302.347 266.551 302.119 268.654 301.008L302.705 283.01L336.755 301.008C343.642 304.648 351.711 298.804 350.401 291.126L343.885 252.93L371.534 225.834C377.082 220.396 374.005 210.957 366.318 209.834L328.155 204.259L311.135 169.586C310.798 168.899 310.398 168.28 309.947 167.728Z" fill="url(#paint0_linear_3002_2)"/>
</g>
<g filter="url(#filter1_d_3002_2)">
<path fill-rule="evenodd" clip-rule="evenodd" d="M287.245 211.956C318.162 164.281 347.831 68.3181 322.787 50.4471C297.368 33.1761 217.095 93.6031 182.597 138.817L161.032 137.13C156.811 136.8 152.686 138.518 149.955 141.745L91.727 210.526C89.796 212.808 91.685 216.259 94.655 215.874L134.533 210.704C132.024 215.966 130.812 219.949 130.901 222.757C131.013 226.259 134.479 231.649 139.432 237.53C132.75 246.147 129.412 259.511 129.265 263.631C129.039 269.975 141.396 283.698 153.706 292.026C166.016 300.355 182.963 307.548 188.872 305.163C192.755 303.596 204.449 295.734 210.225 286.389C216.928 288.709 222.668 289.881 225.813 288.851C228.485 287.977 231.816 285.494 235.904 281.374L244.788 320.913C245.442 323.823 249.346 324.408 250.837 321.82L295.804 243.799C297.913 240.139 298.122 235.692 296.364 231.857L287.245 211.956Z" fill="white" fill-opacity="0.1"/>
</g>
<mask id="mask0_3002_2" style="mask-type:alpha" maskUnits="userSpaceOnUse" x="90" y="47" width="243" height="277">
<path fill-rule="evenodd" clip-rule="evenodd" d="M287.245 211.956C318.162 164.281 347.831 68.3181 322.787 50.4471C297.368 33.1761 217.095 93.6031 182.597 138.817L161.032 137.13C156.811 136.8 152.686 138.518 149.955 141.745L91.727 210.526C89.796 212.808 91.685 216.259 94.655 215.874L134.533 210.704C132.024 215.966 130.812 219.949 130.901 222.757C131.013 226.259 134.479 231.649 139.432 237.53C132.75 246.147 129.412 259.511 129.265 263.631C129.039 269.975 141.396 283.698 153.706 292.026C166.016 300.355 182.963 307.548 188.872 305.163C192.755 303.596 204.449 295.734 210.225 286.389C216.928 288.709 222.668 289.881 225.813 288.851C228.485 287.977 231.816 285.494 235.904 281.374L244.788 320.913C245.442 323.823 249.346 324.408 250.837 321.82L295.804 243.799C297.913 240.139 298.122 235.692 296.364 231.857L287.245 211.956Z" fill="white"/>
</mask>
<g mask="url(#mask0_3002_2)">
<path fill-rule="evenodd" clip-rule="evenodd" d="M182.597 138.817L161.032 137.13C156.811 136.8 152.686 138.518 149.955 141.745L91.727 210.526C89.796 212.808 91.685 216.259 94.655 215.874L134.533 210.704C141.077 196.98 156.435 174.562 180.491 141.636C181.172 140.703 181.874 139.763 182.597 138.817Z" fill="white" fill-opacity="0.1"/>
<path fill-rule="evenodd" clip-rule="evenodd" d="M235.904 281.374L244.788 320.913C245.442 323.823 249.346 324.408 250.837 321.82L295.804 243.799C297.913 240.139 298.122 235.692 296.365 231.857L287.245 211.956C286.638 212.892 286.031 213.809 285.423 214.707C262.541 248.522 246.621 270.574 235.904 281.374Z" fill="black" fill-opacity="0.3"/>
</g>
<mask id="mask1_3002_2" style="mask-type:alpha" maskUnits="userSpaceOnUse" x="0" y="0" width="419" height="431">
<path d="M419 0H0V431H419V0Z" fill="white"/>
<path fill-rule="evenodd" clip-rule="evenodd" d="M287.245 211.956C318.162 164.281 347.831 68.3181 322.787 50.4471C297.368 33.1761 217.095 93.6031 182.597 138.817L161.032 137.13C156.811 136.8 152.686 138.518 149.955 141.745L91.727 210.526C89.796 212.808 91.685 216.259 94.655 215.874L134.533 210.704C132.024 215.966 130.812 219.949 130.901 222.757C131.013 226.259 134.479 231.649 139.432 237.53C132.75 246.147 129.412 259.511 129.265 263.631C129.039 269.975 141.396 283.698 153.706 292.026C166.016 300.355 182.963 307.548 188.872 305.163C192.755 303.596 204.449 295.734 210.225 286.389C216.928 288.709 222.668 289.881 225.813 288.851C228.485 287.977 231.816 285.494 235.904 281.374L244.788 320.913C245.442 323.823 249.346 324.408 250.837 321.82L295.804 243.799C297.913 240.139 298.122 235.692 296.364 231.857L287.245 211.956Z" fill="black"/>
</mask>
<g mask="url(#mask1_3002_2)">
<path fill-rule="evenodd" clip-rule="evenodd" d="M287.245 211.956C318.162 164.281 347.831 68.3181 322.787 50.4471C297.368 33.1761 217.095 93.6031 182.597 138.817L161.032 137.13C156.811 136.8 152.686 138.518 149.955 141.745L91.727 210.526C89.796 212.808 91.685 216.259 94.655 215.874L134.533 210.704C132.024 215.966 130.812 219.949 130.901 222.757C131.013 226.259 134.479 231.649 139.432 237.53C132.75 246.147 129.412 259.511 129.265 263.631C129.039 269.975 141.396 283.698 153.706 292.026C166.016 300.355 182.963 307.548 188.872 305.163C192.755 303.596 204.449 295.734 210.225 286.389C216.928 288.709 222.668 289.881 225.813 288.851C228.485 287.977 231.816 285.494 235.904 281.374L244.788 320.913C245.442 323.823 249.346 324.408 250.837 321.82L295.804 243.799C297.913 240.139 298.122 235.692 296.364 231.857L287.245 211.956Z" fill="white" fill-opacity="0.1"/>
<path d="M322.787 50.4471L324.312 48.6491L324.29 48.6331L324.268 48.6181L322.787 50.4471ZM287.245 211.956L285.163 210.839L284.516 211.837L284.995 212.884L287.245 211.956ZM182.597 138.817L182.322 141.062L183.742 141.173L184.577 140.079L182.597 138.817ZM161.032 137.13L161.307 134.885L161.032 137.13ZM149.955 141.745L148.05 140.389L149.955 141.745ZM91.727 210.526L89.822 209.17L91.727 210.526ZM94.655 215.874L94.384 213.643L94.655 215.874ZM134.533 210.704L136.761 211.562L138.495 207.924L134.263 208.473L134.533 210.704ZM130.901 222.757L128.464 222.889L130.901 222.757ZM139.432 237.53L141.4 238.806L142.474 237.422L141.372 236.114L139.432 237.53ZM129.265 263.631L126.828 263.621L129.265 263.631ZM188.872 305.163L189.794 307.224L188.872 305.163ZM210.225 286.389L211.138 284.276L209.177 283.598L208.116 285.315L210.225 286.389ZM225.813 288.851L226.568 290.973L225.813 288.851ZM235.904 281.374L238.292 280.856L237.344 276.637L234.128 279.878L235.904 281.374ZM244.788 320.913L247.176 320.395L244.788 320.913ZM250.837 321.82L248.692 320.806L250.837 321.82ZM295.804 243.799L293.658 242.785L295.804 243.799ZM296.364 231.857L294.114 232.785L296.364 231.857ZM321.262 52.2441C326.603 56.0561 329.453 64.4561 329.709 76.6261C329.96 88.6191 327.679 103.575 323.628 119.572C315.524 151.567 300.464 187.244 285.163 210.839L289.328 213.072C304.944 188.993 320.176 152.851 328.375 120.478C332.475 104.291 334.848 88.9251 334.585 76.4091C334.326 64.0701 331.493 53.7731 324.312 48.6491L321.262 52.2441ZM184.577 140.079C201.646 117.708 230.133 91.4751 257.498 73.0061C271.184 63.7691 284.462 56.5611 295.791 52.7231C307.278 48.8321 315.982 48.6581 321.306 52.2751L324.268 48.6181C316.883 43.6001 306.02 44.5031 294.229 48.4981C282.279 52.5461 268.567 60.0321 254.695 69.3941C226.944 88.1251 198.045 114.712 180.617 137.554L184.577 140.079ZM182.872 136.572L161.307 134.885L160.757 139.375L182.322 141.062L182.872 136.572ZM161.307 134.885C156.224 134.487 151.287 136.566 148.05 140.389L151.859 143.101C154.086 140.47 157.398 139.112 160.757 139.375L161.307 134.885ZM148.05 140.389L89.822 209.17L93.632 211.882L151.859 143.101L148.05 140.389ZM89.822 209.17C88.178 211.113 88.209 213.507 89.17 215.263C90.134 217.022 92.227 218.455 94.925 218.105L94.384 213.643C94.113 213.678 93.777 213.578 93.536 213.138C93.293 212.693 93.345 212.221 93.632 211.882L89.822 209.17ZM94.925 218.105L134.804 212.935L134.263 208.473L94.384 213.643L94.925 218.105ZM133.339 222.626C133.266 220.357 134.275 216.775 136.761 211.562L132.306 209.845C129.774 215.156 128.357 219.541 128.464 222.889L133.339 222.626ZM141.372 236.114C138.937 233.223 136.914 230.506 135.496 228.123C134.041 225.677 133.378 223.832 133.339 222.626L128.464 222.889C128.537 225.184 129.663 227.786 131.206 230.38C132.787 233.038 134.973 235.955 137.491 238.945L141.372 236.114ZM131.703 263.641C131.766 261.876 132.565 257.731 134.221 252.889C135.869 248.075 138.276 242.836 141.4 238.806L137.463 236.253C133.906 240.84 131.303 246.592 129.574 251.644C127.855 256.669 126.912 261.265 126.828 263.621L131.703 263.641ZM155.183 290.195C149.198 286.146 143.177 280.764 138.699 275.639C136.461 273.077 134.648 270.625 133.421 268.477C132.154 266.259 131.667 264.631 131.703 263.641L126.828 263.621C126.75 265.803 127.722 268.269 129.093 270.669C130.504 273.139 132.508 275.827 134.869 278.53C139.591 283.934 145.904 289.578 152.229 293.857L155.183 290.195ZM187.95 303.103C187.192 303.409 185.646 303.525 183.147 303.076C180.753 302.646 177.862 301.769 174.692 300.533C168.361 298.063 161.205 294.269 155.183 290.195L152.229 293.857C158.517 298.112 165.989 302.079 172.687 304.692C176.032 305.997 179.254 306.992 182.084 307.5C184.81 307.99 187.598 308.11 189.794 307.224L187.95 303.103ZM208.116 285.315C205.419 289.676 201.277 293.78 197.265 297.014C193.217 300.277 189.55 302.457 187.95 303.103L189.794 307.224C192.077 306.302 196.198 303.768 200.412 300.372C204.661 296.947 209.254 292.446 212.334 287.463L208.116 285.315ZM225.058 286.73C224.116 287.038 222.421 287.096 219.862 286.66C217.386 286.238 214.42 285.412 211.138 284.276L209.312 288.502C212.733 289.686 215.988 290.606 218.844 291.092C221.618 291.565 224.364 291.694 226.568 290.973L225.058 286.73ZM234.128 279.878C230.065 283.972 227.096 286.063 225.058 286.73L226.568 290.973C229.874 289.891 233.567 287.016 237.68 282.871L234.128 279.878ZM233.515 281.893L242.399 321.431L247.176 320.395L238.292 280.856L233.515 281.893ZM242.399 321.431C242.927 323.78 244.834 325.322 247.041 325.652C249.275 325.987 251.706 325.049 252.983 322.834L248.692 320.806C248.561 321.033 248.426 321.12 248.338 321.159C248.238 321.204 248.108 321.227 247.956 321.204C247.674 321.162 247.302 320.956 247.176 320.395L242.399 321.431ZM252.983 322.834L297.949 244.813L293.658 242.785L248.692 320.806L252.983 322.834ZM297.949 244.813C300.42 240.526 300.647 235.365 298.614 230.929L294.114 232.785C295.596 236.02 295.406 239.752 293.658 242.785L297.949 244.813ZM298.614 230.929L289.495 211.027L284.995 212.884L294.114 232.785L298.614 230.929Z" fill="url(#paint1_linear_3002_2)"/>
<path d="M250.53 153.162C260.907 160.428 275.201 157.918 282.457 147.555C289.713 137.193 287.183 122.902 276.806 115.636C266.429 108.37 252.135 110.88 244.879 121.243C237.623 131.606 240.153 145.896 250.53 153.162Z" fill="url(#paint2_linear_3002_2)"/>
<path fill-rule="evenodd" clip-rule="evenodd" d="M181.042 249.236C173.63 244.046 171.829 233.83 177.018 226.418L209.512 180.012C214.702 172.6 224.918 170.799 232.33 175.989C239.742 181.179 241.543 191.395 236.353 198.807L203.86 245.212C198.67 252.624 188.454 254.425 181.042 249.236Z" fill="url(#paint3_linear_3002_2)"/>
<g filter="url(#filter2_d_3002_2)">
<path fill-rule="evenodd" clip-rule="evenodd" d="M61.319 320.924C58.802 327.516 57.673 334.462 57.973 341.555L58.222 347.366C58.274 348.21 59.154 348.741 59.91 348.376L65.121 345.845C68.384 344.252 72.403 343.315 77.023 343.065C77.323 343.054 77.53 343.179 77.655 343.284C77.779 343.388 77.934 343.586 77.945 343.888C77.965 344.158 77.851 344.419 77.655 344.596C71.035 350.48 65.866 359.426 62.293 371.226C59.309 381.015 59.04 390.721 61.443 400.094L63.204 406.926C63.432 407.822 64.582 408.103 65.204 407.416L69.948 402.188C73.19 398.616 76.588 395.991 80.016 394.419C84.212 392.492 88.687 391.284 93.327 390.826C96.58 390.513 99.833 390.555 103.023 390.971C110.73 391.992 118.685 391.221 125.999 388.763C133.384 386.274 140.2 382.025 145.732 376.464C150.621 371.548 154.392 365.82 156.95 359.416C159.405 353.24 160.648 346.699 160.617 340.003C160.576 333.296 159.291 326.756 156.764 320.57C154.153 314.154 150.341 308.406 145.421 303.459C140.501 298.512 134.783 294.679 128.412 292.044C122.259 289.503 115.754 288.191 109.083 288.17C102.412 288.129 95.907 289.378 89.774 291.857C83.404 294.429 77.706 298.22 72.817 303.136C67.762 308.218 63.888 314.196 61.319 320.924Z" fill="url(#paint4_radial_3002_2)"/>
</g>
</g>
<defs>
<filter id="filter0_d_3002_2" x="209.099" y="142.686" width="180.915" height="203.256" filterUnits="userSpaceOnUse" color-interpolation-filters="sRGB">
<feFlood flood-opacity="0" result="BackgroundImageFix"/>
<feColorMatrix in="SourceAlpha" type="matrix" values="0 0 0 0 0 0 0 0 0 0 0 0 0 0 0 0 0 0 127 0" result="hardAlpha"/>
<feOffset dx="-18.7819" dy="9.39095"/>
<feGaussianBlur stdDeviation="17.2167"/>
<feColorMatrix type="matrix" values="0 0 0 0 0 0 0 0 0 0 0 0 0 0 0 0 0 0 0.165981 0"/>
<feBlend mode="normal" in2="BackgroundImageFix" result="effect1_dropShadow_3002_2"/>
<feBlend mode="normal" in="SourceGraphic" in2="effect1_dropShadow_3002_2" result="shape"/>
</filter>
<filter id="filter1_d_3002_2" x="50.2491" y="25.5132" width="335.132" height="369.95" filterUnits="userSpaceOnUse" color-interpolation-filters="sRGB">
<feFlood flood-opacity="0" result="BackgroundImageFix"/>
<feColorMatrix in="SourceAlpha" type="matrix" values="0 0 0 0 0 0 0 0 0 0 0 0 0 0 0 0 0 0 127 0" result="hardAlpha"/>
<feOffset dx="6.26063" dy="25.0425"/>
<feGaussianBlur stdDeviation="23.4774"/>
<feColorMatrix type="matrix" values="0 0 0 0 0 0 0 0 0 0 0 0 0 0 0 0 0 0 0.65281 0"/>
<feBlend mode="normal" in2="BackgroundImageFix" result="effect1_dropShadow_3002_2"/>
<feBlend mode="normal" in="SourceGraphic" in2="effect1_dropShadow_3002_2" result="shape"/>
</filter>
<filter id="filter2_d_3002_2" x="10.971" y="259.996" width="177.819" height="194.758" filterUnits="userSpaceOnUse" color-interpolation-filters="sRGB">
<feFlood flood-opacity="0" result="BackgroundImageFix"/>
<feColorMatrix in="SourceAlpha" type="matrix" values="0 0 0 0 0 0 0 0 0 0 0 0 0 0 0 0 0 0 127 0" result="hardAlpha"/>
<feOffset dx="-9.39095" dy="9.39095"/>
<feGaussianBlur stdDeviation="18.7819"/>
<feColorMatrix type="matrix" values="0 0 0 0 1 0 0 0 0 0.0945956 0 0 0 0 0.719394 0 0 0 0.630555 0"/>
<feBlend mode="normal" in2="BackgroundImageFix" result="effect1_dropShadow_3002_2"/>
<feBlend mode="normal" in="SourceGraphic" in2="effect1_dropShadow_3002_2" result="shape"/>
</filter>
<linearGradient id="paint0_linear_3002_2" x1="262.314" y1="167.728" x2="262.314" y2="302.117" gradientUnits="userSpaceOnUse">
<stop stop-color="#FFF264"/>
<stop offset="1" stop-color="#FFB334"/>
</linearGradient>
<linearGradient id="paint1_linear_3002_2" x1="158.176" y1="39.9301" x2="144.683" y2="295.446" gradientUnits="userSpaceOnUse">
<stop stop-color="#FFFDF3" stop-opacity="0.282797"/>
<stop offset="0.382543" stop-color="#FEA6A6" stop-opacity="0.776647"/>
<stop offset="0.755261" stop-color="#FFCC8F" stop-opacity="0.536274"/>
<stop offset="1" stop-color="#FF80AE" stop-opacity="0.203274"/>
</linearGradient>
<linearGradient id="paint2_linear_3002_2" x1="265.799" y1="144.264" x2="274.986" y2="155.088" gradientUnits="userSpaceOnUse">
<stop stop-color="#F2F3FA"/>
<stop offset="1" stop-color="#FFF6D3"/>
</linearGradient>
<linearGradient id="paint3_linear_3002_2" x1="217.254" y1="186.505" x2="175.867" y2="245.612" gradientUnits="userSpaceOnUse">
<stop stop-color="#C5C6CD"/>
<stop offset="1" stop-color="#565D72"/>
</linearGradient>
<radialGradient id="paint4_radial_3002_2" cx="0" cy="0" r="1" gradientUnits="userSpaceOnUse" gradientTransform="translate(57.05 401.002) rotate(-52.0101) scale(114.705 91.0568)">
<stop stop-color="#FF5555"/>
<stop offset="1" stop-color="#D800B9"/>
</radialGradient>
</defs>
</svg>
