<svg width="412" height="463" viewBox="0 0 412 463" fill="none" xmlns="http://www.w3.org/2000/svg">
<path d="M133.864 435.64C132.021 438.992 130.406 442.559 128.877 446.39C128.423 447.632 128.109 448.724 127.922 449.686L128.173 450.063C127.81 450.351 127.387 450.861 126.904 451.599C126.328 452.615 125.765 453.707 125.218 454.901C124.777 455.94 124.403 456.945 124.091 457.922L124.114 457.705C123.614 458.386 123.162 459.277 122.752 460.437C122.666 460.602 122.596 460.899 122.54 461.33C122.485 461.755 122.602 461.841 122.897 461.58L122.729 462.284L123.886 459.761C123.932 459.853 123.994 459.915 124.088 459.915L124.935 458.585C125.187 457.97 125.438 457.358 125.689 456.746C126.627 454.475 128.404 451.822 128.199 450.102L128.35 449.926L128.274 449.985C130.465 446.594 132.686 442.972 134.826 438.96C136.981 434.958 138.973 430.544 140.877 425.775C140.985 425.576 141.042 425.267 141.048 424.851C141.053 424.439 140.843 424.433 140.42 424.83C138.123 427.599 136.029 431.927 133.864 435.64Z" fill="#81F32A"/>
<path d="M166.113 372.95C165.275 374.714 164.171 376.485 163.217 378.25C162.74 379.132 162.301 380.013 161.951 380.889C161.871 381.103 161.79 381.32 161.707 381.545C161.615 381.79 161.61 381.905 161.425 382.324C161.134 383.034 160.875 383.738 160.655 384.435L161.123 384.65C161.497 384.23 161.861 383.805 162.215 383.376C162.395 383.154 162.57 382.939 162.739 382.73C162.851 382.61 162.959 382.493 163.065 382.38C163.484 381.919 163.865 381.447 164.215 380.965C164.914 380.001 165.488 378.996 165.984 377.966C166.976 375.907 167.659 373.745 168.421 371.605C168.428 370.992 168.15 370.847 167.621 371.112C167.085 371.63 166.582 372.24 166.113 372.95Z" fill="#81F32A"/>
<path d="M148.735 407.456C148.149 408.399 147.573 409.37 147.009 410.387C146.443 411.403 145.884 412.428 145.344 413.479C144.797 414.539 144.265 415.613 143.765 416.7C143.407 417.506 143.081 418.302 142.774 419.091L142.325 419.73L141.813 421.306C141.854 421.415 141.877 421.559 141.911 421.68C141.799 422.086 141.694 422.486 141.617 422.856L141.676 423.663L142.466 422.855C144.201 420.319 145.597 417.51 146.866 414.706C148.139 411.895 149.286 409.084 150.611 406.37C150.959 405.307 150.919 404.885 150.442 405.183C149.895 405.791 149.327 406.542 148.735 407.456Z" fill="#81F32A"/>
<path d="M158.387 389.331L158.038 389.577C157.701 389.992 157.381 390.429 157.053 390.856C156.39 391.866 155.749 392.923 155.128 394.05C154.222 395.752 153.437 397.417 152.836 399.071C152.767 399.313 152.71 399.537 152.667 399.743L152.665 399.607C152.161 400.169 151.732 400.908 151.368 401.844L151.462 402.406C151.554 402.623 151.638 402.854 151.714 403.1L152.73 401.012L153.393 400.478C153.706 399.981 154.014 399.492 154.326 398.997C154.914 397.926 155.496 396.866 156.081 395.801C156.655 394.721 157.147 393.662 157.553 392.63L158.721 390.046C159.386 388.997 160.109 387.909 160.601 386.961C161.081 386.021 161.419 385.172 161.147 384.704C159.843 386.048 159.081 387.552 158.387 389.331Z" fill="#81F32A"/>
<path d="M161.146 384.704C161.215 384.631 161.273 384.569 161.347 384.491L161.122 384.652L161.146 384.704Z" fill="#81F32A"/>
<path d="M248.94 249.665C249.03 249.816 249.161 249.913 249.332 249.955C249.554 249.585 250 248.96 249.962 248.888C249.743 248.481 249.323 249.078 248.94 249.665Z" fill="#81F32A"/>
<path d="M387.981 33.384C387.935 33.442 387.89 33.488 387.844 33.532L387.854 33.528C390.575 31.273 392.829 27.759 395.793 26.066C396.32 25.908 396.568 26.072 396.542 26.552C394.69 29.535 392.513 32.3 390.206 34.997C387.896 37.691 385.387 40.26 382.77 42.762L381.809 44.182C381.495 44.751 381.082 45.274 380.551 45.746L380.504 45.715C380.154 46.236 379.74 46.651 379.259 46.954C377.43 50.285 375.445 53.599 372.45 56.833C372.199 57.363 371.915 57.901 371.604 58.448L371.52 58.57L371.621 58.496L371.666 58.601C371.868 58.058 372.248 57.574 372.819 57.156L374.561 56.329L374.541 56.518L374.555 56.509L374.561 56.329C377.548 53.661 379.689 49.485 383.167 47.696C383.571 47.309 383.98 46.946 384.395 46.609C384.534 46.704 384.679 46.791 384.831 46.87C384.78 47.141 384.663 47.399 384.479 47.642C384.602 47.903 384.602 48.262 384.48 48.721C384.093 49.331 383.646 49.926 383.134 50.501C382.374 51.348 381.718 52.285 380.876 53.068L379.859 53.865C379.939 54.027 380.066 54.136 380.26 54.168C380.598 53.849 380.94 53.554 381.286 53.285C381.423 53.357 381.571 53.414 381.731 53.457L379.574 56.322C379.285 56.874 378.903 57.409 378.415 57.926L377.679 58.651L377.351 58.654L377.343 58.714C376.894 59.948 375.966 61.198 374.945 62.449C374.459 63.042 373.964 63.639 373.454 64.218L371.222 66.766C370.751 67.332 370.262 67.886 369.776 68.439L368.551 69.864C368.95 69.599 369.174 69.555 369.214 69.74C369.257 69.938 369.23 70.093 369.133 70.206L369.058 70.25C368.931 70.701 368.672 71.177 368.261 71.682C367.843 72.192 367.415 72.544 366.978 72.74L365.903 73.969C366.053 74.029 366.126 74.159 366.123 74.357C366.591 73.901 367.062 73.452 367.522 72.969C367.918 72.487 368.307 72.016 368.685 71.526C369.267 70.714 369.865 69.924 370.563 69.17C371.085 68.66 371.606 68.204 372.138 67.773C375.881 64.898 378.844 60.472 382.509 57.401C382.946 57.165 383.401 56.918 383.854 56.673L384.385 55.878C386.392 55.043 388.037 52.929 389.761 51.094C389.808 51.004 389.848 50.926 389.897 50.831L390.627 49.913L391.958 48.765C392.937 48.097 393.224 48.842 394.269 48.038L401.103 40.589C401.415 40.41 401.694 40.295 401.946 40.234C402.424 39.463 403.071 38.821 403.878 38.303L406.182 35.77C408.067 34.355 409.592 31.314 411.714 30.978C409.822 35.229 405.677 38.241 402.574 41.828C399.326 43.969 396.933 47.603 394.042 50.369C390.975 53.165 388.248 56.271 385.799 59.623C385.532 60.066 385.211 60.496 384.836 60.911L384.275 61.536C384.275 61.536 384.083 62.128 384.08 62.136C383.855 62.589 383.593 63.045 383.306 63.508L383.268 63.57L383.138 64.133L382.378 65.083L382.345 65.086L382.013 65.631C381.846 65.898 381.667 66.163 381.483 66.427C381.483 66.436 381.489 66.44 381.488 66.45C381.476 66.668 381.417 66.837 381.31 66.958C380.953 67.367 380.598 67.777 380.256 68.197L380.139 68.176L379.922 68.445C379.427 69.062 378.91 69.675 378.459 70.291C378.241 70.621 378.062 70.955 377.982 71.24C378.063 71.357 378.198 71.366 378.415 71.237C378.56 70.808 378.805 70.354 379.163 69.873C379.636 69.386 380.106 69.022 380.573 68.783L380.871 69.063C381.146 68.844 381.425 68.642 381.707 68.46C382.719 67.854 383.695 67.349 384.711 66.706C386.265 65.524 387.711 63.739 389.214 62.29C389.015 62.281 388.829 62.167 388.662 61.903C390.813 59.628 392.782 57.315 393.881 54.805C394.283 54.502 394.659 54.14 395.011 53.72C395.625 53.258 396.139 53.039 396.554 53.064C396.244 55.631 392.876 57.545 391.553 59.895C391.301 60.25 391.045 60.611 390.812 60.939C391.32 60.582 391.839 60.294 392.375 60.111C392.63 60.432 392.509 60.978 392.013 61.762C388.212 66.476 383.66 70.642 380.244 75.625C378.287 78.374 375.199 80.348 373.736 83.435L373.215 84.327C372.767 84.755 372.36 85.017 371.988 85.144L371.288 85.966C371.007 86.152 370.838 86.202 370.771 86.131C370.684 86.316 370.587 86.505 370.47 86.702C369.952 87.508 369.362 88.294 368.769 89.079L368.341 89.7C368.739 89.611 368.754 89.88 368.385 90.508L368.409 90.373L367.386 91.841L367.32 91.538C367.151 91.681 367.021 91.777 366.908 91.85C366.618 92.288 366.314 92.722 365.99 93.155C365.559 93.705 365.113 94.242 364.658 94.776L363.277 96.378C362.058 98.042 360.173 99.088 359.268 101.039C356.184 106.401 351.681 111.052 347.678 115.954C345.858 118.492 343.913 120.822 341.537 122.438L341.345 122.389L340.938 123.88C338.444 126.002 335.859 128.056 334.533 131.13C334.685 130.969 334.835 130.808 334.989 130.645C336.749 128.961 338.405 126.654 340.304 125.805C340.786 126.97 339.71 128.747 338.267 130.667L334.949 134.686C327.607 143.598 320.207 152.462 313.009 161.49L298.893 178.939C298.979 180.574 297.209 181.949 296.034 183.407L288.543 192.932L285.55 197.122C285.21 197.874 285.371 198.321 285.071 199.049C284.775 199.554 284.437 200.047 284.066 200.532C283.714 201.029 283.427 201.523 283.208 202.015C281.474 203.459 279.951 205.156 278.516 206.954C277.101 208.768 275.777 210.687 274.41 212.557C274.149 213.205 273.816 213.594 273.422 213.762C273.275 214.199 273.05 214.665 272.749 215.157C272.55 215.534 272.331 215.908 272.103 216.279C272.253 216.122 272.454 216.008 272.715 215.941L272.694 215.85C273.065 216.1 272.983 216.583 272.183 217.436C272.039 217.353 271.911 217.25 271.798 217.127C271.801 216.928 271.836 216.756 271.897 216.604C271.362 217.447 270.777 218.278 270.182 219.106C269.561 220.026 268.877 220.911 268.191 221.784C267.769 222.335 267.342 222.892 266.921 223.443C266.116 224.518 265.387 225.632 264.631 226.733C264.229 227.269 263.798 227.757 263.336 228.19C261.266 231.085 258.162 233.578 257.333 236.949C257.312 237.358 257.09 237.801 256.67 238.28C256.079 238.884 255.499 239.515 254.95 240.209L254.411 240.898C251.262 245.078 248.223 249.308 245.249 253.567C242.282 257.83 239.34 262.095 236.544 266.447C230.919 275.13 225.286 283.785 219.556 292.419C219.197 293.561 218.497 294.475 217.592 295.253C214.931 299.978 211.854 304.473 208.705 308.932L203.979 315.619C202.456 317.876 200.96 320.146 199.533 322.453C197.905 327.491 193.801 332.069 191.109 337.017C188.622 341.481 186.029 346.01 183.303 350.507C180.599 355.013 177.862 359.533 175.401 364.108C174.321 366.096 172.938 368.905 171.511 367.911C171.131 368.067 170.789 368.133 170.476 368.122C170.455 368.115 170.439 368.1 170.42 368.091C170.256 368.27 170.089 368.434 169.919 368.582C169.8 368.538 169.688 368.484 169.581 368.419L170.063 367.637C170.039 367.549 170.024 367.451 170.017 367.34C170.109 366.814 170.292 366.247 170.545 365.65C170.817 365.061 171.124 364.474 171.451 363.895C171.76 363.321 172.124 362.766 172.476 362.212L173.509 360.569L174.485 358.924C174.928 358.09 175.374 357.252 175.818 356.415C176.135 355.851 176.48 355.303 176.845 354.767L177.281 354.092C177.466 353.684 177.696 353.281 177.972 352.884L178.039 352.814C178.294 352.357 178.539 351.896 178.767 351.427C179.071 350.799 179.398 350.188 179.745 349.565C180.888 347.587 181.864 345.639 182.483 343.729C182.691 343.128 182.951 342.505 183.23 341.884C183.498 341.283 183.798 340.671 184.098 340.065L184.099 340.064L183.785 340.599L182.791 342.212C182.478 342.766 182.186 343.319 181.925 343.877C181.544 344.736 181.161 345.6 180.78 346.459C180.072 347.974 179.371 349.474 178.672 350.97C178.24 351.832 177.799 352.712 177.367 353.573C177.274 353.817 177.152 354.046 177.002 354.26L176.82 354.599C176.644 354.879 176.463 355.167 176.288 355.445C176.106 355.706 175.915 355.979 175.731 356.243C175.154 356.898 174.567 357.398 173.992 357.887C173.448 358.448 173.049 359.09 172.811 359.82C172.701 360.286 172.57 360.75 172.435 361.228C172.276 361.748 172.075 362.271 171.833 362.815C171.316 363.95 170.641 365.081 170.157 366.221C169.923 366.815 169.614 367.386 169.238 367.945C168.591 368.693 167.974 369.193 167.386 369.409C167.15 369.455 166.993 369.38 166.894 369.216C166.722 369.757 166.506 370.314 166.251 370.883C165.927 371.625 165.571 372.37 165.207 373.114C164.703 374.239 164.18 375.365 163.607 376.494C163.096 377.459 162.554 378.379 161.961 379.231C161.665 379.657 161.356 380.066 161.032 380.455C160.87 380.649 160.705 380.839 160.535 381.023C160.442 381.128 160.383 381.176 160.259 381.325C160.131 381.479 160.001 381.636 159.868 381.797C159.501 382.683 158.901 383.688 158.216 384.724C157.592 385.579 157.204 385.808 156.944 385.699C156.783 386.676 157.338 386.659 157.025 387.856C156.71 388.756 156.321 389.775 155.841 390.841C154.851 392.947 153.74 395.022 152.612 397.068C152.083 398.044 151.532 399.003 150.986 399.929C150.468 400.808 149.933 401.65 149.407 402.443C148.684 403.51 147.962 404.482 147.248 405.577C147.248 405.577 147.095 405.861 146.935 406.141C146.775 406.419 146.614 406.699 146.614 406.699C146.614 406.699 146.46 406.991 146.307 407.283C146.154 407.575 146.009 407.871 146.009 407.871L145.843 408.26L146.17 408.752L146.329 408.644C145.94 409.755 145.517 410.526 145.075 410.943C144.818 411.641 144.478 412.351 144.057 413.064L143.955 413.131C143.841 413.426 143.724 413.726 143.612 414.015C143.227 414.921 142.802 415.814 142.34 416.696C141.867 417.541 141.388 418.32 140.91 419.03C140.222 420.037 139.546 420.953 138.867 421.889C138.394 422.546 137.92 423.205 137.45 423.858C136.97 424.73 136.56 425.617 136.185 426.571C135.778 427.547 135.349 428.499 134.899 429.446C134.215 430.876 133.511 432.262 132.803 433.637C132.326 434.564 131.853 435.481 131.378 436.403C130.956 437.217 130.536 438.027 130.116 438.837C130.104 438.884 130.096 438.915 130.096 438.915L131.508 436.528L131.534 437.434C131.531 437.44 130.917 438.793 130.917 438.793L130.25 439.965L130.454 440.019L128.91 442.7L128.818 441.413C128.504 442.064 128.191 442.714 127.871 443.376C127.207 444.909 126.534 446.461 125.862 448.014C124.928 450.136 123.946 452.144 122.945 454.102L123.7 452.907C124.096 451.888 124.511 451.085 124.953 450.486L126.255 447.589C126.314 447.956 126.359 448.355 126.386 448.784L125.043 451.364L123.683 453.991L123.862 454.176C123.403 455.391 122.932 456.265 122.462 456.773L121.355 458.832L120.883 458.418C120.804 458.342 120.727 458.296 120.646 458.196L120.396 457.826L119.396 456.347C119.415 456.017 119.448 455.709 119.497 455.425C119.886 455.87 120.281 456.409 120.661 456.771C120.236 456.204 119.8 455.451 119.377 454.773C119.028 454.165 118.709 453.566 118.414 452.975C118.176 453.163 117.783 453.061 117.231 452.653C116.588 452.126 115.872 451.406 115.103 450.539C115.336 451.211 115.416 451.682 115.332 451.939C115.337 451.946 115.068 452.107 115.068 452.107L114.457 451.593L107.705 442.144C106.253 440.452 105.007 438.774 104.603 437.316C102.555 435.376 100.356 432.514 98.1439 428.723C97.0849 426.845 96.8599 425.611 96.0129 423.913C90.8949 418.296 85.4689 411.232 80.0129 403.909C77.2599 400.191 74.5129 396.48 71.7609 392.763C70.3729 390.908 68.9839 389.052 67.5899 387.189C66.7529 386.149 65.9089 385.121 65.0539 384.115C62.5809 381.202 60.1939 378.1 57.7679 375.085C57.2209 374.738 56.8929 374.243 56.7549 373.619L41.1159 354.813L35.5839 348.057C34.0489 344.593 31.1329 342.781 29.2409 339.744L27.2559 336.884C25.0759 334.16 22.3849 332.222 20.7199 328.703L19.7309 327.271L18.7229 325.814L8.04692 314.152C4.01592 311.106 2.20393 308.769 1.64793 303.598C0.995926 297.53 2.31492 294.603 6.08292 294.16C4.60292 291.869 3.67092 289.729 3.28892 287.74C0.0489247 282.723 0.0479219 282.722 3.27992 283.268C4.23792 283.43 4.01192 282.285 3.58392 281.163C0.327923 272.63 7.03092 276.594 8.37492 273.841C8.63492 273.31 9.52393 274.171 10.2709 275.275C11.1209 276.533 11.8129 277.632 11.1649 278.137C10.1339 278.94 10.3959 281.203 12.0379 283.431C13.8109 285.838 14.4869 283.935 15.9369 284.484C18.5809 285.486 20.3829 284.061 21.2529 282.866C23.2409 280.136 26.6309 282.904 30.5369 285.984C30.8099 286.064 31.1059 286.227 31.4179 286.465C31.7529 286.775 31.9639 286.813 32.0049 286.529C31.9659 286.48 31.5479 285.946 31.5479 285.946L31.1699 285.373C28.4739 282.031 25.8809 276.392 22.9839 277.948C22.4469 278.236 21.0199 276.115 20.6409 275.108C19.7779 272.815 18.7059 270.077 20.2249 269.839C21.5699 269.628 21.2509 266.151 24.4329 269.527C29.2249 274.611 32.8809 275.47 36.8189 277.284C37.8759 277.857 38.9299 278.388 40.0739 279.891C40.3699 280.251 40.6549 280.629 40.9339 281.009C41.3589 281.275 41.6729 281.683 41.8549 282.259V282.298L41.8789 282.332L42.6039 282.988L42.7939 283.346C42.7829 283.13 42.8569 283.055 43.0209 283.13C43.2299 283.225 43.3849 283.347 43.4879 283.496C43.7649 283.796 44.0129 284.129 44.2449 284.479L44.3889 284.504L44.6069 284.827C44.7169 284.822 44.8259 284.814 44.9289 284.792C45.1889 284.733 45.4759 284.744 45.7959 284.802C45.9729 284.861 46.1569 284.948 46.3449 285.053L45.6059 283.931L45.4699 283.113L45.7249 283.259C45.4199 282.887 45.1899 282.473 45.0469 282.009L45.1929 282.09L45.2309 282.067C45.0259 281.971 44.8029 281.824 44.5609 281.621C44.0789 281.079 43.6859 280.486 43.3699 279.848L43.3679 279.302C43.2679 279.334 43.1489 279.339 42.9919 279.289C42.5539 279.055 42.1089 278.672 41.6599 278.141C40.5309 276.256 39.2089 275.547 37.9639 274.374C38.7459 271.778 39.1659 272.108 43.6519 278.849C44.0139 279.214 44.3609 279.615 44.6949 280.05C45.1679 280.38 45.5429 280.846 45.8309 281.437L45.8879 281.424L45.8419 281.344C45.6139 280.829 45.5169 280.394 45.5289 280.029C47.1959 276.42 50.3019 284.407 52.5459 285.456L55.5789 289.699L56.1209 290.492C56.4709 291.043 56.7709 291.593 57.0239 292.15C57.2509 292.71 57.3939 293.221 57.4579 293.691C57.4909 294.144 57.4689 294.544 57.4209 294.923C57.3429 295.517 57.1469 295.959 56.6249 295.985C56.5219 295.931 56.4199 295.866 56.3169 295.796C56.5619 296.096 56.8039 296.406 57.0419 296.727C57.4459 297.242 57.8489 297.795 58.2359 298.329C58.7669 299.011 59.3109 299.703 59.8939 300.252C60.2549 300.521 60.4269 300.459 60.5699 300.344L59.9509 299.45L60.3409 299.183L60.9789 300.107C61.3589 300.215 61.7619 300.466 62.2169 300.886C62.6949 301.368 63.1449 301.883 63.5909 302.438C64.5119 303.62 65.3659 304.842 66.1739 306.103C67.5869 308.404 68.8009 310.686 69.6099 312.919C69.6769 313.173 69.7099 313.397 69.7169 313.599L71.3539 314.664C71.7759 315.06 72.1799 315.508 72.5639 316.017L73.6459 317.585C73.8689 317.939 74.0339 318.276 74.1509 318.598L74.1499 318.589L74.8289 318.833L76.7659 321.364C78.5939 321.276 79.9809 326.465 81.8209 326.229C82.2289 325.398 83.2209 326.416 84.2199 327.451C84.6209 327.913 85.0049 328.404 85.3799 328.906C85.6419 329.237 85.8949 329.577 86.1329 329.933L86.0829 329.733C86.5729 330.144 86.9289 330.645 87.1309 331.252C87.1509 331.348 87.1629 331.434 87.1669 331.51C87.4339 331.937 87.6909 332.366 87.9289 332.8C88.0989 333.144 88.2339 333.474 88.3419 333.792C88.4209 333.802 88.4939 333.801 88.5779 333.82C88.9679 333.991 89.3819 334.278 89.8109 334.65C90.2249 335.057 90.6309 335.511 91.0199 335.989C91.3889 336.457 91.7589 336.926 92.1239 337.389C92.6659 338.038 93.2239 338.651 93.7939 339.213C94.1649 339.569 94.5279 339.963 94.8829 340.371C95.2149 340.72 95.5509 341.052 95.8899 341.342L95.3099 340.573L96.0189 341.058C96.0789 340.914 96.1599 340.794 96.2689 340.706C96.5969 340.63 97.0129 340.758 97.5109 341.085L98.2199 341.955L98.2249 342.383C98.3319 342.444 98.4389 342.506 98.5499 342.581C98.9729 342.917 99.3869 343.314 99.8009 343.764C100.418 344.465 101.01 345.206 101.609 345.936L101.995 346.366C101.713 345.961 101.443 345.55 101.197 345.127C100.892 344.556 100.669 344.01 100.522 343.489C100.507 343.349 100.517 343.244 100.541 343.158L99.8659 342.729L99.5439 341.842C99.7179 341.742 99.8949 341.647 100.076 341.557L101.044 342.96L103.117 345.568C103.577 345.992 104.012 346.485 104.421 347.046L104.986 347.905L105.384 348.774C105.357 349.18 105.182 349.396 104.863 349.423C104.727 349.345 104.591 349.249 104.455 349.144C104.761 349.516 105.061 349.898 105.357 350.289C105.766 350.817 106.156 351.36 106.543 351.906C107.071 352.627 107.606 353.34 108.16 354.034C107.994 353.798 107.833 353.558 107.678 353.312C107.319 352.682 107.054 352.075 106.865 351.487C106.842 350.98 107.065 350.845 107.571 351.141L109.679 353.765C110.166 354.227 110.624 354.757 111.048 355.365L111.621 356.292L111.687 356.509L111.72 356.617C111.716 356.632 111.707 356.639 111.701 356.651L111.622 356.78C111.396 356.976 111.16 357.137 110.904 357.246C110.861 357.225 110.875 357.28 110.791 357.191L110.543 356.919L110.741 357.21C110.784 357.274 110.788 357.287 110.788 357.287L110.799 357.315C110.812 357.353 110.82 357.395 110.824 357.44C110.831 357.529 110.82 357.631 110.794 357.747L110.84 357.724C111 357.714 111.127 357.732 111.227 357.779C111.322 357.832 111.398 357.899 111.466 357.976C111.544 358.045 111.607 358.126 111.67 358.21C111.743 358.287 111.803 358.376 111.863 358.468C111.93 358.557 111.982 358.662 112.031 358.777L112.056 358.856C112.063 358.859 112.074 358.855 112.078 358.861C112.166 358.876 112.256 358.882 112.347 358.878L112.642 359.326C112.797 359.232 112.898 359.24 112.961 359.349C113.058 359.503 113.188 359.561 113.101 360.122L113.092 360.134C113.061 360.357 113.009 360.591 112.938 360.83C112.966 360.856 112.961 360.966 112.921 361.177L112.973 361.229C112.885 361.933 113.138 361.937 113.165 362.47C113.121 362.841 113.05 363.204 112.945 363.551C112.765 364.016 112.566 364.323 112.347 364.55C112.124 364.773 111.906 364.799 111.687 364.761C111.594 364.686 111.549 364.543 111.551 364.345C111.447 364.449 111.341 364.52 111.232 364.554C111.131 364.548 111.03 364.527 110.93 364.496L110.928 364.559L110.803 364.875L110.804 364.894C110.812 365.296 110.794 365.741 110.862 366.13C110.936 366.318 111.025 366.478 111.136 366.579L111.203 366.625C111.212 366.46 111.248 366.29 111.336 366.102C111.383 365.896 111.44 365.701 111.505 365.515C111.82 365.158 111.985 365.357 112.113 365.85L112.123 366.071C112.132 366.007 112.14 365.954 112.14 365.954C112.285 365.994 112.369 366.191 112.406 366.565C112.405 366.99 112.329 367.306 112.177 367.507L112.013 367.296L111.984 367.395L112.101 367.557L112.15 367.609L112.177 367.507L112.406 367.424L112.446 367.721C112.473 367.457 112.52 367.21 112.591 366.979C112.625 366.904 112.656 366.834 112.688 366.764L112.645 366.563C112.671 366.179 112.731 365.823 112.819 365.485C112.922 365.182 113.034 364.963 113.152 364.834C113.258 364.885 113.32 365.081 113.353 365.415C113.355 365.701 113.326 365.953 113.268 366.168L113.35 366.222C113.442 366.457 113.491 366.796 113.495 367.255C113.482 367.483 113.462 367.693 113.435 367.885C113.471 367.867 113.506 367.851 113.541 367.822L113.638 367.684L113.685 367.399C113.725 367.393 113.761 367.413 113.794 367.449L113.986 367.151C114.091 367.066 114.191 367.041 114.289 367.07C114.437 367.139 114.574 367.293 114.71 367.494C114.799 367.615 114.885 367.781 114.971 367.968C115.052 368.152 115.132 368.386 115.21 368.648L115.238 368.747C115.246 368.576 115.266 368.426 115.299 368.296C115.367 368.215 115.425 368.293 115.48 368.526C115.487 368.405 115.495 368.343 115.505 368.357C115.619 368.026 115.73 367.927 115.849 368.011C115.909 368.053 115.97 368.141 116.035 368.268C116.099 368.391 116.171 368.624 116.225 368.541C116.235 368.55 116.245 368.56 116.253 368.575C116.31 368.643 116.366 368.769 116.421 368.945V368.943C116.483 368.549 116.557 368.475 116.655 368.696C116.744 369.041 116.789 369.481 116.779 370.036L116.875 369.849C117.029 369.535 117.184 369.235 117.332 368.887L117.538 368.253C117.621 367.862 117.705 367.47 117.788 367.076C117.898 366.545 118.028 366.158 118.174 365.831C118.242 365.656 118.318 365.513 118.396 365.378C118.505 365.166 118.622 364.981 118.737 364.791C118.803 364.649 118.887 364.533 118.964 364.414L119.165 363.994C119.238 363.725 119.284 363.416 119.308 363.086C119.327 362.864 119.361 362.677 119.404 362.508C119.449 362.34 119.506 362.199 119.569 362.068C119.627 361.928 119.694 361.807 119.763 361.689C119.823 361.555 119.893 361.438 119.961 361.317L120.132 360.904C120.166 360.732 120.202 360.568 120.226 360.395C120.239 360.094 120.245 359.807 120.27 359.545C120.33 359.088 120.48 358.753 120.64 358.419C120.699 358.273 120.773 358.143 120.851 358.014C120.924 357.857 120.929 357.854 120.982 357.774C120.905 357.927 121.355 357.2 121.598 356.792C121.877 356.326 122.146 355.859 122.407 355.391C122.928 354.456 123.414 353.517 123.877 352.577C124.803 350.696 125.637 348.805 126.467 346.913C126.704 346.384 126.969 345.858 127.245 345.33C127.135 345.325 127.033 345.302 126.947 345.241C126.804 344.912 126.778 344.464 126.883 343.881C127.157 342.922 127.614 341.928 128.157 340.915C128.513 340.244 128.896 339.584 129.289 338.925C129.679 338.259 130.076 337.594 130.506 336.957C131.387 335.657 132.292 334.412 133.33 333.514C133.695 333.277 133.919 333.263 134.002 333.467C134.06 333.611 134.079 333.73 134.061 333.826C134.094 333.744 134.123 333.67 134.157 333.586C134.423 332.943 134.736 332.284 135.064 331.632C135.389 331.004 135.762 330.377 136.153 329.767C136.54 329.189 136.957 328.634 137.383 328.109C137.876 327.519 138.367 326.914 138.832 326.261C138.693 326.228 138.555 326.194 138.409 326.173L137.467 327.665L137.393 327.365L136.719 327.738L136.715 327.028C136.967 326.497 137.246 326.13 137.55 325.91C137.819 325.025 138.42 324.088 138.842 323.178C139.196 322.508 139.613 321.883 140.08 321.296C140.549 320.731 141.026 320.215 141.511 319.755L142.671 318.297C142.792 318.411 142.921 318.515 143.057 318.607C142.418 320.505 139.972 322.555 139.993 324.396C140.271 323.938 140.555 323.483 140.854 323.033C143.171 319.94 144.898 316.708 146.352 313.395C146.699 312.702 147.114 312.048 147.551 311.389C148.23 310.426 148.937 309.493 149.63 308.542C150.082 307.885 150.53 307.232 150.981 306.576C154.291 301.872 157.227 297.087 159.528 292.124C159.822 291.535 160.148 290.953 160.487 290.371L159.816 291.336L159.741 291.01L159.054 291.28L159.17 290.434C159.945 289.028 160.898 287.715 161.799 286.373C162.18 285.807 162.568 285.434 162.95 285.211C162.927 285.122 162.933 285.045 162.977 284.982C163.425 284.023 163.988 283.133 164.766 282.374C165.258 282.06 165.573 282.062 165.68 282.431L163.826 285.512L163.719 285.23C163.249 286.016 162.77 286.794 162.316 287.594C162.85 286.85 163.427 286.176 164.012 285.521C168.844 279.166 173.485 272.727 177.289 265.808C178.58 263.802 179.921 261.815 181.308 259.862L185.534 254.054C188.34 250.177 191.066 246.262 193.386 242.137C195.72 238.672 198.218 235.286 200.713 231.917C203.222 228.561 205.678 225.175 207.839 221.621L208.002 221.341C207.139 222.081 206.228 223.169 205.402 223.633C204.834 222.296 207.22 220.589 207.799 219.108C209.585 216.628 210.922 213.126 213.594 212.647C212.865 214.105 212.704 215.492 211.27 217.037C214.18 215.082 216.755 212.063 219.261 208.664C225.354 200.498 231.569 192.434 237.721 184.316C238.743 181.657 240.822 179.321 242.734 176.965L245.796 172.757C246.906 170.74 248.466 168.993 249.976 167.217C251.154 165.901 252.305 164.564 253.433 163.209L255.582 160.319L258.744 156.468C259.875 154.952 260.984 153.418 262.066 151.862C262.852 150.658 263.781 149.547 264.689 148.418L273.1 137.98L281.73 127.271C284.373 124.095 286.812 120.715 289.712 117.778C289.84 117.779 289.957 117.781 290.08 117.782L308.883 94.683L310.201 93.478L309.894 93.472L313.561 89.497L314.467 88.051L317.721 84.419C318.528 83.361 319.315 82.292 320.095 81.218C320.789 80.225 321.539 79.306 322.462 78.614C327.325 74.709 331.208 69.408 335.494 64.614C337.89 61.907 340.118 58.906 342.94 56.941C345.131 53.425 348.703 50.599 350.819 47.043C354.764 41.519 359.698 37.854 364.337 33.695C364.529 33.168 364.867 32.637 365.372 32.099C366.134 31.381 366.909 30.652 367.68 29.927C368.479 29.133 369.285 28.381 370.121 27.713L370.151 27.693C370.132 27.665 370.123 27.626 370.132 27.568C370.171 27.325 370.257 27.127 370.393 26.974L371.554 25.552C371.802 25.029 372.145 24.508 372.598 23.988L373.935 22.475L375.958 20.21C376.426 19.696 376.918 19.312 377.405 19.055L377.32 19.352C377.177 20.808 374.063 23.68 375.286 24.528L375.088 25.308C374.413 26.465 373.598 27.382 372.624 28.023C372.859 27.974 373.068 27.967 373.252 27.997L374.891 26.363L376.101 24.948C376.196 25.077 376.304 25.192 376.423 25.293L375.238 26.714C374.935 27.154 374.631 27.597 374.322 28.046L373.877 28.528C373.886 28.547 373.9 28.56 373.908 28.58C373.903 28.736 373.883 28.903 373.856 29.074C375.285 28.113 376.934 26.74 377.052 28.278C376.79 28.895 376.424 29.538 375.953 30.194C374.684 31.724 373.416 33.269 371.988 34.672C373.141 33.634 374.084 32.36 375.157 31.223C377.169 29.107 378.822 26.637 381.035 24.726C381.667 24.2 382.287 23.826 382.875 23.556L383.4 23.738C383.447 24.174 383.315 24.721 383.014 25.369C382.725 25.941 382.399 26.533 382.028 27.123C382.335 27.083 382.58 27.13 382.757 27.274C382.898 27.511 382.933 27.841 382.888 28.237C382.746 28.872 382.474 29.569 382.061 30.326C381.63 31.055 381.107 31.779 380.551 32.496C380.192 32.954 379.815 33.41 379.433 33.86L378.866 34.535C378.358 35.658 377.294 36.949 376.772 38.076C379.166 35.981 381.456 33.284 383.954 31.854C390.058 28.722 395.122 21.497 400.82 16.772C400.967 16.883 401.118 16.99 401.273 17.091C400.323 19.339 397.724 21.067 396.479 23.215C394.707 25.924 392.16 28.296 390.189 30.913C389.516 31.805 388.806 32.661 387.981 33.384ZM12.0839 295.661C12.0519 295.579 12.0169 295.49 11.9839 295.404C11.9009 295.377 11.8189 295.355 11.7329 295.32C11.8499 295.442 11.9669 295.555 12.0839 295.661ZM53.4069 292.634C52.5839 291.605 51.7959 290.529 51.0499 289.394C50.6179 288.724 50.2379 288.05 49.8909 287.369C49.5759 286.68 49.3859 286.057 49.2939 285.482L49.3169 285.41L49.0079 285.455C48.6109 285.136 48.2209 284.752 47.8379 284.301C47.5649 283.966 47.3039 283.617 47.0489 283.262C46.9889 283.25 46.9179 283.221 46.8449 283.187L46.8839 283.938L46.6129 283.876C46.8809 284.159 47.0529 284.505 47.1239 284.917L47.2239 284.994L46.7279 285.303C46.8179 285.364 46.9029 285.412 46.9949 285.481C47.4479 285.882 47.8849 286.328 48.3199 286.827C48.7639 287.339 49.1909 287.867 49.6229 288.412C50.0909 288.973 50.5459 289.518 51.0119 290.076C51.7939 290.982 52.6009 291.809 53.4069 292.634ZM73.0579 318.733L72.6579 318.186L71.6899 316.789L71.2729 316.047L70.7299 315.386L69.7169 313.696C69.7149 313.9 69.6819 314.076 69.6159 314.221C69.1219 314.272 68.5339 313.764 67.9429 313.018C67.9879 313.085 67.7279 312.482 67.7279 312.482C67.7279 312.482 67.6419 312.841 67.6569 312.86C68.0259 313.155 68.3459 313.52 68.6419 313.984C68.9979 314.398 69.3499 314.777 69.7139 315.128C70.2749 315.689 70.8319 316.245 71.3939 316.806C71.7819 317.199 72.1559 317.626 72.5249 318.071C72.7039 318.294 72.8809 318.514 73.0579 318.733ZM80.3949 327.857L79.8889 327.116C79.5169 326.576 79.1489 326.043 78.7759 325.502C78.4789 325.073 78.1989 324.641 77.9219 324.206L76.2399 322.14C75.7059 321.652 75.2239 321.065 74.7859 320.392L74.4129 319.732C74.3869 319.78 74.3409 319.798 74.2539 319.751C74.0329 319.632 73.8569 319.479 73.7249 319.288L73.6919 319.546C74.0369 319.966 74.3789 320.381 74.7249 320.802L76.4889 322.722C77.2919 323.621 78.0369 324.596 78.7579 325.603C79.1169 326.086 79.4639 326.584 79.8079 327.077L80.3949 327.857ZM116.765 370.061L116.571 370.203C116.568 370.303 116.565 370.396 116.562 370.487L116.646 370.322L116.765 370.061ZM133.993 333.993C133.391 335.314 132.466 336.597 131.576 337.885C130.706 339.193 129.885 340.519 129.454 341.878C130.398 340.626 131.246 339.331 132.007 338.018C132.784 336.72 133.453 335.381 133.993 333.993ZM186.379 335.318C186.216 335.514 186.104 335.735 186.044 335.981L186.379 335.318ZM202.521 309.28C200.634 312.069 198.058 314.659 197.076 317.759C197.972 316.752 198.812 316.064 199.493 316.238C199.546 316.229 199.587 316.222 199.637 316.213C199.615 315.969 199.534 315.758 199.37 315.593C200.02 313.813 201.104 312.173 202.403 310.611L202.626 310.391C202.431 310.173 202.419 309.781 202.521 309.28ZM191.069 250.461L191.013 250.555L191.064 250.538L191.069 250.461ZM362.528 76.554L361.962 77.08C361.068 77.873 360.136 78.415 359.264 79.4C358.892 79.819 358.527 80.243 358.177 80.677L358.062 80.859C358.626 80.236 359.213 79.655 359.824 79.122C360.56 78.511 361.276 78.048 361.975 77.657L362.562 77.319L362.433 77.144L362.528 76.554ZM359.807 72.422L359.306 72.868C358.793 73.332 358.282 73.754 357.773 74.128C357.907 74.301 357.919 74.585 357.778 75.009C357.736 75.093 357.696 75.173 357.655 75.254C357.815 75.039 357.976 74.824 358.141 74.604C358.464 74.116 358.816 73.638 359.187 73.161C359.388 72.91 359.595 72.665 359.807 72.422ZM365.751 73.085L364.614 74.365L364.671 74.333C364.832 74.156 365.003 73.987 365.189 73.831L365.751 73.085ZM387.402 33.828C387.143 33.947 386.883 34.032 386.604 34.396C386.84 34.425 387.125 34.091 387.402 33.828Z" fill="#81F32A"/>
<path d="M401.724 0.743011L395.688 7.33101L395.66 7.69801L386.273 17.775C389.403 16.729 391.344 12.587 394.08 10.517L396.278 7.75302L401.229 2.67201L402.987 0.286011L401.724 0.743011Z" fill="#81F32A"/>
<path d="M344.157 122.11L343.845 121.848L341.564 124.252C342.484 124.712 343.312 123.227 344.157 122.11Z" fill="#81F32A"/>
<path d="M95.9291 338.071C96.1241 338.668 96.4211 339.277 96.8381 339.899C97.3071 340.473 97.7781 340.899 98.2501 341.175C98.6101 341.165 98.7711 340.905 98.7601 340.428C98.4541 339.768 98.0401 339.23 97.5311 338.795L94.6661 334.917C94.1141 335.626 95.4491 336.999 95.9291 338.071Z" fill="#81F32A"/>
<path d="M111.793 358.023C111.826 358.151 111.883 358.259 111.968 358.33C112.113 358.422 112.305 358.423 112.584 358.199C112.785 357.959 112.953 357.69 113.1 357.41L113.126 357.179L112.933 357.252L112.444 356.916C112.438 356.907 112.365 356.967 112.225 357.095C112.09 357.219 111.976 357.355 111.891 357.507C111.813 357.702 111.777 357.879 111.793 358.023Z" fill="#81F32A"/>
<path d="M113.343 358.914C113.422 358.935 113.522 358.879 113.638 358.744C113.647 358.755 113.691 358.666 113.771 358.476C113.848 358.292 113.902 358.098 113.94 357.902L114.063 357.627C113.936 357.575 113.803 357.513 113.663 357.441C113.658 357.434 113.606 357.522 113.507 357.707C113.412 357.885 113.334 358.066 113.281 358.256C113.208 358.614 113.245 358.828 113.343 358.914Z" fill="#81F32A"/>
<path d="M89.2737 330.206C89.6757 330.732 90.0937 331.161 90.5277 331.49L91.0097 331.52L90.9197 330.844L88.9877 328.071C88.5877 327.93 88.4167 328.099 88.4757 328.578C88.6527 329.109 88.9137 329.652 89.2737 330.206Z" fill="#81F32A"/>
<path d="M85.0208 325.275C85.5868 325.876 86.0678 326.161 86.4648 326.128L86.5688 325.471L84.4228 322.703L83.6978 322.406L83.7628 323.224C84.0888 323.934 84.5118 324.617 85.0208 325.275Z" fill="#81F32A"/>
<path d="M79.1989 318.198C79.6219 318.713 80.0539 319.148 80.4969 319.482C80.5609 319.575 80.6739 319.587 80.8349 319.516C80.9859 319.45 80.9839 319.202 80.8289 318.775L78.8949 315.997C78.8419 315.921 78.7289 315.905 78.5559 315.95C78.3859 315.994 78.3279 316.189 78.3839 316.534C78.5669 317.077 78.8329 317.632 79.1989 318.198Z" fill="#81F32A"/>
<path d="M386.763 43.942L387.068 44.303C387.64 44.146 388.039 43.717 388.29 43.053C388.156 42.921 387.999 42.815 387.821 42.735C387.368 43.056 387.016 43.459 386.763 43.942Z" fill="#81F32A"/>
<path d="M170.887 275.042C173.206 272.809 173.344 269.95 175.468 267.66L178.203 263.326L174.013 266.894C173.539 267.274 173.111 267.763 172.739 268.378C171.916 269.875 171.069 271.371 170.399 272.85C170.04 273.761 169.862 274.55 169.901 275.191C170.034 275.536 170.352 275.508 170.887 275.042Z" fill="#81F32A"/>
<path d="M187.602 249.805C188.206 248.969 188.817 248.134 189.192 247.248C189.216 247.135 189.222 247.045 189.222 246.963L189.408 247.126C189.843 246.669 190.152 246.182 190.336 245.661L190.975 244.469C191.057 244.48 191.161 244.464 191.292 244.414C191.82 243.942 192.182 243.392 192.403 242.775L193.211 241.272L197.343 235.561L196.912 235.367L196.853 235.069L193.727 239.369L192.566 240.937L192.855 240.907L191.564 242.347L190.541 243.758L190.862 243.759L189.505 245.163L188.711 246.674C187.341 248.615 185.163 250.422 185.111 252.583L185.744 252.274C186.398 251.483 186.996 250.641 187.602 249.805Z" fill="#81F32A"/>
<path d="M386.478 19.785C385.593 20.565 385.295 21.302 385.567 21.746L387.724 19.363C387.306 19.493 386.847 19.46 386.478 19.785Z" fill="#81F32A"/>
<path d="M367.508 29.212C368.116 28.905 368.496 28.454 368.649 27.858L368.696 27.83C368.784 27.731 368.812 27.594 368.78 27.417C368.75 27.245 368.547 27.28 368.173 27.522L364.815 31.272C364.919 31.456 365.062 31.597 365.243 31.696L367.508 29.212Z" fill="#81F32A"/>
<path d="M138.001 423.571C137.495 424.461 137.028 425.361 136.548 426.257L135.261 428.705C134.88 429.605 134.501 430.502 134.122 431.397L133.775 432.793L134.298 432.577C135.62 429.899 136.903 427.221 138.241 424.573L137.959 424.206L138.001 423.571Z" fill="#81F32A"/>
<path d="M137.96 424.205C138.077 424.281 138.171 424.404 138.242 424.573L139.756 422.233L140.142 420.66L139.375 421.285L137.96 424.205Z" fill="#81F32A"/>
<path d="M139.336 421.317L139.374 421.285L139.387 421.26L139.336 421.317Z" fill="#81F32A"/>
<path d="M112.174 367.514H112.173L112.168 367.523L112.174 367.514Z" fill="#81F32A"/>
<path d="M117.684 367.051L117.998 365.936C118.008 365.917 117.985 365.769 117.928 365.493C117.873 365.226 117.802 365.013 117.719 364.852C117.606 364.705 117.509 364.644 117.423 364.671C117.26 364.817 117.149 365.143 117.102 365.942L117.137 366.667L117.221 367.478L117.483 367.424C117.595 367.594 117.669 367.476 117.684 367.051Z" fill="#81F32A"/>
<path d="M119.532 360.696L119.59 360.148L119.724 360.405C119.869 360.44 119.984 360.4 120.056 360.284C120.132 360.172 120.149 359.999 120.1 359.776L120.108 359.285L120.278 358.985C120.173 358.877 120.064 358.778 119.954 358.686L119.706 358.489L119.627 358.605L119.775 358.886L119.79 358.904C119.707 358.831 119.623 358.772 119.536 358.728C119.367 358.683 119.24 358.689 119.149 358.749C119.042 358.887 119.021 359.109 119.111 359.495C119.104 359.509 119.13 359.571 119.188 359.678C119.097 359.635 119.055 359.678 119.059 359.819C119.13 360.072 119.244 360.283 119.413 360.434L119.532 360.696Z" fill="#81F32A"/>
<path d="M118.25 361.722C118.216 361.895 118.207 362.119 118.217 362.399L118.332 362.922L118.506 363.565L118.803 363.466C118.949 363.583 119.026 363.477 119.005 363.138L119.384 362.392L119.251 362.199C119.17 361.867 119.045 361.613 118.886 361.429C118.747 361.321 118.63 361.27 118.535 361.287C118.404 361.351 118.312 361.488 118.25 361.722Z" fill="#81F32A"/>
<path d="M147.443 310.534L147.531 310.833C148.041 310.433 148.402 309.914 148.614 309.275L149.597 307.823L150.379 306.22C150.215 306.191 150.061 306.147 149.916 306.087C149.12 306.282 148.52 307.386 147.879 308.293C147.437 308.944 147.056 309.606 146.737 310.278L146.727 310.543C146.339 310.833 146.105 311.257 146.03 311.818C146.178 311.973 146.338 312.112 146.509 312.234L147.443 310.534Z" fill="#81F32A"/>
<path d="M385.307 26.087L384.101 27.464C384.259 27.633 384.408 27.812 384.549 28L386.942 25.257C386.778 25.212 386.663 25.113 386.597 24.959L385.307 26.087Z" fill="#81F32A"/>
<path d="M377.149 60.628C377.153 60.44 376.972 60.456 376.607 60.676L374.292 63.317C374.466 63.344 374.605 63.414 374.71 63.527L375.957 62.483C376.48 62.076 376.913 61.595 377.241 61.026L377.004 61.064C377.097 60.959 377.145 60.814 377.149 60.628Z" fill="#81F32A"/>
<path d="M64.5991 302.493L65.0141 303.197L65.5361 303.818C65.7261 303.813 65.8651 303.732 65.9541 303.575L64.9941 302.198C64.8891 302.334 64.7571 302.432 64.5991 302.493Z" fill="#81F32A"/>
<path d="M117.983 361.95L118.178 361.72L118.48 361.106L118.36 360.91C118.285 360.587 118.169 360.331 118.026 360.122C117.905 359.998 117.815 359.955 117.749 359.991C117.716 360.111 117.716 360.298 117.749 360.57L117.722 361.099L117.915 361.642L117.983 361.95Z" fill="#81F32A"/>
<path d="M117.803 362.074L117.915 361.643L117.722 361.1L117.587 361.35C117.574 361.374 117.586 361.48 117.621 361.669C117.655 361.858 117.714 361.996 117.803 362.074Z" fill="#81F32A"/>
</svg>
