<svg width="1200" height="1200" viewBox="0 0 1200 1200" fill="none" xmlns="http://www.w3.org/2000/svg">
<path d="M0 1152H1200" stroke="white" stroke-miterlimit="10"/>
<path d="M0 1104H1200" stroke="white" stroke-miterlimit="10"/>
<path d="M0 1056H1200" stroke="white" stroke-miterlimit="10"/>
<path d="M0 1008H1200" stroke="white" stroke-miterlimit="10"/>
<path d="M0 960H1200" stroke="white" stroke-miterlimit="10"/>
<path d="M0 912H1200" stroke="white" stroke-miterlimit="10"/>
<path d="M0 864H1200" stroke="white" stroke-miterlimit="10"/>
<path d="M0 816H1200" stroke="white" stroke-miterlimit="10"/>
<path d="M0 768H1200" stroke="white" stroke-miterlimit="10"/>
<path d="M0 720H1200" stroke="white" stroke-miterlimit="10"/>
<path d="M0 672H1200" stroke="white" stroke-miterlimit="10"/>
<path d="M0 624H1200" stroke="white" stroke-miterlimit="10"/>
<path d="M0 576H1200" stroke="white" stroke-miterlimit="10"/>
<path d="M0 528H1200" stroke="white" stroke-miterlimit="10"/>
<path d="M0 480H1200" stroke="white" stroke-miterlimit="10"/>
<path d="M0 432H1200" stroke="white" stroke-miterlimit="10"/>
<path d="M0 384H1200" stroke="white" stroke-miterlimit="10"/>
<path d="M0 336H1200" stroke="white" stroke-miterlimit="10"/>
<path d="M0 288H1200" stroke="white" stroke-miterlimit="10"/>
<path d="M0 240H1200" stroke="white" stroke-miterlimit="10"/>
<path d="M0 192H1200" stroke="white" stroke-miterlimit="10"/>
<path d="M0 144H1200" stroke="white" stroke-miterlimit="10"/>
<path d="M0 96H1200" stroke="white" stroke-miterlimit="10"/>
<path d="M0 48H1200" stroke="white" stroke-miterlimit="10"/>
<path d="M1157.14 0V1200" stroke="white" stroke-miterlimit="10"/>
<path d="M1114.29 0V1200" stroke="white" stroke-miterlimit="10"/>
<path d="M1071.43 0V1200" stroke="white" stroke-miterlimit="10"/>
<path d="M1028.57 0V1200" stroke="white" stroke-miterlimit="10"/>
<path d="M985.715 0V1200" stroke="white" stroke-miterlimit="10"/>
<path d="M942.857 0V1200" stroke="white" stroke-miterlimit="10"/>
<path d="M900 0V1200" stroke="white" stroke-miterlimit="10"/>
<path d="M857.143 0V1200" stroke="white" stroke-miterlimit="10"/>
<path d="M814.285 0V1200" stroke="white" stroke-miterlimit="10"/>
<path d="M771.43 0V1200" stroke="white" stroke-miterlimit="10"/>
<path d="M728.57 0V1200" stroke="white" stroke-miterlimit="10"/>
<path d="M685.715 0V1200" stroke="white" stroke-miterlimit="10"/>
<path d="M642.857 0V1200" stroke="white" stroke-miterlimit="10"/>
<path d="M600 0V1200" stroke="white" stroke-miterlimit="10"/>
<path d="M557.143 0V1200" stroke="white" stroke-miterlimit="10"/>
<path d="M514.285 0V1200" stroke="white" stroke-miterlimit="10"/>
<path d="M471.428 0V1200" stroke="white" stroke-miterlimit="10"/>
<path d="M428.57 0V1200" stroke="white" stroke-miterlimit="10"/>
<path d="M385.715 0V1200" stroke="white" stroke-miterlimit="10"/>
<path d="M342.857 0V1200" stroke="white" stroke-miterlimit="10"/>
<path d="M300 0V1200" stroke="white" stroke-miterlimit="10"/>
<path d="M257.143 0V1200" stroke="white" stroke-miterlimit="10"/>
<path d="M214.286 0V1200" stroke="white" stroke-miterlimit="10"/>
<path d="M171.428 0V1200" stroke="white" stroke-miterlimit="10"/>
<path d="M128.571 0V1200" stroke="white" stroke-miterlimit="10"/>
<path d="M85.7139 0V1200" stroke="white" stroke-miterlimit="10"/>
<path d="M42.8574 0V1200" stroke="white" stroke-miterlimit="10"/>
</svg>
