<svg width="371" height="230" viewBox="0 0 371 230" fill="none" xmlns="http://www.w3.org/2000/svg">
<path d="M354.464 10.571L346.739 0.000976562L287.678 52.606L295.403 63.176L305.592 66.547C301.985 73.935 297.979 81.137 293.544 88.094C285.339 100.914 275.72 112.904 264.884 123.859C254.052 134.819 242.008 144.737 229.077 153.561C216.146 162.389 202.336 170.129 187.959 176.86C159.175 190.324 128.227 199.771 96.601 206.299C64.94 212.802 32.545 216.427 0.000976562 217.88L7.72598 228.451C40.274 229.879 73.044 229.15 105.692 225.413C138.31 221.637 170.875 214.842 202.299 203.419C217.995 197.702 233.383 190.81 248.157 182.54C262.927 174.276 277.079 164.621 290.191 153.523C303.303 142.434 315.361 129.903 325.983 116.162C334.531 105.073 342.113 93.206 348.738 80.82L370.501 88.019L354.464 10.571Z" fill="#FBFBFB" fill-opacity="0.5"/>
<path d="M362.776 77.449L346.738 0L287.677 52.605L308.841 59.606C304.437 69.437 299.357 78.973 293.543 88.093C285.338 100.912 275.719 112.902 264.883 123.858C254.05 134.818 242.007 144.736 229.076 153.56C216.145 162.388 202.335 170.127 187.958 176.859C159.174 190.323 128.226 199.77 96.6 206.298C64.939 212.801 32.544 216.426 0 217.879C32.548 219.307 65.318 218.578 97.966 214.841C130.584 211.065 163.149 204.27 194.574 192.847C210.27 187.13 225.658 180.238 240.432 171.968C255.202 163.704 269.354 154.049 282.466 142.95C295.578 131.861 307.636 119.33 318.258 105.59C326.806 94.501 334.388 82.634 341.013 70.248L362.776 77.449Z" fill="url(#paint0_linear_25_2270)"/>
<defs>
<linearGradient id="paint0_linear_25_2270" x1="181.388" y1="0" x2="181.388" y2="218.56" gradientUnits="userSpaceOnUse">
<stop stop-color="#97E7EB"/>
<stop offset="0.254808" stop-color="#B5D6F1"/>
<stop offset="0.625" stop-color="#DBC1F7"/>
<stop offset="1" stop-color="#E2BDF9"/>
</linearGradient>
</defs>
</svg>
