<svg width="373" height="429" viewBox="0 0 373 429" fill="none" xmlns="http://www.w3.org/2000/svg">
<path d="M123.9 309.718C122.733 311.05 121.878 312.476 121.225 313.965C121.061 314.447 121.02 314.863 121.091 315.223L121.497 315.351C121.161 315.47 120.821 315.675 120.477 315.967C120.108 316.364 119.779 316.789 119.5 317.247C119.299 317.643 119.17 318.02 119.108 318.379L119.067 318.303C118.684 318.578 118.423 318.924 118.305 319.351C118.255 319.415 118.266 319.52 118.34 319.669C118.413 319.815 118.584 319.831 118.854 319.717L118.882 319.966L119.454 319.021C119.539 319.048 119.633 319.064 119.745 319.057L120.328 318.543L120.639 317.859C121.036 317.009 122.293 315.988 121.54 315.364L121.663 315.294L121.592 315.318C124.653 312.674 127.441 309.836 128.945 305.993C129.007 305.916 128.991 305.785 128.896 305.597C128.802 305.412 128.587 305.385 128.247 305.518C126.6 306.538 125.295 308.247 123.9 309.718Z" fill="#FF5353"/>
<path d="M144.242 281.136C142.628 283.733 140.038 286.114 139.525 288.941L139.942 289.238C143.687 287.222 144.885 283.797 146.393 280.535C146.416 280.02 146.164 279.833 145.671 279.934C145.167 280.247 144.686 280.643 144.242 281.136Z" fill="#FF5353"/>
<path d="M132.68 298.464C132.306 298.825 131.945 299.206 131.606 299.611C131.265 300.016 130.931 300.426 130.623 300.853C130.309 301.282 130.014 301.72 129.755 302.168C129.576 302.502 129.427 302.834 129.297 303.163L128.99 303.404L128.835 304.072C128.903 304.128 128.959 304.197 129.022 304.257C129.004 304.43 128.991 304.601 129 304.761L129.252 305.136L129.86 304.868C132.159 303.009 132.81 300.512 134.246 298.316C134.367 297.848 134.251 297.616 133.859 297.661C133.459 297.854 133.066 298.119 132.68 298.464Z" fill="#FF5353"/>
<path d="M138.38 291.153L138.119 291.188C137.896 291.33 137.671 291.474 137.45 291.615C137.016 291.986 136.607 292.393 136.227 292.847C135.681 293.541 135.237 294.249 134.968 294.991C134.947 295.105 134.934 295.212 134.93 295.313L134.904 295.238C134.539 295.413 134.273 295.707 134.103 296.118L134.293 296.441C134.418 296.579 134.539 296.722 134.655 296.87L135.212 296.012L135.724 295.898L136.315 295.352C136.67 294.941 137.018 294.528 137.358 294.107C137.693 293.681 137.959 293.241 138.156 292.787L138.778 291.684C139.583 290.869 140.551 290.048 139.97 289.279C139.162 289.645 138.68 290.315 138.38 291.153Z" fill="#FF5353"/>
<path d="M139.971 289.28C140.015 289.259 140.051 289.243 140.099 289.22L139.943 289.239L139.971 289.28Z" fill="#FF5353"/>
<path d="M218.507 192.948C218.593 193.095 218.715 193.203 218.871 193.272C219.06 192.995 219.445 192.541 219.407 192.472C219.195 192.079 218.835 192.514 218.507 192.948Z" fill="#FF5353"/>
<path d="M330.061 27.682C330.025 27.727 329.989 27.76 329.953 27.793L329.962 27.791C332.196 26.199 333.794 23.372 336.267 22.268C336.72 22.196 336.96 22.37 336.988 22.787C334.304 27.537 330.51 31.496 326.302 35.162L325.578 36.273C325.351 36.728 325.031 37.129 324.602 37.47L324.557 37.437C324.293 37.844 323.962 38.152 323.561 38.351C322.242 41.014 320.779 43.644 318.405 46.066C318.23 46.495 318.027 46.928 317.8 47.364L317.737 47.459L317.821 47.408L317.871 47.506C318.001 47.058 318.295 46.686 318.766 46.398L320.245 45.911V46.073L320.257 46.067L320.246 45.91C322.667 43.979 324.187 40.618 327.132 39.522C327.457 39.238 327.789 38.976 328.129 38.736C328.262 38.837 328.401 38.933 328.545 39.022C328.525 39.252 328.444 39.461 328.303 39.649C328.438 39.893 328.473 40.208 328.406 40.592C328.117 41.074 327.773 41.533 327.369 41.967C326.768 42.606 326.269 43.337 325.59 43.909C325.308 44.099 325.031 44.284 324.755 44.47C324.842 44.623 324.966 44.735 325.142 44.789C325.414 44.555 325.693 44.343 325.977 44.154C326.106 44.235 326.245 44.306 326.392 44.365L324.73 46.582C324.523 47.026 324.231 47.444 323.842 47.83L323.251 48.366L322.958 48.324L322.956 48.376C322.669 49.396 321.955 50.365 321.158 51.324C320.782 51.781 320.381 52.224 319.973 52.658L318.182 54.56C317.806 54.986 317.414 55.399 317.024 55.811C316.705 56.173 316.374 56.526 316.043 56.877C316.379 56.703 316.576 56.697 316.628 56.864C316.684 57.043 316.673 57.174 316.594 57.258L316.531 57.286C316.455 57.661 316.262 58.039 315.935 58.421C315.602 58.806 315.248 59.052 314.871 59.16L314.009 60.078C314.149 60.152 314.225 60.276 314.239 60.448C314.621 60.117 315.006 59.793 315.379 59.438C315.694 59.074 316.004 58.72 316.302 58.346C316.757 57.722 317.228 57.118 317.791 56.561C318.217 56.191 318.647 55.867 319.089 55.568C322.232 53.613 324.458 50.12 327.455 47.924C327.822 47.777 328.208 47.621 328.591 47.467L328.992 46.842C330.712 46.379 331.989 44.748 333.363 43.371C333.396 43.298 333.425 43.237 333.46 43.159L334.029 42.453L335.115 41.625C335.931 41.17 336.258 41.859 337.121 41.294L342.54 35.669C342.8 35.55 343.038 35.483 343.256 35.461C343.603 34.841 344.114 34.357 344.782 34L346.578 32.056C348.117 31.043 349.16 28.558 351.025 28.518C349.78 32.022 346.384 34.167 343.983 36.94C341.291 38.412 339.468 41.258 337.138 43.302C334.647 45.344 332.493 47.7 330.61 50.311C330.412 50.664 330.164 50.997 329.866 51.311L329.421 51.784C329.421 51.784 329.304 52.277 329.302 52.284C329.142 52.651 328.95 53.016 328.736 53.384L328.708 53.434L328.643 53.91L328.05 54.642L328.021 54.64C327.939 54.784 327.855 54.931 327.774 55.074C327.649 55.286 327.513 55.494 327.372 55.701C327.373 55.709 327.379 55.713 327.379 55.722C327.388 55.912 327.351 56.052 327.266 56.144C326.99 56.458 326.713 56.771 326.435 57.088L326.327 57.053L326.154 57.257C325.76 57.725 325.346 58.186 324.992 58.66C324.824 58.917 324.691 59.183 324.643 59.42C324.726 59.533 324.848 59.56 325.032 59.478C325.126 59.124 325.309 58.763 325.591 58.395C325.976 58.037 326.369 57.786 326.769 57.643L327.061 57.929C327.291 57.778 327.523 57.638 327.758 57.516C328.608 57.12 329.436 56.808 330.288 56.379C331.572 55.549 332.705 54.176 333.919 53.105C333.74 53.07 333.563 52.946 333.388 52.692C335.107 50.984 336.66 49.216 337.412 47.164C337.744 46.951 338.049 46.685 338.325 46.363C338.833 46.039 339.274 45.915 339.649 45.991C339.611 48.198 336.765 49.431 335.795 51.315C335.601 51.594 335.403 51.878 335.226 52.132C335.648 51.886 336.088 51.703 336.552 51.613C336.81 51.928 336.752 52.391 336.379 53.013C333.394 56.637 329.73 59.721 327.043 63.565C325.508 65.689 322.893 66.976 321.83 69.466L321.434 70.172C321.066 70.483 320.722 70.653 320.397 70.711L319.835 71.33C319.598 71.452 319.45 71.472 319.384 71.4C319.321 71.549 319.249 71.7 319.16 71.857C318.76 72.488 318.295 73.092 317.826 73.694C317.716 73.853 317.604 74.016 317.493 74.177C317.843 74.156 317.878 74.394 317.598 74.891L317.609 74.776L316.81 75.915L316.726 75.64C316.586 75.741 316.477 75.806 316.381 75.854C316.157 76.196 315.918 76.533 315.663 76.865C315.321 77.285 314.964 77.691 314.599 78.093L313.489 79.297C312.532 80.582 310.894 81.195 310.224 82.762C307.832 86.966 304.119 90.344 300.87 94.012C299.415 95.95 297.833 97.689 295.814 98.736L295.638 98.663L295.379 99.904C293.266 101.354 291.065 102.724 290.067 105.185C290.193 105.069 290.318 104.954 290.447 104.836C291.927 103.653 293.273 101.912 294.932 101.477C295.443 102.566 294.585 103.939 293.405 105.378L290.668 108.344L272.509 128.079L260.748 140.863C260.91 142.295 259.371 143.173 258.38 144.23L252.062 151.161L249.556 154.263C249.284 154.854 249.452 155.271 249.216 155.85C248.973 156.236 248.693 156.605 248.381 156.96C248.087 157.329 247.853 157.708 247.678 158.096C244.688 159.992 242.515 162.916 240.187 165.642C239.976 166.153 239.69 166.428 239.339 166.501C239.223 166.851 239.038 167.212 238.784 167.581C238.619 167.87 238.435 168.152 238.243 168.431C238.372 168.323 238.55 168.261 238.784 168.251L238.761 168.169C239.107 168.452 239.051 168.854 238.36 169.444C238.226 169.347 238.106 169.234 237.999 169.108C237.994 168.937 238.019 168.795 238.068 168.675C237.616 169.303 237.122 169.917 236.618 170.524C236.094 171.206 235.511 171.847 234.926 172.476L233.845 173.679C233.161 174.462 232.547 175.292 231.908 176.106C231.566 176.496 231.196 176.84 230.796 177.13C229.031 179.246 226.362 180.864 225.698 183.588C225.692 183.935 225.506 184.275 225.14 184.608C224.624 185.016 224.119 185.451 223.643 185.945L223.177 186.437C212.286 198.445 203.085 211.513 192.96 223.991C192.648 224.893 192.022 225.531 191.207 226.011C186.526 233.024 180.264 238.897 175.116 245.568C173.658 249.52 169.918 252.548 167.503 256.21C163.134 262.858 157.516 269.085 152.985 275.812C151.995 277.272 150.604 279.299 149.33 278.14C148.976 278.184 148.659 278.16 148.372 278.079L148.321 278.04C148.165 278.153 148.007 278.253 147.847 278.338C147.739 278.273 147.637 278.202 147.541 278.123L148.005 277.575C147.986 277.496 147.974 277.409 147.97 277.314C148.068 276.892 148.252 276.457 148.5 276.013C148.765 275.58 149.063 275.157 149.379 274.744C149.685 274.336 150.009 273.938 150.337 273.545L151.289 272.375L152.189 271.19C152.597 270.579 153.01 269.962 153.42 269.349C153.712 268.939 154.031 268.549 154.366 268.173L154.768 267.695C154.939 267.388 155.151 267.097 155.405 266.82L155.467 266.775C155.705 266.444 155.933 266.107 156.146 265.76C156.43 265.295 156.735 264.849 157.058 264.398C158.122 262.974 159.033 261.539 159.616 260.058C159.812 259.595 160.054 259.125 160.316 258.661C160.567 258.211 160.846 257.76 161.126 257.312L161.127 257.311L160.835 257.695L159.911 258.842C159.62 259.242 159.348 259.646 159.104 260.061C158.749 260.702 158.388 261.355 158.033 261.995C157.368 263.128 156.713 264.245 156.063 265.353C155.664 265.985 155.248 266.643 154.849 267.274C154.763 267.462 154.65 267.629 154.512 267.778L154.344 268.026C154.182 268.225 154.015 268.431 153.854 268.629C153.686 268.811 153.511 269.001 153.341 269.185C152.811 269.615 152.273 269.91 151.746 270.2C151.247 270.557 150.879 271.015 150.658 271.584C150.555 271.956 150.432 272.323 150.306 272.699C150.158 273.107 149.971 273.508 149.747 273.917C149.264 274.766 148.598 275.554 148.128 276.404C147.898 276.85 147.598 277.26 147.237 277.644C146.623 278.124 146.042 278.403 145.496 278.449C145.278 278.433 145.135 278.333 145.049 278.172C144.877 278.588 144.663 279.007 144.414 279.427C144.096 279.976 143.753 280.524 143.403 281.07C142.917 281.905 142.412 282.737 141.862 283.56C140.883 284.956 139.792 286.174 138.46 287.013C138.292 287.448 137.966 287.872 137.551 288.29C137.139 288.617 136.838 288.634 136.599 288.484C136.597 289.039 137.072 289.205 136.978 289.837C136.846 290.295 136.641 290.76 136.371 291.231C135.8 292.146 135.121 293 134.419 293.836C134.091 294.236 133.748 294.625 133.4 294.998C133.071 295.351 132.719 295.682 132.364 295.99C131.874 296.401 131.364 296.767 130.881 297.202C130.893 297.208 130.481 297.667 130.481 297.667C130.481 297.667 130.106 298.158 130.118 298.162L130.032 298.332L130.451 298.639L130.585 298.612C130.427 299.108 130.17 299.421 129.819 299.559C129.708 299.866 129.52 300.165 129.251 300.453L129.164 300.471C129.113 300.599 129.059 300.731 129.01 300.854C128.819 301.241 128.586 301.615 128.313 301.978C128.021 302.322 127.708 302.634 127.379 302.916C126.902 303.314 126.415 303.675 125.925 304.049C125.587 304.312 125.242 304.58 124.903 304.842C124.591 305.202 124.346 305.571 124.164 305.97C123.951 306.377 123.709 306.77 123.443 307.16C123.04 307.751 122.609 308.323 122.167 308.89C121.882 309.278 121.582 309.655 121.281 310.03C121.017 310.366 120.755 310.699 120.492 311.033C120.491 311.052 120.491 311.064 120.491 311.064L121.465 310.077C121.554 310.202 121.646 310.323 121.742 310.439L121.408 310.991L120.964 311.469L121.215 311.484L120.18 312.578L119.701 312.093C119.511 312.357 119.325 312.624 119.15 312.896C118.816 313.507 118.472 314.137 118.13 314.763C117.65 315.613 117.082 316.42 116.474 317.214L117.022 316.712C117.185 316.315 117.441 315.988 117.791 315.732H117.792L118.475 314.574C118.658 314.702 118.832 314.842 118.995 314.995L118.174 316.031L117.347 317.085L117.624 317.128C117.451 317.595 117.157 317.943 116.742 318.172L115.006 320.238C114.863 320.091 114.728 319.934 114.602 319.769L115.077 318.909C114.837 319.171 114.592 319.425 114.336 319.665C114.112 319.85 113.889 320.003 113.666 320.133C113.771 320.485 113.774 320.911 113.669 321.406C113.523 321.964 113.306 322.532 113.035 323.106C113.301 323.075 113.5 323.15 113.628 323.336L113.746 323.693L113.615 324.201L110.484 328.488C109.978 329.509 109.444 330.305 108.808 330.311C108.324 331.872 107.448 333.283 106.063 334.503C105.368 335.073 104.774 335.007 104.104 335.437C102.609 339.064 100.526 342.519 98.3151 345.938C96.1041 349.356 93.8541 352.778 91.8971 356.264C90.4841 358.787 88.8891 361.27 87.4381 363.791C87.3811 364.302 87.1111 364.656 86.6551 364.875L82.1931 372.917L77.8931 380.988C76.8661 382.899 75.7811 384.792 74.8071 386.712C72.6921 388.604 72.5351 391.3 70.9271 393.396L69.5031 395.536C68.2831 397.809 68.0331 400.338 65.9801 402.36L65.2951 403.431L64.5991 404.522C63.1011 408.112 61.8691 411.713 60.5211 415.283C60.0631 419.041 59.2451 420.895 55.4951 422.483C51.0941 424.351 48.0741 424.103 45.7701 421.369C44.6911 423.046 43.5971 424.283 42.2491 425.08C40.1131 428.784 40.1041 428.796 38.7781 426.261C38.3861 425.507 37.6151 425.981 36.9681 426.604C32.0381 431.363 31.4991 425.345 28.6071 425.114C28.0451 425.077 28.2491 424.161 28.7231 423.28C29.2631 422.277 29.7621 421.439 30.5061 421.784C31.6921 422.33 33.3321 421.499 34.2031 419.643C35.1461 417.635 33.2961 417.635 32.9661 416.372C32.4171 414.08 30.3571 413.066 28.9491 412.723C25.7301 411.942 26.2521 408.545 26.7971 404.605C26.7261 404.367 26.7101 404.088 26.7471 403.775C26.8311 403.425 26.7571 403.246 26.5071 403.292C26.4851 403.338 26.2621 403.815 26.2621 403.815L25.9861 404.273C24.6401 407.333 21.3151 410.948 24.1101 412.776C24.6191 413.11 23.6811 414.844 23.0781 415.439C21.7061 416.791 20.0801 418.455 19.0851 417.366C18.2091 416.393 15.5731 417.745 16.6211 414.216C17.4161 411.561 17.4971 409.426 17.3541 407.519C17.2301 405.628 16.8301 403.931 16.5971 402.097C16.5421 401.087 16.4581 400.088 17.1241 398.731C17.2731 398.389 17.4421 398.049 17.6151 397.714C17.6241 397.294 17.8041 396.922 18.1841 396.609L18.2161 396.598L18.2331 396.569L18.4141 395.794L18.6141 395.537C18.4431 395.608 18.3461 395.57 18.3271 395.415C18.3031 395.219 18.3271 395.057 18.3981 394.931C18.5091 394.621 18.6701 394.335 18.8491 394.052L18.8011 393.929L18.9651 393.666C18.9081 393.579 18.8501 393.494 18.7831 393.417C18.6111 393.224 18.4841 392.99 18.3791 392.716C18.3431 392.557 18.3291 392.385 18.3271 392.205L17.7481 393.108L17.1341 393.442V393.197C16.9711 393.545 16.7331 393.841 16.4271 394.096L16.4221 393.954L16.3851 393.93C16.4061 394.125 16.3941 394.348 16.3461 394.604C16.1371 395.153 15.8431 395.645 15.4751 396.088L15.0291 396.25C15.1041 396.321 15.1671 396.416 15.2021 396.558C15.2251 396.981 15.1281 397.452 14.9131 397.971C13.9211 399.438 13.9901 400.709 13.6421 402.052C11.1201 402.212 11.1801 401.78 14.5191 396.155C14.6421 395.754 14.8011 395.355 14.9951 394.956C15.0351 394.475 15.2351 394.033 15.5791 393.627L15.5411 393.585L15.4981 393.646C15.1871 393.982 14.8781 394.189 14.5721 394.287C12.6921 394.151 12.9931 392.834 13.7841 391.332C14.5811 389.839 15.8291 388.128 15.7381 387.068L17.8401 383.425L18.2451 382.764C18.5391 382.327 18.8551 381.931 19.1981 381.573C19.5571 381.236 19.9101 380.978 20.2721 380.804C20.6361 380.662 20.9801 380.578 21.3191 380.521C21.8511 380.435 22.3091 380.484 22.5681 380.904C22.5701 381.001 22.5621 381.102 22.5501 381.203C22.6891 380.927 22.8371 380.652 22.9981 380.376C23.2451 379.917 23.5221 379.449 23.7921 378.997C24.1201 378.392 24.4501 377.773 24.6441 377.158C24.7051 376.795 24.5761 376.668 24.4161 376.579L23.9501 377.311L23.5511 377.057L24.0331 376.302C23.9521 375.962 23.9791 375.567 24.1251 375.088C24.3121 374.574 24.5381 374.075 24.8011 373.569C25.3721 372.515 26.0071 371.506 26.6951 370.526C27.9721 368.783 29.3811 367.281 30.8901 366.091C31.0731 365.977 31.2471 365.899 31.4121 365.847L31.5921 364.245C31.7401 363.804 31.9401 363.366 32.1991 362.931L33.0411 361.674C33.2411 361.408 33.4511 361.194 33.6691 361.025L33.6621 361.028L33.5731 360.406L34.8511 358.217C33.9911 356.697 37.7801 354.448 36.8061 352.955C35.9361 352.789 36.3761 351.743 36.8281 350.686C37.0481 350.252 37.3011 349.826 37.5651 349.405C37.7331 349.115 37.9141 348.831 38.1131 348.556L37.9651 348.64C38.1061 348.141 38.3781 347.736 38.8031 347.439C38.8751 347.402 38.9421 347.374 39.0041 347.355C39.2511 347.041 39.5041 346.735 39.7691 346.443C39.9871 346.228 40.2071 346.045 40.4291 345.888C40.4051 345.819 40.3741 345.758 40.3551 345.683C40.3361 345.318 40.4051 344.909 40.5391 344.469C40.7071 344.032 40.9231 343.6 41.1681 343.179C41.4001 342.776 41.6521 342.371 41.8991 341.973C42.2261 341.388 42.5161 340.797 42.7581 340.206C42.9071 339.824 43.0921 339.439 43.2921 339.06C43.4521 338.711 43.5951 338.362 43.7021 338.019L43.2891 338.66L43.4101 337.966C43.2651 337.944 43.1311 337.899 43.0121 337.824C42.8151 337.562 42.7551 337.185 42.8291 336.699L43.2761 335.928L43.6351 335.839C43.6441 335.736 43.6521 335.634 43.6701 335.525C43.7821 335.101 43.9491 334.672 44.1631 334.234C44.5051 333.574 44.8911 332.927 45.2651 332.276C45.3331 332.141 45.4031 332 45.4721 331.864C45.2451 332.182 45.0071 332.491 44.7501 332.783C44.3921 333.153 44.0211 333.45 43.6431 333.676C43.5321 333.716 43.4391 333.728 43.3561 333.725L43.2661 334.382L42.6481 334.829L42.1931 334.434L42.9861 333.337L44.3501 331.066C44.5221 330.592 44.7631 330.126 45.0711 329.668L45.5681 329.019L46.1441 328.516C46.4991 328.464 46.7511 328.571 46.9001 328.837C46.8881 328.966 46.8601 329.099 46.8251 329.234C47.0191 328.906 47.2241 328.581 47.4381 328.258C47.7231 327.814 48.0291 327.382 48.3381 326.953C48.7391 326.372 49.1311 325.786 49.5001 325.189C49.3661 325.373 49.2271 325.554 49.0791 325.731C48.6881 326.152 48.2781 326.489 47.8561 326.758C47.4361 326.872 47.2341 326.707 47.2851 326.223L48.6751 323.948C48.8741 323.448 49.1421 322.961 49.4901 322.489L50.0491 321.831L50.6781 321.448C51.0091 321.502 51.1991 321.723 51.2521 322.111C51.1801 322.287 51.0941 322.461 51.0021 322.635C51.4461 322.032 51.9371 321.526 52.4711 321.099L52.4591 321.03C52.5951 320.615 52.7881 320.198 53.0311 319.777C53.2831 319.356 53.5571 318.946 53.8431 318.539C54.1241 318.118 54.4191 317.709 54.7201 317.298C55.0211 316.869 55.3261 316.447 55.6481 316.033C55.9731 315.598 56.3111 315.182 56.6591 314.766L56.8821 314.514C56.9001 314.483 56.9131 314.449 56.9341 314.42C57.1211 314.06 57.3111 313.695 57.5051 313.321L59.1101 311.232C59.2801 310.709 59.5661 310.203 59.9531 309.713C60.5071 308.999 61.0181 308.204 61.7661 307.867L61.7641 307.894C62.0671 307.747 62.3161 307.711 62.5261 307.757C62.6361 307.599 62.7991 307.495 63.0221 307.455L63.2251 307.166C64.0501 306.864 64.6321 305.76 65.3901 305.228C65.7541 305.159 66.0251 305.24 66.2111 305.465C66.3791 305.926 66.3551 306.516 66.2521 307.162C66.1371 307.825 65.8471 308.527 65.5031 309.24C65.2901 309.576 65.0651 309.799 64.8281 309.92C64.8141 310.176 64.7641 310.454 64.6721 310.755C64.5411 311.059 64.3981 311.363 64.2481 311.668L64.3221 311.633C64.4061 311.678 64.4861 311.729 64.5641 311.782L64.5881 311.766C65.0741 311.495 65.5621 311.297 66.0571 310.92C66.3391 310.624 66.6021 310.31 66.8291 309.956C66.8711 309.885 66.9101 309.818 66.9501 309.749C66.7881 309.795 66.6471 309.77 66.5481 309.605C66.3821 309.566 66.2371 309.495 66.1141 309.393C66.1151 308.628 66.5971 307.959 67.2941 307.333C67.3771 307.285 67.4561 307.247 67.5361 307.209C67.4831 307.206 67.4401 307.203 67.4401 307.203C67.6911 306.714 68.0251 306.347 68.4421 306.101C68.8541 305.966 69.0321 306.13 69.0141 306.547L68.5981 307.117C68.6161 307.137 68.6391 307.153 68.6551 307.175L68.9601 306.768L69.0741 306.601L69.0151 306.546L69.2581 305.849L69.5881 305.646C69.3871 305.624 69.2271 305.537 69.1221 305.362C69.0971 305.277 69.0871 305.185 69.0741 305.094L68.8141 305.3C68.4881 305.328 68.2351 305.242 68.0511 305.047C67.9301 304.783 67.9181 304.446 68.0281 304.027C68.2971 303.587 68.6301 303.259 69.0141 303.031C69.2891 302.941 69.4611 302.992 69.5451 303.161L69.7531 302.835C70.1451 302.427 70.5361 302.174 70.9231 302.097C71.0861 302.117 71.2191 302.168 71.3241 302.246C71.3711 302.12 71.4181 301.995 71.4671 301.862L71.5401 301.51L71.4071 301.354C71.4811 301.201 71.5691 301.059 71.6641 300.923C71.7151 300.674 71.7671 300.425 71.8371 300.168C72.0001 299.739 72.2091 299.315 72.4601 298.888C72.8551 298.247 73.3001 297.635 73.7681 297.039C74.0681 296.648 74.3891 296.274 74.7141 295.915C75.0271 295.575 75.3601 295.259 75.6941 294.969L75.8161 294.865C75.7521 294.778 75.7321 294.638 75.7581 294.44C75.9051 294.086 76.1091 293.818 76.3651 293.632C76.3311 293.555 76.3271 293.492 76.3611 293.447C76.7261 292.051 77.6341 290.868 78.7781 289.779C79.1071 289.51 79.4341 289.302 79.7561 289.153H79.7541C79.9921 288.642 80.3351 288.263 80.7831 288.016C81.1991 287.892 81.4091 288.036 81.4211 288.436L81.7981 287.961C82.4021 287.188 83.0091 286.423 83.5931 285.639C83.8721 285.226 84.1461 284.822 84.4251 284.409C84.7911 283.771 85.1631 283.123 85.5371 282.473C86.0521 281.578 86.6491 280.721 87.2881 279.882C87.5951 279.464 87.9181 279.054 88.2501 278.657C88.7321 278.08 89.2161 277.501 89.6961 276.925C89.9901 276.552 90.3011 276.186 90.6071 275.824L91.4481 274.733C91.8161 274.168 92.1341 273.595 92.4201 273.015C92.6211 272.618 92.8551 272.229 93.1091 271.842C93.3681 271.452 93.6481 271.075 93.9371 270.701C94.2201 270.322 94.5161 269.953 94.8161 269.587C95.1131 269.214 95.4071 268.845 95.7031 268.474C95.9901 268.09 96.2731 267.712 96.5611 267.327C96.8201 266.917 97.0721 266.517 97.3351 266.1C97.6941 265.439 98.0481 264.779 98.4461 264.128C99.1861 262.954 100.051 261.852 100.924 260.75C101.277 260.282 101.645 259.83 102.017 259.377C102.38 258.907 102.758 258.453 103.138 257.999C105.371 255.481 106.933 252.729 108.493 249.979C108.717 249.598 108.966 249.225 109.225 248.854C109.125 248.823 109.032 248.78 108.955 248.709C108.829 248.402 108.812 248.024 108.916 247.567C109.179 246.838 109.609 246.125 110.119 245.417C110.452 244.947 110.811 244.492 111.178 244.041C111.539 243.579 111.92 243.136 112.308 242.696C113.105 241.801 113.924 240.958 114.864 240.438C115.195 240.321 115.397 240.36 115.473 240.552C115.526 240.686 115.543 240.791 115.527 240.868C115.557 240.806 115.583 240.752 115.614 240.688C115.855 240.207 116.137 239.723 116.435 239.248C116.729 238.793 117.067 238.35 117.42 237.924C117.77 237.525 118.148 237.152 118.534 236.806C118.98 236.42 119.426 236.023 119.85 235.583C119.724 235.524 119.598 235.464 119.465 235.413L118.609 236.452L118.542 236.182L117.931 236.344L117.926 235.745C118.153 235.354 118.408 235.111 118.684 234.996C118.93 234.316 119.476 233.667 119.861 233.001C120.183 232.52 120.563 232.091 120.989 231.706C121.416 231.339 121.85 231.016 122.292 230.74L123.349 229.782C123.459 229.905 123.576 230.021 123.7 230.129C123.118 231.574 120.891 232.736 120.908 234.283C121.161 233.962 121.42 233.645 121.693 233.336C123.804 231.271 125.378 228.954 126.701 226.51C127.019 226.01 127.378 225.534 127.768 225.072C128.371 224.401 128.999 223.761 129.615 223.104L130.816 221.729C133.771 218.47 136.387 215.06 138.421 211.366C138.681 210.932 138.971 210.511 139.273 210.093L138.674 210.764L138.602 210.473L137.981 210.553L138.077 209.864C138.764 208.844 139.616 207.941 140.418 207.003C140.754 206.603 141.096 206.365 141.437 206.255C141.414 206.174 141.419 206.11 141.457 206.066C141.843 205.343 142.335 204.703 143.024 204.219C143.463 204.054 143.748 204.121 143.852 204.457L142.236 206.694L142.134 206.432L140.903 208.144C141.384 207.635 141.886 207.175 142.404 206.74C146.651 202.337 150.72 197.813 154.028 192.724C158.556 186.99 163.99 181.872 167.964 175.772C171.99 170.79 176.696 166.29 180.349 161.044L180.486 160.836C179.733 161.304 178.95 162.061 178.221 162.299C177.66 161.044 179.753 160.041 180.222 158.884C181.745 157.103 182.824 154.363 185.221 154.464C184.616 155.573 184.521 156.729 183.282 157.777C185.84 156.662 188.058 154.569 190.198 152.139L205.797 134.646C206.596 132.547 208.395 130.952 209.987 129.253L212.523 126.166C213.417 124.623 214.728 123.391 215.997 122.132C216.99 121.209 217.958 120.263 218.905 119.297L220.692 117.191L223.342 114.438C224.283 113.334 225.202 112.211 226.097 111.065C226.747 110.173 227.51 109.366 228.26 108.547L235.198 100.97L242.321 93.203C244.525 90.93 246.484 88.401 248.88 86.329C248.995 86.351 249.1 86.372 249.211 86.394L264.505 69.475L265.593 68.637L265.318 68.583L268.296 65.709L268.996 64.596L271.631 61.954C272.272 61.162 272.896 60.358 273.511 59.549C274.056 58.796 274.658 58.116 275.431 57.66C279.489 55.033 282.579 51.063 285.968 47.507C287.874 45.506 289.605 43.228 291.958 41.938C293.611 39.208 296.56 37.279 298.141 34.504C301.192 30.295 305.176 27.751 308.923 24.781C309.042 24.349 309.291 23.934 309.69 23.535C310.297 22.994 310.92 22.491 311.536 21.962C312.171 21.381 312.817 20.837 313.497 20.371L313.522 20.358C313.502 20.331 313.491 20.296 313.493 20.247C313.503 20.041 313.561 19.881 313.667 19.766L314.562 18.689C314.732 18.268 314.986 17.863 315.338 17.473L316.381 16.342L317.962 14.651C318.332 14.271 318.719 13.993 319.126 13.833L319.083 14.081C319.125 15.343 316.612 17.401 317.796 18.307L317.697 18.958C317.209 19.871 316.572 20.558 315.765 20.983C315.97 20.972 316.156 20.994 316.323 21.046L317.625 19.848L318.565 18.783C318.663 18.907 318.771 19.022 318.887 19.126L317.969 20.2C317.732 20.543 317.503 20.887 317.283 21.234L316.933 21.593L316.966 21.642C316.977 21.777 316.976 21.919 316.969 22.064C318.151 21.423 319.489 20.452 319.749 21.805C319.576 22.306 319.313 22.816 318.956 23.322C317.973 24.481 316.991 25.654 315.852 26.681C316.781 25.935 317.499 24.953 318.347 24.109C319.937 22.541 321.17 20.617 322.961 19.254C323.475 18.883 323.98 18.629 324.475 18.47L324.961 18.696C325.05 19.083 324.992 19.545 324.794 20.073C324.601 20.539 324.362 21.004 324.09 21.469C324.361 21.475 324.585 21.549 324.758 21.698C324.908 21.923 324.972 22.214 324.971 22.553C324.907 23.086 324.732 23.655 324.438 24.259C324.124 24.835 323.727 25.395 323.3 25.944C323.023 26.295 322.731 26.641 322.434 26.981L321.993 27.493C321.648 28.402 320.822 29.384 320.465 30.295C322.404 28.792 324.189 26.752 326.286 25.841C331.461 23.938 335.146 18.198 339.73 14.787C339.873 14.902 340.02 15.014 340.17 15.121C339.568 16.969 337.436 18.159 336.558 19.884C335.269 22.034 333.252 23.793 331.775 25.84C331.289 26.515 330.729 27.16 330.061 27.682ZM43.8671 416.432C43.8181 416.484 43.7661 416.526 43.7141 416.572C43.7351 416.643 43.7601 416.71 43.7761 416.785C43.8131 416.666 43.8431 416.548 43.8671 416.432ZM21.2811 384.405C20.8151 385.354 20.2951 386.286 19.7071 387.201C19.3551 387.734 18.9761 388.226 18.5761 388.693C18.1541 389.136 17.7271 389.461 17.2931 389.693L17.2231 389.694L17.4061 389.932C17.3291 390.342 17.1951 390.762 17.0011 391.196C16.8521 391.509 16.6861 391.815 16.5131 392.12C16.5321 392.172 16.5411 392.237 16.5481 392.306L17.1531 392.068L17.2301 392.304C17.3381 392.01 17.5441 391.776 17.8521 391.606L17.8681 391.505L18.3591 391.821C18.3671 391.732 18.3661 391.65 18.3801 391.556C18.4981 391.08 18.6611 390.605 18.8681 390.117C19.0831 389.618 19.3181 389.128 19.5661 388.63C19.8111 388.095 20.0471 387.581 20.2901 387.051C20.6701 386.167 20.9761 385.286 21.2811 384.405ZM34.2561 361.895L33.9721 362.351L33.2251 363.472L32.7861 363.986L32.4691 364.587L31.4961 365.812C31.6671 365.767 31.8291 365.754 31.9791 365.776C32.2361 366.174 32.0681 366.777 31.7021 367.436C31.7381 367.383 31.3471 367.736 31.3471 367.736C31.3471 367.736 31.6841 367.726 31.6941 367.709C31.7801 367.337 31.9461 366.989 32.2041 366.638C32.3951 366.249 32.5591 365.871 32.6941 365.49C32.9191 364.897 33.1411 364.309 33.3671 363.715C33.5271 363.303 33.7221 362.896 33.9341 362.488C34.0431 362.286 34.1501 362.09 34.2561 361.895ZM38.7741 353.793L38.3651 354.372C38.0681 354.797 37.7751 355.217 37.4781 355.642C37.2431 355.981 36.9981 356.306 36.7491 356.628L35.7261 358.472C35.5491 359.028 35.2671 359.562 34.8941 360.078L34.5051 360.538C34.5571 360.549 34.5911 360.583 34.5891 360.666C34.5851 360.877 34.5331 361.058 34.4311 361.211L34.6611 361.181C34.8621 360.799 35.0601 360.422 35.2631 360.037C35.5431 359.407 35.8271 358.766 36.1081 358.135C36.5241 357.276 37.0291 356.447 37.5721 355.633C37.8271 355.231 38.0981 354.836 38.3681 354.445L38.7741 353.793ZM81.3891 288.481L80.5981 289.298C80.6051 289.364 80.6041 289.434 80.5971 289.505L80.9251 289.09C81.0811 288.885 81.2351 288.683 81.3891 288.481ZM115.48 240.977C114.391 242.93 112.126 244.462 111.305 246.51C113.058 244.883 114.502 243.07 115.48 240.977ZM163.2 253.753C163.053 253.886 162.953 254.051 162.9 254.249L163.2 253.753ZM177.733 234.952C176.078 236.967 173.735 238.624 172.855 241.053C173.667 240.385 174.43 239.976 175.053 240.267C175.101 240.27 175.139 240.273 175.185 240.276C175.164 240.064 175.088 239.868 174.938 239.693C175.527 238.32 176.499 237.147 177.648 236.069L177.847 235.926C177.665 235.698 177.648 235.36 177.733 234.952ZM166.116 182.395L166.068 182.464L166.114 182.46L166.116 182.395ZM311.193 61.847C311.04 61.971 310.887 62.096 310.729 62.225C309.993 62.788 309.202 63.126 308.502 63.86C308.204 64.172 307.912 64.49 307.633 64.818L307.545 64.96C307.998 64.498 308.477 64.075 308.98 63.698C309.589 63.27 310.193 62.971 310.787 62.73L311.286 62.519L311.156 62.347L311.193 61.847ZM308.406 57.851L307.994 58.167C307.573 58.497 307.15 58.791 306.725 59.043C306.859 59.213 306.894 59.463 306.803 59.812C306.772 59.88 306.743 59.943 306.713 60.008C306.844 59.845 306.972 59.68 307.094 59.512C307.343 59.133 307.618 58.767 307.911 58.406C308.071 58.215 308.237 58.031 308.406 57.851ZM313.797 59.286L312.883 60.239L312.932 60.219C313.062 60.088 313.201 59.965 313.355 59.856L313.797 59.286ZM329.586 27.991C329.365 28.061 329.141 28.1 328.926 28.38C329.14 28.437 329.362 28.184 329.586 27.991Z" fill="#FF5353"/>
<path d="M338.757 0.908997L334.112 5.89801L334.129 6.21399L326.884 13.825C329.558 13.306 330.828 9.936 333.036 8.474L334.687 6.33899L338.535 2.526L339.835 0.666016L338.757 0.908997Z" fill="#FF5353"/>
<path d="M298.143 98.849L297.844 98.572L295.967 100.324C296.826 100.868 297.463 99.696 298.143 98.849Z" fill="#FF5353"/>
<path d="M40.9342 338.619C41.3592 338.336 41.7522 337.964 42.1082 337.49C42.4022 336.98 42.5712 336.498 42.6132 336.045C42.4592 335.743 42.1752 335.657 41.7772 335.76C41.3442 336.149 41.0572 336.607 40.8962 337.123L38.7842 340.313C39.6072 340.636 40.2242 339.238 40.9342 338.619Z" fill="#FF5353"/>
<path d="M54.445 317.309C54.823 316.88 55.173 316.42 55.498 315.948C55.982 315.201 56.344 314.467 56.432 313.762C56.3 313.436 56.037 313.3 55.642 313.357L55.012 313.933L54.685 314.692L52.463 318.028C52.42 318.086 52.468 318.179 52.607 318.308C52.741 318.433 52.953 318.433 53.24 318.309C53.653 318.045 54.058 317.716 54.445 317.309Z" fill="#FF5353"/>
<path d="M60.1723 308.489C60.4683 308.013 60.6833 307.541 60.8243 307.072C60.8803 306.997 60.8573 306.883 60.7553 306.73C60.6573 306.582 60.4513 306.595 60.1393 306.769L60.0253 306.493L57.6943 309.923C57.6513 309.979 57.7003 310.069 57.8413 310.191C57.9773 310.309 58.1893 310.305 58.4773 310.179C59.1183 309.774 59.6753 309.194 60.1723 308.489Z" fill="#FF5353"/>
<path d="M37.0402 345.84C37.3152 345.391 37.5012 344.948 37.5982 344.511L37.4242 344.098L36.8942 344.316L35.3652 346.533C35.4132 346.9 35.6262 347.008 36.0042 346.857C36.3762 346.595 36.7242 346.26 37.0402 345.84Z" fill="#FF5353"/>
<path d="M34.667 350.463C34.936 349.86 34.975 349.395 34.781 349.069L34.185 349.122L32.752 351.516L32.8049 352.187L33.466 351.957C33.929 351.532 34.326 351.031 34.667 350.463Z" fill="#FF5353"/>
<path d="M31.17 356.875C31.42 356.403 31.598 355.941 31.688 355.493C31.738 355.418 31.7009 355.321 31.5729 355.202C31.4529 355.09 31.246 355.146 30.955 355.374L29.459 357.631C29.418 357.693 29.453 357.791 29.565 357.926C29.675 358.058 29.863 358.062 30.128 357.937C30.503 357.661 30.853 357.311 31.17 356.875Z" fill="#FF5353"/>
<path d="M329.993 36.724L330.301 37.08C330.798 37.019 331.115 36.697 331.277 36.151C331.144 36.018 330.993 35.904 330.826 35.811C330.451 36.031 330.174 36.336 329.993 36.724Z" fill="#FF5353"/>
<path d="M148.43 199.232C150.485 197.812 150.551 195.41 152.427 193.902L154.823 190.793L151.092 192.951C150.671 193.177 150.293 193.503 149.969 193.949C149.255 195.051 148.519 196.147 147.943 197.267C147.637 197.968 147.492 198.601 147.54 199.154C147.668 199.476 147.955 199.517 148.43 199.232Z" fill="#FF5353"/>
<path d="M162.962 181.146C163.483 180.551 164.011 179.958 164.323 179.275C164.342 179.183 164.344 179.108 164.342 179.037L164.515 179.213C164.894 178.908 165.161 178.555 165.312 178.147L165.857 177.258C165.931 177.284 166.025 177.291 166.143 177.275C166.608 176.978 166.921 176.582 167.103 176.1L167.793 174.981L171.373 170.938L170.977 170.687L170.915 170.421L168.206 173.462L167.199 174.566L167.46 174.598L166.331 175.567L165.444 176.566L165.735 176.631L164.546 177.557L163.871 178.688C162.69 180.075 160.775 181.187 160.792 183.025L161.355 182.887C161.924 182.341 162.44 181.74 162.962 181.146Z" fill="#FF5353"/>
<path d="M327.285 15.606C326.582 16.175 326.397 16.782 326.688 17.204L328.349 15.395C327.991 15.456 327.579 15.369 327.285 15.606Z" fill="#FF5353"/>
<path d="M311.326 21.296C311.838 21.113 312.133 20.772 312.211 20.275L312.25 20.257C312.318 20.183 312.33 20.068 312.284 19.91C312.24 19.757 312.063 19.759 311.752 19.919L309.126 22.719C309.237 22.893 309.379 23.036 309.55 23.147L311.326 21.296Z" fill="#FF5353"/>
<path d="M125.425 304.743L124.497 305.846L123.671 306.85C123.473 307.223 123.276 307.594 123.08 307.963L123.053 308.541L123.582 308.461L125.921 305.208L125.535 305.024L125.425 304.743Z" fill="#FF5353"/>
<path d="M125.535 305.025C125.677 305.067 125.806 305.129 125.921 305.209L126.939 304.277L126.969 303.591L126.319 303.809L125.535 305.025Z" fill="#FF5353"/>
<path d="M126.287 303.82L126.32 303.809L126.327 303.799L126.287 303.82Z" fill="#FF5353"/>
<path d="M69.024 306.535L69.0229 306.536L69.024 306.55V306.535Z" fill="#FF5353"/>
<path d="M85.1622 282.774L86.6212 280.545C86.6652 280.49 86.6201 280.397 86.4861 280.267C86.3571 280.141 86.1481 280.133 85.8611 280.246C85.4461 280.486 85.0431 280.801 84.6521 281.185C83.8831 282.021 83.2522 282.903 82.9102 283.881L82.9671 284.423C83.0731 284.543 83.1662 284.677 83.2462 284.825L84.3192 283.824C84.7422 283.589 85.0302 283.246 85.1622 282.774Z" fill="#FF5353"/>
<path d="M95.1004 268.135L95.8734 266.829L95.9734 267.095C96.3524 266.856 96.7064 266.547 97.0314 266.155C97.3614 265.765 97.5984 265.36 97.7414 264.939L98.3954 263.768L99.2494 262.732C99.1384 262.638 99.0074 262.57 98.8564 262.53L98.4994 262.469L98.0904 262.947L98.0704 263.395L98.0844 263.412C97.9654 263.387 97.8174 263.403 97.6334 263.473C97.2134 263.714 96.8104 264.035 96.4274 264.431C95.8704 265.078 95.4424 265.751 95.2144 266.463C95.1714 266.517 95.1744 266.598 95.2214 266.706C94.9874 266.834 94.7884 267.056 94.6244 267.374C94.5394 267.777 94.6734 267.938 95.0254 267.857L95.1004 268.135Z" fill="#FF5353"/>
<path d="M89.77 273.74C89.502 274.161 89.2949 274.579 89.1479 274.997L89.251 275.443C89.347 275.576 89.434 275.718 89.514 275.868L90.588 274.877C91.012 274.65 91.305 274.309 91.448 273.837L93.151 271.674L92.884 271.666C92.883 271.292 92.706 271.137 92.327 271.237C91.951 271.423 91.579 271.68 91.213 272.012C90.679 272.54 90.196 273.115 89.77 273.74Z" fill="#FF5353"/>
<path d="M127.673 224.306L127.756 224.579C128.213 224.349 128.533 223.986 128.717 223.49L129.589 222.469L130.279 221.279C130.13 221.219 129.99 221.148 129.858 221.066C129.137 221.056 128.61 221.866 128.04 222.497C127.648 222.955 127.312 223.434 127.031 223.935L127.025 224.158C126.677 224.32 126.471 224.629 126.41 225.09C126.546 225.254 126.692 225.406 126.848 225.547L127.673 224.306Z" fill="#FF5353"/>
<path d="M326.926 20.968L325.997 22.017C326.155 22.185 326.307 22.361 326.452 22.543L328.292 20.45C328.141 20.39 328.028 20.288 327.953 20.146L326.926 20.968Z" fill="#FF5353"/>
<path d="M322.957 50.028C322.943 49.864 322.783 49.853 322.476 49.997L320.647 51.993C320.806 52.041 320.937 52.122 321.041 52.235C321.379 51.989 321.719 51.741 322.062 51.492C322.492 51.206 322.834 50.843 323.076 50.389L322.868 50.39C322.942 50.311 322.971 50.19 322.957 50.028Z" fill="#FF5353"/>
<path d="M24.399 372.709L24.799 372.191L25.082 371.605C24.993 371.449 24.863 371.353 24.694 371.318L23.9771 372.455C24.1381 372.508 24.278 372.593 24.399 372.709Z" fill="#FF5353"/>
<path d="M88.5302 275.079L89.4892 273.985L91.1782 271.836L90.9102 271.846C90.9332 271.457 90.7582 271.31 90.3862 271.406C90.0112 271.602 89.6522 271.886 89.3082 272.248C89.0172 272.656 88.8062 273.063 88.6872 273.472L88.0762 274.606L88.4762 274.81L88.5302 275.079Z" fill="#FF5353"/>
<path d="M87.6629 275.985L88.4749 274.809C88.3359 274.75 88.2019 274.682 88.0749 274.605L87.2279 275.65C87.1459 275.751 87.1139 275.888 87.1309 276.063C87.1479 276.238 87.3239 276.212 87.6629 275.985Z" fill="#FF5353"/>
<path d="M89.4241 155.881C88.3591 154.409 87.1351 153.223 85.8041 152.22C85.3631 151.943 84.9611 151.802 84.5901 151.785L84.3771 152.155C84.3311 151.794 84.2011 151.409 83.9861 150.998C83.6721 150.538 83.3231 150.11 82.9301 149.723C82.5811 149.429 82.2361 149.21 81.8941 149.061L81.9781 149.039C81.7881 148.594 81.5031 148.253 81.1051 148.033C81.0531 147.968 80.9461 147.954 80.7831 147.99C80.6221 148.026 80.5701 148.19 80.6251 148.485L80.3721 148.452L81.1851 149.247C81.1401 149.324 81.1041 149.413 81.0871 149.525L81.4711 150.225L82.0811 150.699C82.8371 151.297 83.5791 152.787 84.3551 152.193L84.3981 152.331L84.3891 152.255C86.3481 155.919 88.5551 159.389 92.0911 161.71C92.1551 161.789 92.2891 161.802 92.4931 161.75C92.6951 161.698 92.7651 161.492 92.7011 161.127C92.0261 159.267 90.5661 157.629 89.4241 155.881Z" fill="#FF5353"/>
<path d="M113.835 182.077C111.558 179.958 109.673 176.914 106.964 175.836L106.593 176.189C107.916 180.304 111.081 182.207 114.057 184.324C114.566 184.444 114.795 184.229 114.779 183.723C114.555 183.164 114.24 182.619 113.835 182.077Z" fill="#FF5353"/>
<path d="M98.8108 167.071C98.5268 166.621 98.2218 166.18 97.8878 165.755C97.5548 165.328 97.2138 164.908 96.8528 164.509C96.4898 164.104 96.1148 163.716 95.7228 163.36C95.4278 163.109 95.1288 162.889 94.8278 162.687L94.6498 162.33L94.0188 162.028C93.9498 162.082 93.8708 162.123 93.7988 162.172C93.6308 162.115 93.4638 162.065 93.3038 162.038L92.8818 162.203L93.0268 162.864C94.4158 165.552 96.7618 166.751 98.6528 168.654C99.0918 168.876 99.3438 168.811 99.3748 168.412C99.2618 167.977 99.0768 167.529 98.8108 167.071Z" fill="#FF5353"/>
<path d="M104.978 174.253L104.991 173.987C104.891 173.737 104.79 173.486 104.69 173.238C104.402 172.734 104.072 172.246 103.692 171.778C103.104 171.097 102.482 170.514 101.794 170.095C101.686 170.049 101.582 170.013 101.484 169.988L101.563 169.978C101.461 169.578 101.223 169.249 100.849 168.992L100.494 169.111C100.334 169.206 100.169 169.295 100 169.377L100.739 170.117L100.752 170.651L101.183 171.351C101.526 171.787 101.873 172.215 102.228 172.638C102.59 173.057 102.978 173.41 103.394 173.698L104.375 174.539C105.037 175.502 105.675 176.629 106.544 176.208C106.331 175.334 105.755 174.721 104.978 174.253Z" fill="#FF5353"/>
<path d="M106.546 176.209C106.558 176.257 106.569 176.296 106.582 176.348L106.592 176.189L106.546 176.209Z" fill="#FF5353"/>
<path d="M191.3 269.277C191.144 269.346 191.023 269.454 190.937 269.602C191.192 269.823 191.604 270.259 191.677 270.23C192.091 270.065 191.697 269.655 191.3 269.277Z" fill="#FF5353"/>
<path d="M346.555 394.937C346.513 394.898 346.482 394.86 346.453 394.821L346.454 394.83C347.878 397.176 350.581 398.978 351.502 401.526C351.541 401.984 351.349 402.209 350.931 402.207C346.389 399.18 342.718 395.103 339.371 390.638L338.316 389.835C337.879 389.576 337.502 389.227 337.194 388.774L337.23 388.732C336.843 388.439 336.561 388.087 336.391 387.671C333.832 386.16 331.316 384.509 329.075 381.964C328.66 381.758 328.243 381.524 327.825 381.266L327.735 381.196L327.78 381.283L327.678 381.326C328.116 381.488 328.465 381.809 328.718 382.3L329.095 383.811L328.933 383.799L328.938 383.811H329.095C330.843 386.366 334.084 388.129 334.961 391.146C335.221 391.491 335.457 391.842 335.672 392.198C335.561 392.324 335.456 392.455 335.356 392.592C335.128 392.555 334.925 392.459 334.748 392.304C334.495 392.421 334.179 392.432 333.8 392.338C333.341 392.015 332.907 391.638 332.504 391.203C331.911 390.557 331.218 390.006 330.697 389.286C330.529 388.991 330.364 388.701 330.199 388.412C330.04 388.487 329.92 388.603 329.852 388.775C330.065 389.064 330.256 389.357 330.424 389.654C330.333 389.777 330.253 389.91 330.184 390.052L328.095 388.232C327.667 387.993 327.272 387.672 326.915 387.255L326.424 386.627L326.487 386.338L326.436 386.333C325.44 385.972 324.525 385.189 323.628 384.324C323.2 383.916 322.788 383.482 322.385 383.044L320.621 381.117C320.224 380.711 319.841 380.289 319.459 379.87C319.121 379.525 318.794 379.169 318.468 378.813C318.616 379.161 318.608 379.358 318.438 379.398C318.256 379.44 318.126 379.42 318.047 379.335L318.024 379.27C317.655 379.167 317.293 378.947 316.936 378.592C316.577 378.232 316.358 377.86 316.278 377.477L315.426 376.549C315.342 376.683 315.213 376.75 315.039 376.751C315.34 377.156 315.635 377.565 315.962 377.963C316.301 378.304 316.632 378.639 316.983 378.964C317.572 379.464 318.139 379.978 318.653 380.581C318.991 381.033 319.281 381.486 319.547 381.949C321.264 385.229 324.585 387.705 326.556 390.854C326.676 391.23 326.803 391.627 326.928 392.021L327.522 392.467C327.857 394.216 329.391 395.609 330.663 397.08C330.733 397.119 330.792 397.151 330.867 397.193L331.53 397.812L332.276 398.955C332.67 399.802 331.959 400.078 332.459 400.98L337.67 406.797C337.77 407.065 337.819 407.307 337.825 407.526C338.417 407.917 338.863 408.463 339.17 409.155L340.977 411.089C341.875 412.697 344.274 413.922 344.175 415.785C340.776 414.283 338.886 410.741 336.297 408.143C335.027 405.351 332.324 403.324 330.456 400.85C328.602 398.216 326.41 395.895 323.944 393.825C323.606 393.602 323.292 393.33 323.001 393.01L322.562 392.531C322.562 392.531 322.079 392.378 322.072 392.375C321.717 392.188 321.368 391.97 321.017 391.729L320.97 391.697L320.5 391.597L319.814 390.952L319.818 390.923C319.681 390.831 319.54 390.736 319.403 390.644C319.201 390.504 319.003 390.353 318.807 390.197C318.799 390.197 318.795 390.203 318.786 390.202C318.596 390.197 318.459 390.15 318.374 390.058C318.081 389.759 317.789 389.46 317.494 389.159L317.537 389.054L317.346 388.866C316.908 388.438 316.479 387.991 316.032 387.603C315.788 387.416 315.532 387.264 315.299 387.198C315.18 387.272 315.144 387.393 315.212 387.582C315.558 387.702 315.904 387.911 316.251 388.22C316.58 388.63 316.801 389.041 316.914 389.451L316.607 389.721C316.741 389.962 316.863 390.203 316.968 390.447C317.3 391.324 317.551 392.173 317.917 393.054C318.65 394.395 319.937 395.626 320.917 396.915C320.965 396.739 321.102 396.571 321.368 396.416C322.946 398.256 324.596 399.934 326.587 400.835C326.775 401.182 327.019 401.505 327.319 401.805C327.605 402.335 327.696 402.785 327.593 403.153C325.395 402.953 324.373 400.024 322.565 398.918C322.301 398.704 322.032 398.486 321.792 398.291C322.006 398.73 322.157 399.182 322.212 399.652C321.879 399.886 321.421 399.795 320.828 399.377C317.432 396.134 314.624 392.254 310.988 389.287C308.982 387.598 307.89 384.894 305.485 383.649L304.81 383.202C304.527 382.812 304.382 382.456 304.349 382.128L303.773 381.522C303.669 381.276 303.659 381.128 303.737 381.066C303.593 380.992 303.447 380.91 303.298 380.808C302.698 380.362 302.131 379.851 301.565 379.338C301.415 379.216 301.261 379.092 301.108 378.969C301.103 379.32 300.863 379.337 300.388 379.02L300.501 379.039L299.424 378.155L299.704 378.092C299.614 377.945 299.557 377.831 299.516 377.732C299.192 377.482 298.874 377.219 298.561 376.939C298.168 376.566 297.789 376.179 297.415 375.784L296.296 374.585C295.085 373.533 294.596 371.852 293.083 371.065C289.064 368.363 285.983 364.384 282.569 360.858C280.746 359.254 279.132 357.54 278.243 355.443L278.329 355.273L277.112 354.914C275.832 352.687 274.639 350.38 272.263 349.184C272.369 349.319 272.473 349.453 272.581 349.591C273.644 351.164 275.275 352.648 275.579 354.34C274.453 354.762 273.151 353.794 271.807 352.499L269.063 349.525L250.847 329.733L239.105 316.846C237.663 316.873 236.925 315.253 235.961 314.163L229.618 307.199L226.749 304.403C226.183 304.076 225.753 304.2 225.198 303.907C224.837 303.626 224.495 303.308 224.171 302.962C223.831 302.631 223.476 302.359 223.105 302.146C221.499 298.97 218.792 296.506 216.294 293.907C215.804 293.644 215.557 293.331 215.518 292.974C215.179 292.822 214.837 292.601 214.493 292.31C214.22 292.116 213.956 291.904 213.696 291.684C213.791 291.824 213.836 292.008 213.823 292.241L213.907 292.227C213.591 292.542 213.195 292.446 212.672 291.697C212.782 291.574 212.906 291.466 213.043 291.372C213.214 291.384 213.354 291.424 213.469 291.485C212.883 290.972 212.325 290.409 211.77 289.841C211.144 289.245 210.563 288.594 209.996 287.943L208.907 286.734C208.196 285.967 207.431 285.265 206.684 284.539C206.329 284.156 206.025 283.749 205.776 283.319C203.845 281.328 202.504 278.495 199.853 277.532C199.508 277.487 199.189 277.261 198.897 276.858C198.546 276.296 198.167 275.741 197.726 275.21L197.286 274.688C186.472 262.466 174.525 251.662 163.369 239.855C162.508 239.422 161.95 238.712 161.574 237.836C155.231 232.141 150.16 225.113 144.297 218.909C140.581 216.828 138.083 212.652 134.813 209.634C128.887 204.147 123.529 197.533 117.638 191.742C116.353 190.486 114.57 188.725 115.94 187.679C115.956 187.32 116.034 187.01 116.163 186.741L116.211 186.698C116.126 186.523 116.053 186.347 115.996 186.173C116.079 186.078 116.167 185.99 116.262 185.91L116.728 186.472C116.81 186.467 116.898 186.472 116.993 186.486C117.395 186.662 117.796 186.925 118.196 187.253C118.581 187.596 118.951 187.97 119.307 188.36C119.66 188.739 120.001 189.135 120.335 189.532L121.336 190.693L122.36 191.805C122.897 192.322 123.44 192.846 123.979 193.365C124.337 193.73 124.67 194.118 124.986 194.521L125.393 195.008C125.668 195.234 125.922 195.498 126.154 195.801L126.189 195.87C126.481 196.163 126.78 196.447 127.092 196.718C127.51 197.079 127.905 197.459 128.304 197.856C129.553 199.156 130.837 200.305 132.217 201.135C132.646 201.408 133.075 201.729 133.496 202.067C133.904 202.392 134.308 202.746 134.708 203.1L134.709 203.101L134.374 202.746L133.38 201.635C133.028 201.278 132.67 200.939 132.295 200.627C131.714 200.166 131.122 199.696 130.541 199.235C129.519 198.382 128.512 197.541 127.512 196.707C126.948 196.2 126.361 195.672 125.798 195.166C125.627 195.046 125.479 194.904 125.355 194.739L125.137 194.527C124.967 194.33 124.791 194.126 124.621 193.93C124.469 193.73 124.31 193.521 124.156 193.319C123.818 192.714 123.616 192.124 123.417 191.549C123.147 190.988 122.755 190.539 122.228 190.215C121.876 190.045 121.534 189.855 121.181 189.66C120.801 189.438 120.435 189.179 120.067 188.881C119.306 188.245 118.637 187.439 117.872 186.815C117.468 186.504 117.112 186.131 116.791 185.702C116.418 185.004 116.241 184.377 116.289 183.829C116.342 183.616 116.466 183.494 116.641 183.438C116.257 183.191 115.877 182.901 115.502 182.576C115.008 182.161 114.528 181.712 114.053 181.257C113.315 180.609 112.585 179.943 111.87 179.233C110.666 177.984 109.659 176.657 109.071 175.17C108.671 174.916 108.311 174.509 107.973 174.014C107.725 173.54 107.763 173.239 107.956 173.033C107.406 172.92 107.154 173.355 106.545 173.134C106.115 172.911 105.692 172.614 105.273 172.252C104.47 171.502 103.747 170.656 103.047 169.793C102.707 169.391 102.394 168.962 102.094 168.538C101.81 168.135 101.552 167.714 101.318 167.296C101.008 166.721 100.747 166.136 100.413 165.563C100.405 165.574 100.033 165.066 100.033 165.066C100.033 165.066 99.622 164.588 99.615 164.599L99.464 164.477L99.078 164.825V164.964C98.619 164.699 98.36 164.377 98.293 163.999C98.011 163.822 97.753 163.571 97.521 163.242V163.152C97.405 163.073 97.284 162.991 97.172 162.915C96.827 162.641 96.503 162.329 96.198 161.98C95.915 161.616 95.669 161.238 95.456 160.851C95.157 160.292 94.897 159.732 94.625 159.167C94.433 158.775 94.237 158.376 94.044 157.984C93.75 157.597 93.434 157.274 93.074 157.006C92.713 156.706 92.372 156.38 92.039 156.032C91.54 155.497 91.071 154.933 90.606 154.363C90.284 153.989 89.978 153.604 89.673 153.217C89.398 152.876 89.126 152.538 88.854 152.199C88.836 152.194 88.824 152.19 88.824 152.19L89.588 153.387C89.446 153.445 89.307 153.508 89.173 153.575L88.701 153.114L88.324 152.562L88.256 152.807L87.399 151.523L87.98 151.165C87.76 150.915 87.537 150.668 87.307 150.43C86.776 149.954 86.229 149.464 85.685 148.977C84.949 148.3 84.275 147.546 83.622 146.755L83.999 147.415H84C84.357 147.671 84.625 148.002 84.802 148.409H84.801L85.797 149.36C85.632 149.51 85.456 149.647 85.269 149.772L84.422 148.713L83.559 147.644L83.456 147.907C83.032 147.624 82.752 147.25 82.615 146.785L80.948 144.576C81.125 144.472 81.309 144.378 81.501 144.294L82.249 144.97C82.042 144.671 81.844 144.368 81.663 144.059C81.528 143.794 81.426 143.538 81.347 143.287C80.973 143.306 80.554 143.201 80.095 142.968C79.582 142.68 79.074 142.319 78.574 141.901C78.543 142.172 78.424 142.349 78.212 142.428L77.835 142.452L77.366 142.19L73.872 137.976C72.983 137.208 72.323 136.471 72.466 135.844C71.04 134.954 69.851 133.715 68.973 132.031C68.577 131.194 68.797 130.617 68.541 129.836C65.369 127.329 62.501 124.278 59.701 121.112C56.899 117.946 54.226 114.589 51.335 111.572C49.245 109.388 47.254 107.02 45.256 104.684C44.776 104.448 44.512 104.058 44.434 103.535L37.928 96.31L31.509 88.938C30.006 87.155 28.466 85.42 26.992 83.59C25.923 80.703 23.385 79.354 21.936 76.86L20.381 74.528C18.633 72.323 16.36 70.743 15.215 67.775L14.46 66.579L13.69 65.363C10.785 62.202 8.01303 58.806 5.16903 55.494C1.75503 52.937 0.400031 50.785 0.695031 46.233C1.04503 40.892 2.81502 38.42 6.46702 38.085C5.43402 36.122 4.98902 34.176 5.00202 32.446C2.90402 27.969 2.91203 27.981 5.86303 28.583C6.73703 28.759 6.74902 27.767 6.56802 26.792C5.20802 19.399 10.767 23.078 12.597 20.796C12.954 20.363 13.612 21.112 14.083 22.057C14.62 23.134 15.042 24.075 14.33 24.482C13.195 25.127 12.981 27.05 14.072 28.984C15.251 31.069 16.258 29.458 17.503 29.94C19.813 30.781 21.764 29.574 22.805 28.576C25.184 26.301 27.842 28.562 30.893 31.021C31.131 31.081 31.376 31.209 31.621 31.398C31.874 31.647 32.063 31.672 32.153 31.435C32.125 31.393 31.839 30.963 31.839 30.963L31.596 30.498C29.73 27.784 28.353 23.222 25.391 24.486C24.833 24.726 23.958 22.957 23.82 22.121C23.506 20.216 23.103 17.961 24.574 17.79C25.871 17.629 26.351 14.816 28.557 17.575C30.223 19.647 31.825 20.855 33.458 21.699C35.115 22.536 36.748 23.032 38.392 23.709C39.258 24.142 40.126 24.539 40.886 25.719C41.088 26.001 41.277 26.298 41.459 26.597C41.799 26.797 42.007 27.117 42.063 27.58L42.056 27.612L42.071 27.639L42.609 28.144L42.714 28.429C42.746 28.253 42.828 28.188 42.964 28.242C43.137 28.311 43.256 28.403 43.322 28.52C43.52 28.753 43.697 29.009 43.85 29.283L43.98 29.296L44.126 29.548C44.229 29.538 44.331 29.526 44.431 29.503C44.683 29.442 44.947 29.436 45.234 29.467C45.388 29.506 45.543 29.567 45.699 29.642L45.211 28.769L45.229 28.112L45.439 28.218C45.222 27.932 45.078 27.608 45.042 27.237L45.16 27.296L45.199 27.276C45.03 27.207 44.855 27.098 44.673 26.944C44.338 26.525 44.094 26.059 43.93 25.555L44.036 25.112C43.938 25.142 43.827 25.152 43.693 25.118C43.336 24.947 43.004 24.654 42.695 24.24C42.03 22.758 40.951 22.232 40.033 21.323C41.279 19.213 41.605 19.467 44.387 24.733C44.647 25.014 44.886 25.323 45.107 25.661C45.476 25.907 45.727 26.268 45.874 26.735L45.928 26.722L45.902 26.659C45.795 26.251 45.792 25.903 45.876 25.606C47.008 24.105 47.854 24.94 48.714 26.224C49.585 27.507 50.419 29.259 51.361 29.616L53.404 32.87L53.763 33.48C53.988 33.906 54.167 34.334 54.302 34.772C54.414 35.214 54.453 35.623 54.436 36.002C54.396 36.369 54.314 36.697 54.21 37.011C54.045 37.502 53.795 37.879 53.308 37.94C53.221 37.904 53.136 37.858 53.052 37.808C53.233 38.035 53.409 38.271 53.58 38.516C53.874 38.908 54.162 39.329 54.439 39.738C54.825 40.256 55.222 40.782 55.676 41.186C55.968 41.378 56.136 41.313 56.285 41.207L55.85 40.522L56.251 40.272L56.698 40.979C57.032 41.037 57.365 41.21 57.72 41.517C58.086 41.874 58.422 42.259 58.747 42.678C59.414 43.573 60.013 44.505 60.564 45.475C61.506 47.252 62.356 49.005 62.793 50.776C62.821 50.979 62.821 51.162 62.801 51.328L64.168 52.048C64.504 52.334 64.816 52.664 65.102 53.047L65.89 54.237C66.048 54.508 66.156 54.771 66.22 55.026V55.018L66.811 55.15L68.256 57.05C69.935 56.781 70.616 60.924 72.335 60.52C72.809 59.783 73.601 60.514 74.398 61.257C74.713 61.594 75.008 61.957 75.294 62.33C75.496 62.574 75.689 62.827 75.866 63.095L75.844 62.934C76.246 63.218 76.514 63.592 76.629 64.073C76.636 64.151 76.637 64.22 76.632 64.284C76.827 64.607 77.013 64.934 77.182 65.267C77.298 65.534 77.384 65.792 77.446 66.045C77.517 66.044 77.584 66.034 77.658 66.04C77.995 66.135 78.341 66.324 78.691 66.581C79.021 66.871 79.345 67.198 79.656 67.545C79.952 67.876 80.241 68.226 80.527 68.569C80.958 69.04 81.408 69.478 81.874 69.873C82.178 70.121 82.471 70.403 82.755 70.696C83.024 70.944 83.299 71.176 83.58 71.373L83.126 70.808L83.727 71.12C83.797 70.992 83.883 70.882 83.993 70.794C84.302 70.688 84.67 70.74 85.094 70.947L85.654 71.578L85.615 71.934C85.707 71.971 85.798 72.008 85.893 72.056C86.246 72.28 86.585 72.556 86.918 72.876C87.411 73.378 87.878 73.917 88.351 74.446L88.661 74.753C88.444 74.453 88.239 74.146 88.057 73.827C87.836 73.392 87.688 72.966 87.607 72.552C87.607 72.438 87.628 72.349 87.659 72.273L87.085 72.005L86.881 71.308L87.398 71L88.14 72.039L89.769 73.934C90.146 74.225 90.493 74.577 90.81 74.989L91.239 75.629L91.519 76.299C91.456 76.641 91.276 76.846 90.981 76.913C90.863 76.867 90.747 76.806 90.632 76.738C90.879 77.005 91.12 77.281 91.355 77.566C91.682 77.948 91.991 78.347 92.297 78.747C92.716 79.273 93.142 79.792 93.587 80.293C93.457 80.12 93.33 79.943 93.211 79.759C92.939 79.285 92.751 78.815 92.631 78.352C92.656 77.932 92.874 77.789 93.311 77.964L95.004 79.851C95.409 80.167 95.78 80.543 96.113 80.989L96.554 81.68L96.717 82.366C96.565 82.661 96.299 82.782 95.922 82.73C95.78 82.617 95.644 82.491 95.51 82.361C95.936 82.932 96.257 83.522 96.491 84.133L96.559 84.139C96.905 84.374 97.234 84.662 97.552 84.998C97.867 85.343 98.165 85.704 98.457 86.078C98.763 86.45 99.053 86.831 99.345 87.219C99.648 87.619 99.946 88.011 100.248 88.41C100.567 88.822 100.864 89.239 101.158 89.668L101.333 89.939C101.357 89.964 101.386 89.984 101.406 90.011C101.693 90.274 101.985 90.541 102.282 90.814L103.8 92.829C104.246 93.115 104.642 93.506 104.995 93.988C105.512 94.681 106.118 95.354 106.225 96.141L106.2 96.132C106.254 96.454 106.218 96.698 106.116 96.885C106.234 97.027 106.286 97.206 106.261 97.426L106.476 97.687C106.531 98.541 107.409 99.355 107.698 100.202C107.662 100.564 107.511 100.803 107.248 100.927C106.767 100.977 106.218 100.815 105.638 100.562C105.044 100.294 104.463 99.85 103.885 99.352C103.627 99.069 103.479 98.801 103.43 98.548C103.192 98.473 102.944 98.359 102.684 98.198C102.433 98 102.185 97.791 101.939 97.575L101.952 97.654C101.886 97.723 101.815 97.786 101.744 97.848L101.752 97.875C101.873 98.402 101.925 98.913 102.143 99.474C102.344 99.814 102.569 100.14 102.84 100.441L103.002 100.606C103.003 100.441 103.066 100.313 103.249 100.259C103.332 100.111 103.439 99.99 103.569 99.897C104.291 100.082 104.789 100.7 105.187 101.514C105.21 101.605 105.223 101.689 105.238 101.774C105.256 101.724 105.27 101.684 105.27 101.684C105.662 102.04 105.916 102.446 106.034 102.902C106.053 103.325 105.848 103.456 105.457 103.341L105.033 102.807C105.009 102.819 104.988 102.838 104.962 102.847L105.263 103.236L105.39 103.385L105.457 103.341L106.061 103.734L106.17 104.094C106.243 103.908 106.369 103.776 106.563 103.717C106.65 103.713 106.742 103.724 106.832 103.733L106.703 103.439C106.762 103.124 106.91 102.903 107.145 102.774C107.429 102.72 107.756 102.785 108.127 102.986C108.478 103.342 108.705 103.731 108.823 104.148C108.837 104.43 108.744 104.581 108.56 104.622L108.817 104.893C109.105 105.359 109.246 105.787 109.219 106.173C109.157 106.323 109.075 106.438 108.973 106.521C109.081 106.594 109.188 106.667 109.303 106.745L109.621 106.895L109.805 106.804C109.932 106.909 110.045 107.025 110.15 107.146C110.374 107.251 110.599 107.357 110.827 107.481C111.194 107.733 111.545 108.027 111.888 108.362C112.398 108.883 112.867 109.444 113.315 110.024C113.611 110.397 113.885 110.787 114.144 111.178C114.388 111.553 114.604 111.941 114.796 112.325L114.864 112.465C114.963 112.423 115.102 112.435 115.283 112.504C115.583 112.723 115.785 112.977 115.898 113.264C115.98 113.248 116.041 113.258 116.075 113.301C117.3 113.962 118.218 115.079 118.997 116.399C119.177 116.77 119.299 117.126 119.366 117.465V117.463C119.801 117.798 120.084 118.205 120.215 118.685C120.236 119.109 120.048 119.281 119.659 119.209L120.027 119.669C120.627 120.409 121.22 121.151 121.836 121.875C122.167 122.229 122.491 122.575 122.822 122.929C123.348 123.412 123.883 123.904 124.42 124.397C125.158 125.076 125.84 125.826 126.495 126.613C126.826 126.993 127.137 127.392 127.45 127.787C127.903 128.363 128.358 128.94 128.81 129.514C129.107 129.87 129.393 130.24 129.677 130.604L130.549 131.625C131.015 132.088 131.5 132.505 131.998 132.893C132.338 133.163 132.663 133.463 132.982 133.782C133.303 134.107 133.606 134.449 133.904 134.799C134.209 135.144 134.5 135.501 134.789 135.86C135.085 136.218 135.378 136.572 135.672 136.928C135.98 137.278 136.285 137.624 136.594 137.975C136.934 138.303 137.265 138.622 137.61 138.955C138.171 139.427 138.725 139.895 139.282 140.395C140.274 141.321 141.17 142.353 142.066 143.394C142.45 143.818 142.815 144.255 143.18 144.696C143.564 145.131 143.928 145.577 144.293 146.026C146.293 148.633 148.641 150.637 151.005 152.62C151.335 152.9 151.652 153.203 151.966 153.516C152.015 153.424 152.075 153.341 152.158 153.278C152.481 153.206 152.853 153.252 153.28 153.428C153.941 153.803 154.556 154.337 155.151 154.947C155.547 155.347 155.923 155.77 156.294 156.2C156.676 156.626 157.038 157.068 157.394 157.517C158.117 158.437 158.786 159.37 159.119 160.37C159.172 160.711 159.097 160.902 158.897 160.945C158.757 160.975 158.652 160.975 158.58 160.947C158.635 160.986 158.683 161.02 158.74 161.061C159.164 161.373 159.583 161.726 159.99 162.093C160.379 162.453 160.748 162.853 161.097 163.266C161.421 163.671 161.714 164.099 161.98 164.532C162.271 165.03 162.58 165.527 162.94 166.006C163.02 165.892 163.1 165.779 163.173 165.657L162.31 164.661L162.584 164.638L162.538 164.015L163.12 164.105C163.456 164.389 163.653 164.673 163.717 164.96C164.34 165.303 164.88 165.934 165.465 166.409C165.88 166.796 166.234 167.23 166.536 167.703C166.821 168.174 167.063 168.646 167.256 169.119L168.011 170.294C167.872 170.383 167.739 170.48 167.612 170.585C166.299 169.799 165.546 167.452 164.029 167.233C164.299 167.528 164.565 167.829 164.82 168.142C166.478 170.514 168.474 172.401 170.635 174.059C171.069 174.444 171.472 174.866 171.857 175.316C172.41 176.005 172.927 176.715 173.465 177.415L174.609 178.791C177.335 182.139 180.265 185.179 183.561 187.683C183.945 187.998 184.311 188.34 184.673 188.693L184.111 188.013L184.407 187.983L184.426 187.362L185.085 187.55C185.975 188.364 186.724 189.322 187.515 190.238C187.852 190.623 188.04 190.986 188.096 191.336C188.179 191.324 188.241 191.337 188.279 191.38C188.932 191.853 189.489 192.418 189.863 193.156C189.96 193.607 189.852 193.878 189.506 193.936L187.545 192.06L187.818 191.994L186.324 190.559C186.744 191.102 187.122 191.654 187.474 192.218C191.179 196.954 195.018 201.545 199.543 205.436C204.585 210.572 208.838 216.566 214.363 221.163C218.779 225.681 222.576 230.854 227.35 235L227.54 235.157C227.167 234.365 226.512 233.513 226.363 232.769C227.67 232.349 228.411 234.518 229.499 235.102C231.077 236.792 233.653 238.141 233.272 240.499C232.249 239.786 231.119 239.571 230.23 238.238C231.03 240.88 232.837 243.291 234.986 245.661L250.595 262.803C252.592 263.791 253.986 265.72 255.505 267.454L258.3 270.251C259.737 271.278 260.816 272.694 261.945 274.061C262.764 275.127 263.608 276.169 264.473 277.193L266.387 279.15L268.86 282.019C269.863 283.049 270.888 284.059 271.937 285.047C272.757 285.771 273.484 286.597 274.23 287.409L281.115 294.927L288.186 302.637C290.253 305.008 292.594 307.156 294.445 309.702C294.413 309.814 294.383 309.917 294.352 310.025L309.893 326.543L310.641 327.688L310.717 327.419L313.341 330.598L314.393 331.378L316.813 334.198C317.55 334.895 318.301 335.576 319.057 336.249C319.763 336.848 320.391 337.497 320.784 338.3C323.08 342.535 326.802 345.903 330.081 349.54C331.926 351.586 334.063 353.477 335.174 355.915C337.771 357.761 339.473 360.841 342.12 362.618C346.083 365.964 348.334 370.125 351.018 374.077C351.44 374.227 351.836 374.506 352.204 374.933C352.699 375.577 353.155 376.236 353.637 376.888C354.17 377.564 354.664 378.247 355.08 378.96L355.091 378.986C355.119 378.968 355.155 378.959 355.204 378.965C355.409 378.99 355.564 379.059 355.671 379.174L356.68 380.147C357.087 380.347 357.474 380.631 357.836 381.012L358.889 382.137L360.461 383.84C360.813 384.237 361.062 384.644 361.192 385.062L360.947 385C359.685 384.949 357.814 382.289 356.824 383.403L356.182 383.256C355.306 382.701 354.668 382.015 354.303 381.179C354.299 381.385 354.263 381.568 354.199 381.732L355.299 383.12L356.293 384.137C356.162 384.226 356.04 384.325 355.927 384.433L354.922 383.438C354.597 383.176 354.27 382.922 353.941 382.677L353.609 382.301L353.557 382.33C353.422 382.331 353.28 382.319 353.136 382.302C353.69 383.529 354.56 384.936 353.192 385.095C352.705 384.885 352.216 384.585 351.736 384.191C350.651 383.124 349.554 382.059 348.613 380.848C349.289 381.829 350.215 382.616 350.995 383.524C352.443 385.227 354.273 386.599 355.502 388.487C355.835 389.027 356.051 389.55 356.174 390.056L355.913 390.524C355.52 390.585 355.064 390.492 354.551 390.256C354.101 390.029 353.654 389.756 353.21 389.451C353.184 389.721 353.094 389.939 352.933 390.1C352.698 390.233 352.403 390.275 352.065 390.25C351.538 390.147 350.983 389.93 350.402 389.592C349.85 389.236 349.321 388.799 348.804 388.332C348.474 388.03 348.151 387.713 347.832 387.391L347.354 386.913C346.472 386.502 345.554 385.607 344.672 385.184C346.028 387.226 347.933 389.159 348.689 391.318C350.209 396.622 355.666 400.716 358.73 405.551C358.604 405.685 358.482 405.823 358.364 405.965C356.565 405.225 355.535 403.008 353.879 402.004C351.828 400.56 350.221 398.418 348.288 396.794C347.628 396.248 347.026 395.642 346.555 394.937ZM11.888 39.415C11.866 39.34 11.853 39.267 11.838 39.194C11.764 39.171 11.691 39.152 11.616 39.122C11.704 39.226 11.795 39.324 11.888 39.415ZM50.897 35.419C50.318 34.629 49.778 33.798 49.287 32.917C49.006 32.396 48.772 31.869 48.57 31.334C48.399 30.791 48.334 30.295 48.35 29.833L48.384 29.773L48.09 29.827C47.779 29.59 47.486 29.3 47.211 28.955C47.017 28.698 46.838 28.429 46.664 28.155C46.61 28.149 46.55 28.128 46.488 28.105L46.391 28.712L46.151 28.676C46.349 28.892 46.448 29.164 46.441 29.495L46.52 29.552L46.006 29.83C46.078 29.875 46.149 29.909 46.223 29.961C46.573 30.263 46.899 30.602 47.214 30.984C47.535 31.376 47.838 31.782 48.141 32.202C48.477 32.634 48.8 33.049 49.133 33.478C49.698 34.169 50.298 34.795 50.897 35.419ZM65.195 55.252L64.899 54.839L64.192 53.777L63.906 53.204L63.494 52.71L62.785 51.41C62.756 51.579 62.702 51.728 62.622 51.855C62.16 51.946 61.685 51.582 61.238 51.022C61.271 51.073 61.111 50.599 61.111 50.599C61.111 50.599 60.984 50.904 60.995 50.918C61.296 51.127 61.543 51.398 61.755 51.753C62.028 52.061 62.303 52.341 62.592 52.596C63.035 53.005 63.474 53.411 63.918 53.82C64.224 54.107 64.511 54.424 64.792 54.756C64.928 54.925 65.062 55.089 65.195 55.252ZM70.829 62.038L70.449 61.479C70.169 61.072 69.892 60.671 69.611 60.263C69.387 59.94 69.179 59.613 68.976 59.282L67.671 57.752C67.245 57.403 66.879 56.965 66.566 56.451L66.309 55.941C66.279 55.984 66.235 56.003 66.161 55.973C65.974 55.897 65.832 55.788 65.736 55.643L65.672 55.861C65.934 56.174 66.193 56.483 66.457 56.798C66.912 57.266 67.374 57.741 67.829 58.209C68.465 58.866 69.038 59.593 69.585 60.348C69.86 60.709 70.122 61.083 70.381 61.455L70.829 62.038ZM119.611 119.161L119.013 118.232C118.948 118.225 118.881 118.209 118.814 118.187L119.136 118.588C119.296 118.781 119.453 118.971 119.611 119.161ZM158.465 160.875C156.764 159.499 155.692 157.045 153.848 155.913C155.109 157.883 156.609 159.584 158.465 160.875ZM137.912 205.761C137.803 205.593 137.655 205.466 137.467 205.38L137.912 205.761ZM154.483 223.134C152.692 221.206 151.393 218.613 149.109 217.363C149.655 218.274 149.951 219.097 149.573 219.673C149.563 219.72 149.555 219.758 149.545 219.803C149.759 219.815 149.964 219.769 150.159 219.646C151.435 220.446 152.46 221.593 153.382 222.886C153.421 222.961 153.458 223.032 153.497 223.105C153.748 222.958 154.088 222.99 154.483 223.134ZM208.054 218.573L207.993 218.517L207.991 218.563L208.054 218.573ZM313.87 373.61C313.757 373.448 313.644 373.286 313.528 373.12C313.021 372.345 312.742 371.531 312.063 370.778C311.775 370.457 311.479 370.142 311.173 369.84L311.038 369.742C311.465 370.229 311.85 370.737 312.188 371.268C312.568 371.908 312.823 372.532 313.018 373.142L313.191 373.655L313.372 373.538L313.87 373.61ZM318.063 371.127L317.779 370.693C317.481 370.249 317.219 369.806 316.999 369.364C316.819 369.485 316.568 369.501 316.226 369.385C316.161 369.349 316.1 369.316 316.037 369.281C316.19 369.424 316.345 369.564 316.504 369.698C316.863 369.974 317.208 370.275 317.547 370.594C317.724 370.766 317.896 370.945 318.063 371.127ZM316.232 376.395L315.349 375.413L315.365 375.463C315.486 375.602 315.598 375.75 315.696 375.912L316.232 376.395ZM346.281 394.44C346.228 394.215 346.205 393.988 345.941 393.753C345.869 393.963 346.105 394.203 346.281 394.44Z" fill="#FF5353"/>
<path d="M372.633 405.618L367.994 400.603L367.678 400.596L360.613 392.791C360.935 395.494 364.206 397.019 365.503 399.333L367.513 401.143L371.036 405.273L372.797 406.712L372.633 405.618Z" fill="#FF5353"/>
<path d="M277.95 357.761L278.25 357.484L276.647 355.471C276.037 356.286 277.156 357.017 277.95 357.761Z" fill="#FF5353"/>
<path d="M83.9509 68.648C84.0679 69.119 84.2779 69.587 84.5959 70.05C84.9669 70.467 85.3549 70.76 85.7589 70.927C86.0899 70.871 86.2639 70.633 86.3039 70.238C86.0919 69.729 85.7679 69.336 85.3459 69.041L83.1199 66.192C82.5369 66.851 83.6209 67.819 83.9509 68.648Z" fill="#FF5353"/>
<path d="M99.3999 86.951C99.6879 87.414 99.9969 87.865 100.353 88.284C100.922 88.921 101.513 89.439 102.155 89.693C102.501 89.649 102.705 89.435 102.764 89.051L102.401 88.321L101.776 87.83L99.3349 84.906C99.2939 84.851 99.1929 84.872 99.0309 84.969C98.8739 85.063 98.8089 85.261 98.8369 85.562C98.9569 86.019 99.1389 86.484 99.3999 86.951Z" fill="#FF5353"/>
<path d="M106.072 94.481C106.437 94.874 106.821 95.189 107.223 95.434C107.278 95.504 107.392 95.51 107.564 95.45C107.731 95.392 107.776 95.195 107.7 94.859L107.992 94.817L105.421 91.8061C105.38 91.7521 105.282 91.777 105.126 91.88C104.976 91.98 104.919 92.18 104.957 92.481C105.158 93.181 105.547 93.845 106.072 94.481Z" fill="#FF5353"/>
<path d="M78.7099 62.947C79.0159 63.335 79.3489 63.641 79.7089 63.862L80.1459 63.828L80.1419 63.277L78.6979 61.208C78.3479 61.139 78.1709 61.3 78.1689 61.691C78.2699 62.11 78.4459 62.529 78.7099 62.947Z" fill="#FF5353"/>
<path d="M75.3891 59.36C75.8381 59.792 76.2461 59.971 76.6141 59.897L76.7871 59.34L75.1441 57.3L74.5131 57.138L74.4761 57.807C74.6901 58.358 74.9981 58.874 75.3891 59.36Z" fill="#FF5353"/>
<path d="M70.8993 54.162C71.2173 54.544 71.5563 54.856 71.9173 55.085C71.9633 55.155 72.0663 55.152 72.2233 55.075C72.3693 55.003 72.3983 54.799 72.3143 54.461L70.9143 52.371C70.8763 52.314 70.7743 52.313 70.6093 52.368C70.4473 52.423 70.3683 52.59 70.3733 52.87C70.4683 53.301 70.6393 53.732 70.8993 54.162Z" fill="#FF5353"/>
<path d="M337.541 394.205L337.163 394.486C337.187 394.987 337.485 395.326 338.018 395.527C338.161 395.404 338.285 395.262 338.39 395.102C338.198 394.712 337.915 394.413 337.541 394.205Z" fill="#FF5353"/>
<path d="M193.947 199.099C195.042 201.301 197.387 201.672 198.594 203.71L201.319 206.446L199.718 202.515C199.558 202.072 199.293 201.659 198.903 201.285C197.927 200.443 196.96 199.581 195.946 198.872C195.304 198.482 194.703 198.258 194.154 198.235C193.819 198.319 193.736 198.596 193.947 199.099Z" fill="#FF5353"/>
<path d="M209.704 215.612C210.219 216.196 210.73 216.786 211.359 217.175C211.447 217.204 211.52 217.215 211.59 217.222L211.394 217.372C211.641 217.783 211.957 218.085 212.34 218.28L213.147 218.918C213.112 218.988 213.093 219.08 213.094 219.197C213.328 219.688 213.679 220.041 214.131 220.275L215.147 221.081L218.679 225.062L218.977 224.699L219.247 224.667L216.594 221.657L215.633 220.542L215.568 220.795L214.756 219.575L213.884 218.59L213.783 218.869L213.022 217.594L211.996 216.799C210.792 215.471 209.959 213.455 208.151 213.252L208.211 213.823C208.669 214.447 209.19 215.026 209.704 215.612Z" fill="#FF5353"/>
<path d="M358.805 393.06C358.289 392.316 357.697 392.088 357.254 392.346L358.938 394.137C358.904 393.775 359.021 393.37 358.805 393.06Z" fill="#FF5353"/>
<path d="M354.295 376.718C354.44 377.242 354.758 377.561 355.248 377.675L355.263 377.715C355.331 377.789 355.446 377.808 355.607 377.774C355.763 377.741 355.773 377.564 355.637 377.243L353.038 374.42C352.856 374.518 352.703 374.649 352.58 374.811L354.295 376.718Z" fill="#FF5353"/>
<path d="M94.034 158.518L93.127 157.359L92.298 156.322C91.971 156.04 91.6461 155.76 91.3221 155.482L90.76 155.319L90.7271 155.863L93.4731 158.903L93.733 158.563L94.034 158.518Z" fill="#FF5353"/>
<path d="M93.7331 158.563C93.6631 158.694 93.5761 158.807 93.4731 158.903L94.1931 160.114L94.8661 160.295L94.7801 159.606L93.7331 158.563Z" fill="#FF5353"/>
<path d="M94.7759 159.572L94.7799 159.607L94.7889 159.616L94.7759 159.572Z" fill="#FF5353"/>
<path d="M105.453 103.348V103.347L105.439 103.345L105.453 103.348Z" fill="#FF5353"/>
<path d="M124.206 123.966L126.003 125.826C126.046 125.879 126.145 125.855 126.3 125.752C126.451 125.653 126.506 125.453 126.466 125.154C126.332 124.705 126.125 124.253 125.849 123.799C125.228 122.889 124.531 122.102 123.674 121.573L123.141 121.516C123.001 121.593 122.85 121.655 122.689 121.701L123.397 122.939C123.521 123.395 123.784 123.742 124.206 123.966Z" fill="#FF5353"/>
<path d="M136.114 136.401L137.206 137.395L136.929 137.442C137.078 137.854 137.3 138.255 137.607 138.643C137.912 139.036 138.251 139.341 138.626 139.559L139.627 140.403L140.462 141.414C140.576 141.323 140.668 141.208 140.738 141.07L140.87 140.736L140.488 140.256L140.057 140.156L140.038 140.167C140.087 140.056 140.101 139.91 140.071 139.721C139.92 139.274 139.693 138.826 139.397 138.379C138.893 137.719 138.338 137.18 137.702 136.826C137.659 136.775 137.58 136.762 137.467 136.787C137.394 136.537 137.223 136.302 136.952 136.084C136.582 135.926 136.398 136.025 136.4 136.381L136.114 136.401Z" fill="#FF5353"/>
<path d="M131.862 130.193C131.514 129.854 131.155 129.575 130.783 129.353L130.329 129.366C130.179 129.432 130.023 129.489 129.86 129.537L130.584 130.762C130.711 131.214 130.976 131.563 131.402 131.791L133.122 133.848L133.188 133.592C133.55 133.662 133.737 133.521 133.723 133.136C133.625 132.738 133.458 132.33 133.217 131.914C132.822 131.297 132.372 130.722 131.862 130.193Z" fill="#FF5353"/>
<path d="M172.602 175.329L172.322 175.37C172.469 175.851 172.769 176.218 173.222 176.471L174.07 177.475L175.119 178.323C175.202 178.186 175.294 178.059 175.396 177.942C175.518 177.242 174.824 176.604 174.304 175.954C173.924 175.503 173.514 175.103 173.073 174.755L172.857 174.716C172.758 174.352 172.491 174.104 172.053 173.977C171.87 174.086 171.697 174.206 171.533 174.338L172.602 175.329Z" fill="#FF5353"/>
<path d="M353.481 392.305L352.503 391.301C352.324 391.447 352.138 391.585 351.945 391.716L353.899 393.706C353.97 393.56 354.08 393.455 354.227 393.39L353.481 392.305Z" fill="#FF5353"/>
<path d="M324.788 386.214C324.953 386.212 324.975 386.053 324.854 385.737L322.998 383.766C322.938 383.921 322.848 384.046 322.727 384.141C322.947 384.496 323.169 384.854 323.393 385.214C323.647 385.663 323.984 386.032 324.419 386.306L324.433 386.098C324.507 386.177 324.625 386.216 324.788 386.214Z" fill="#FF5353"/>
<path d="M59.6621 42.639L59.9371 43.182L60.3221 43.648C60.4971 43.627 60.6371 43.548 60.7421 43.411L60.0701 42.362C59.9521 42.483 59.8161 42.576 59.6621 42.639Z" fill="#FF5353"/>
<path d="M130.839 128.742L131.687 129.875L133.394 131.913L133.443 131.652C133.813 131.748 133.993 131.608 133.982 131.23C133.875 130.831 133.679 130.432 133.405 130.032C133.075 129.675 132.728 129.394 132.359 129.201L131.398 128.396L131.113 128.742H130.839Z" fill="#FF5353"/>
<path d="M130.154 127.734L131.113 128.741C131.201 128.618 131.296 128.503 131.398 128.395L130.574 127.38C130.495 127.282 130.369 127.225 130.195 127.207C130.023 127.19 130.009 127.365 130.154 127.734Z" fill="#FF5353"/>
</svg>
